<?xml version="1.0" encoding="UTF-8"?><svg xmlns="http://www.w3.org/2000/svg" viewBox="0 0 220 220"><defs><style>.d{fill:#f8e9c6;}.e{fill:#fff;}.f{fill:#9d6d4f;}.g{fill:#b47e5e;}.h{fill:none;stroke:#fff;stroke-miterlimit:10;stroke-width:8px;}.i{fill:#fa714f;}.j{fill:#fda85e;}.k{fill:#f2d9b1;}.l{fill:#fc8a59;}.m{fill:#fec169;}.n{fill:#fe8a5a;}.o{fill:#fe7250;}</style></defs><g id="a"/><g id="b"><g id="c"><g><path class="e" d="M75.95,170.99c-.05-.32-.35-.29-.55-.35-3.65-1.06-5.9-3.5-6.76-7.13-4.42-18.56-8.81-37.14-13.18-55.72-1.61-6.85-.71-13.38,2.72-19.54,.13-.24,.24-.48,.38-.75-1.32-.46-2.63-.44-3.92-.56-.79-.07-1.35-.42-1.66-1.15-.32-.76-.07-1.43,.46-1.96,3.36-3.37,6.74-6.73,10.13-10.08,.66-.65,1.47-1.1,2.34-1.37,.55-.17,.79-.3,.55-.96-.44-1.24-.31-2.52,.24-3.7,.26-.55,.14-.83-.31-1.18-1.49-1.15-2.08-2.76-2.1-4.58-.03-2.38-.04-4.76,0-7.15,.05-3.45,2.42-5.8,5.9-5.81,26.56-.01,53.12-.01,79.67,0,3.09,0,5.49,1.94,5.75,4.91,.27,3.04,.25,6.1-.03,9.15-.13,1.41-.81,2.56-1.91,3.43-.47,.37-.64,.66-.35,1.27,.54,1.14,.64,2.38,.25,3.59-.18,.57-.18,.82,.47,1.01,1.24,.36,2.24,1.15,3.15,2.06,3,3.01,6,6.01,9.01,9.01,.64,.64,1.22,1.29,.86,2.29-.35,.98-1.16,1.18-2.09,1.24-1.14,.08-2.3,.1-3.52,.53,.9,1.65,1.77,3.32,2.39,5.11,1.89,5.46,1.79,10.94,.46,16.51-4.31,17.94-8.55,35.9-12.79,53.85-1,4.23-3.42,6.95-7.76,7.83-.06,.01-.1,.11-.14,.17H75.95Zm13.34-3.61c.32,.01,.63,.04,.95,.04,17.11,0,34.21,0,51.32,0,3.83,0,6.06-2.03,6.55-5.92,.07-.18,.17-.36,.22-.55,4.21-17.77,8.41-35.54,12.63-53.3,1.22-5.12,1.09-10.14-.99-15.03-.41-.85-.86-1.69-1.22-2.57-.39-.95-.82-1.1-1.72-.48-4.12,2.86-8.71,3.63-13.61,2.82-2.85-.47-5.25-1.93-7.66-3.41-3.48-2.13-7.22-2.4-11.11-1.52-2.13,.48-3.89,1.74-5.72,2.84-3.63,2.19-7.56,2.68-11.69,2.21-3.17-.36-5.83-1.94-8.47-3.56-2.56-1.57-5.33-2.06-8.31-1.9-2.5,.13-4.71,.96-6.79,2.26-1.89,1.18-3.8,2.32-5.99,2.83-5.23,1.22-10.17,.54-14.66-2.52-.92-.63-1.31-.44-1.81,.48-2.92,5.36-3.68,11-2.29,16.92,3.05,12.99,6.13,25.98,9.21,38.97,1.24,5.24,2.52,10.47,3.79,15.71,.58,3.52,2.65,5.65,5.74,5.71,3.88,.06,7.75,0,11.63-.01Zm-2.14-95.51c.47,.01,.95,.04,1.42,.04,12.61,0,25.21,0,37.82,0,7.14,0,14.27,0,21.41,0,1.45,0,2.36-.75,2.41-1.92,.06-1.22-.88-2.08-2.36-2.13-1.03-.03-2.06-.03-3.09,0-1.21,.03-1.96-.5-2.17-1.72,.31-1.42,.82-1.84,2.28-1.86,1.66-.02,3.32,.02,4.98-.01,1.43-.02,2.2-.75,2.29-2.17,.04-.55-.02-1.1-.04-1.66,.02-1.59,.04-3.17,.05-4.76,0-2.51-.58-3.09-3.08-3.09-20.25,0-40.49,0-60.74,0-.4,0-.79,.02-1.19,.04-5.56-.01-11.11-.03-16.67-.04-1.86,0-2.6,.74-2.61,2.6-.01,1.98,0,3.97,0,5.96,0,2.58,.55,3.13,3.15,3.13,21.6,0,43.2,0,64.79,0,1.9,0,2.16,.18,2.78,1.88-.32,1.38-1.26,1.72-2.57,1.71-15.65-.02-31.3-.02-46.95-.01-.63,0-1.27,.03-1.9,.04-2.06-.01-4.12-.04-6.18-.04-2.97,0-5.94-.03-8.91,.01-1.39,.02-2.32,.93-2.27,2.08,.04,1.09,.91,1.94,2.14,1.95,5.07,0,10.14-.02,15.21-.03Zm2.6,11.54c1.03,0,2.06,0,3.09,.03,3.67,.1,6.77,1.74,9.79,3.63,3.46,2.16,7.2,2.44,11.11,1.56,2.14-.48,3.9-1.73,5.73-2.82,3.9-2.33,8.09-2.84,12.5-2.11,2.89,.48,5.28,2.05,7.76,3.46,4.55,2.58,9.22,2.66,13.86,.3,2.53-1.29,4.83-3.04,7.67-3.64-.08-.48-.42-.66-.66-.91-1.9-1.91-3.84-3.79-5.71-5.74-1.15-1.2-2.48-1.71-4.13-1.7-7.1,.04-14.2,.04-21.3,0-1.06,0-1.64,.02-1.09,1.33,.39,.93-.07,1.75-.99,2.12-.93,.38-1.73,.06-2.22-.82-.27-.48-.49-1-.65-1.53-.25-.84-.71-1.11-1.63-1.11-8.49,.04-16.98,.02-25.47,.03-1.66,0-3.33,.03-4.99,.05-2.38-.02-4.76,0-7.14-.07-.82-.03-1.29,.25-1.71,.93-1.09,1.75-2.22,3.48-3.38,5.18-.85,1.24-2.18,1.41-2.99,.44-.68-.8-.5-1.61,.02-2.4,.86-1.31,1.72-2.63,2.69-4.13-3.79,0-7.34,.02-10.9-.01-1.49-.01-2.68,.5-3.72,1.56-1.97,2.01-3.98,3.99-5.96,5.99-.2,.21-.54,.35-.49,.81,2.56,.53,4.7,1.98,6.94,3.25,4.89,2.77,9.84,2.82,14.69-.04,2.93-1.73,5.86-3.31,9.31-3.64Z"/><path class="m" d="M159.97,92.61c2.08,4.89,2.2,9.91,.99,15.03-4.22,17.76-8.42,35.53-12.63,53.3-.04,.19-.14,.37-.22,.55-1.26,0-2.53,0-3.79,0-.34-1.35-1.26-1.73-2.58-1.72-17.33,.03-34.65,.02-51.98,.02-.47,0-.95-.03-1.42-.04,.12-.77-.17-1.49-.25-2.23-.31-2.78-.67-5.55-1.02-8.33-.36-2.85-.75-5.7-1.11-8.55-.35-2.77-.67-5.55-1.02-8.33-.36-2.85-.76-5.7-1.12-8.55-.43-3.4-.79-6.81-1.25-10.2-.58-4.3-1.15-8.59-1.17-12.95-.02-3.15,1.06-5.58,3.62-7.43,3.56-2.56,7.29-3.1,11.27-1.11,1.7,.84,3.25,1.94,4.98,2.74,4.18,1.94,8.49,2.21,12.96,1.44,3.12-.53,5.83-1.98,8.47-3.6,3.85-2.37,7.7-2.42,11.52,0,3.57,2.26,7.33,3.87,11.61,4.01,3.99,.13,7.78-.6,11.31-2.57,.93-.51,1.77-1.21,2.83-1.48Z"/><path class="j" d="M159.97,92.61c-1.06,.26-1.91,.96-2.83,1.48-3.53,1.96-7.32,2.69-11.31,2.57-4.28-.14-8.05-1.76-11.61-4.01-3.82-2.41-7.67-2.36-11.52,0-2.64,1.62-5.35,3.07-8.47,3.6-4.47,.76-8.79,.49-12.96-1.44-1.73-.8-3.29-1.9-4.98-2.74-3.98-1.98-7.71-1.45-11.27,1.11-2.56,1.84-3.64,4.27-3.62,7.43,.03,4.36,.59,8.65,1.17,12.95,.46,3.4,.82,6.8,1.25,10.2,.36,2.85,.76,5.7,1.12,8.55,.35,2.77,.67,5.55,1.02,8.33,.36,2.85,.75,5.7,1.11,8.55,.35,2.77,.71,5.55,1.02,8.33,.08,.74,.38,1.46,.25,2.23-3.41,.01-6.82,.02-10.23,.04-1.58,0-1.97,.32-2.4,1.89h-3.79c-1.26-5.23-2.54-10.46-3.79-15.7-3.08-12.99-6.16-25.97-9.21-38.97-1.39-5.92-.63-11.56,2.29-16.92,.51-.93,.89-1.11,1.81-.48,4.49,3.06,9.43,3.74,14.66,2.52,2.19-.51,4.1-1.66,5.99-2.83,2.08-1.3,4.29-2.13,6.79-2.26,2.97-.15,5.75,.33,8.31,1.9,2.64,1.62,5.29,3.2,8.47,3.56,4.13,.47,8.06-.02,11.69-2.21,1.83-1.1,3.59-2.36,5.72-2.84,3.89-.88,7.63-.61,11.11,1.52,2.4,1.47,4.81,2.93,7.66,3.41,4.9,.81,9.48,.04,13.61-2.82,.9-.62,1.33-.48,1.72,.48,.36,.88,.81,1.71,1.22,2.57Z"/><path class="l" d="M92.39,75.54c1.66-.02,3.33-.05,4.99-.05,8.49,0,16.98,.02,25.47-.03,.92,0,1.38,.27,1.63,1.11,.16,.53,.38,1.04,.65,1.53,.49,.89,1.3,1.2,2.22,.82,.92-.37,1.39-1.19,.99-2.12-.55-1.31,.03-1.33,1.09-1.33,7.1,.04,14.2,.04,21.3,0,1.66,0,2.98,.51,4.13,1.7,1.87,1.94,3.81,3.82,5.71,5.74,.24,.24,.58,.43,.66,.91-2.84,.6-5.14,2.35-7.67,3.64-4.64,2.36-9.31,2.28-13.86-.3-2.48-1.41-4.87-2.98-7.76-3.46-4.41-.73-8.6-.22-12.5,2.11-1.83,1.09-3.59,2.34-5.73,2.82-3.91,.88-7.65,.6-11.11-1.56-3.02-1.89-6.12-3.53-9.79-3.63-1.03-.03-2.06-.02-3.09-.03,.05-.88,.44-1.66,.72-2.47,.63-1.8,1.56-3.5,1.92-5.4Z"/><path class="n" d="M87.15,52.63c.4-.01,.79-.04,1.19-.04,20.25,0,40.49,0,60.74,0,2.5,0,3.08,.58,3.08,3.09,0,1.59-.03,3.17-.05,4.76-9.83,0-19.66,0-29.5,0-9.59,0-19.19,.05-28.78-.02-3.59-.03-5.5-1.15-6.55-4.49-.34-1.08-.07-2.21-.14-3.31Z"/><path class="o" d="M87.15,52.63c.06,1.1-.2,2.23,.14,3.31,1.05,3.34,2.96,4.46,6.55,4.49,9.59,.07,19.19,.02,28.78,.02,9.83,0,19.66,0,29.5,0,.02,.55,.07,1.11,.04,1.66-.09,1.41-.86,2.15-2.29,2.17-1.66,.03-3.32,0-4.98,.01-1.46,.01-1.97,.44-2.28,1.86-1.34,0-2.67,0-4.01,.01-.62-1.7-.88-1.88-2.78-1.88-21.6,0-43.2,0-64.79,0-2.6,0-3.15-.54-3.15-3.13,0-1.99-.01-3.97,0-5.96,.01-1.86,.75-2.6,2.61-2.6,5.56,0,11.11,.02,16.67,.04Z"/><path class="i" d="M92.39,75.54c-.36,1.9-1.29,3.6-1.92,5.4-.28,.81-.68,1.59-.72,2.47-3.45,.33-6.39,1.91-9.31,3.64-4.85,2.86-9.79,2.81-14.69,.04-2.24-1.27-4.38-2.72-6.94-3.25-.04-.47,.29-.61,.49-.81,1.98-2,3.99-3.98,5.96-5.99,1.03-1.05,2.23-1.57,3.72-1.56,3.55,.03,7.11,.01,10.9,.01-.98,1.5-1.83,2.82-2.69,4.13-.52,.8-.7,1.6-.02,2.4,.82,.96,2.15,.8,2.99-.44,1.17-1.7,2.3-3.43,3.38-5.18,.42-.68,.89-.96,1.71-.93,2.38,.07,4.76,.06,7.14,.07Z"/><path class="g" d="M138.58,66.16c1.34,0,2.67,0,4.01-.01,.22,1.21,.96,1.75,2.17,1.72,1.03-.02,2.06-.03,3.09,0,1.47,.04,2.41,.91,2.36,2.13-.05,1.17-.97,1.92-2.41,1.92-7.14,0-14.27,0-21.41,0-12.61,0-25.21,0-37.82,0-.47,0-.95-.03-1.42-.04v-3.97c.64-.01,1.27-.04,1.91-.04,15.65,0,31.3-.01,46.95,.01,1.31,0,2.25-.33,2.57-1.71Z"/><path class="d" d="M144.32,161.49c1.26,0,2.53,0,3.79,0-.49,3.89-2.72,5.92-6.55,5.92-17.11,0-34.21,0-51.32,0-.32,0-.63-.02-.95-.04l-.48-3.98c.47-.01,.95-.04,1.42-.04,17.13,0,34.27,0,51.4,0,1.82,0,2.16-.24,2.68-1.87Z"/><path class="k" d="M88.81,163.4l.48,3.98c-3.88,0-7.75,.08-11.63,.01-3.09-.05-5.16-2.19-5.74-5.71,1.26,0,2.52,0,3.79,0,.33,1.28,1.19,1.71,2.46,1.7,3.55-.02,7.09,.01,10.64,.03Z"/><path class="f" d="M87.15,67.9v3.97c-5.08,.01-10.14,.04-15.21,.03-1.23,0-2.1-.85-2.14-1.95-.05-1.15,.88-2.06,2.27-2.08,2.97-.04,5.94-.02,8.91-.01,2.06,0,4.12,.03,6.18,.04Z"/><path class="e" d="M88.81,163.4c-3.55-.01-7.09-.05-10.64-.03-1.27,0-2.13-.42-2.46-1.7,.43-1.57,.82-1.88,2.4-1.89,3.41-.02,6.82-.03,10.23-.04,.47,.01,.95,.04,1.42,.04,17.33,0,34.65,.01,51.98-.02,1.32,0,2.24,.38,2.58,1.72-.52,1.62-.87,1.87-2.68,1.87-17.13,0-34.27,0-51.4,0-.47,0-.95,.03-1.42,.04Z"/></g><circle class="h" cx="110" cy="110" r="106"/></g></g></svg>