<?xml version="1.0" encoding="UTF-8"?><svg xmlns="http://www.w3.org/2000/svg" viewBox="0 0 219 219"><defs><style>.d{fill:none;stroke:#fff;stroke-miterlimit:10;stroke-width:7px;}.e{fill:#fec007;}</style></defs><g id="a"/><g id="b"><g id="c"><circle class="d" cx="109.5" cy="109.5" r="106"/><path class="e" d="M34,88.77c.11-.09,.27-.16,.31-.27,1.37-3.91,4.28-5.59,8.26-5.93,10.44-.88,20.86-1.84,31.3-2.77,3.41-.3,6.82-.65,10.24-.91,1.02-.08,1.52-.53,1.92-1.47,5.56-13.1,11.15-26.19,16.78-39.26,2.3-5.35,8.73-6.82,12.96-3.04,1.1,.98,1.78,2.24,2.35,3.58,5.47,12.82,10.97,25.62,16.38,38.46,.53,1.25,1.23,1.67,2.51,1.78,10.83,.94,21.65,1.94,32.48,2.92,3.26,.3,6.53,.58,9.78,.91,3.53,.36,5.91,2.29,6.98,5.61,1.08,3.35,.14,6.31-2.48,8.62-8.08,7.14-16.2,14.23-24.3,21.33-2.58,2.26-5.12,4.56-7.75,6.75-.87,.73-1.11,1.38-.85,2.51,3.16,13.72,6.27,27.46,9.39,41.19,1.22,5.37-1.74,9.8-7.07,10.46-2.01,.25-3.79-.44-5.5-1.46-11.88-7.12-23.77-14.2-35.62-21.36-1.27-.77-2.15-.8-3.43-.02-11.89,7.18-23.83,14.3-35.76,21.41-4.35,2.59-9.13,1.6-11.59-2.38-1.24-2.01-1.48-4.17-.96-6.45,3.1-13.63,6.18-27.27,9.34-40.89,.35-1.5,.06-2.36-1.11-3.38-10.28-8.92-20.47-17.94-30.75-26.86-1.78-1.54-3.08-3.3-3.81-5.51v-3.58Z"/></g></g></svg>