<?xml version="1.0" standalone="no"?>
<!DOCTYPE svg PUBLIC "-//W3C//DTD SVG 1.1//EN" "http://www.w3.org/Graphics/SVG/1.1/DTD/svg11.dtd" >
<svg xmlns="http://www.w3.org/2000/svg" xmlns:xlink="http://www.w3.org/1999/xlink" version="1.1">
<metadata>
Created by FontForge 20170731 at Wed Jun 14 23:01:11 2017
 By Aleksey,,,
(c) 1991-1993 Kivun Computers Ltd. Portions (c) The Monotype Corporation
</metadata>
<defs>
<font id="MiriamFixed" horiz-adv-x="1229" >
  <font-face 
    font-family="Miriam Fixed"
    font-weight="400"
    font-stretch="normal"
    units-per-em="2048"
    panose-1="2 11 5 9 5 1 1 1 1 1"
    ascent="1638"
    descent="-410"
    x-height="866"
    cap-height="1170"
    bbox="-107 -527 1346 1734"
    underline-thickness="150"
    underline-position="-442"
    unicode-range="U+0020-FB4F"
  />
<missing-glyph horiz-adv-x="1024" 
d="M128 0v1505h768v-1505h-768zM256 128h512v1249h-512v-1249z" />
    <glyph glyph-name=".notdef" horiz-adv-x="1024" 
d="M128 0v1505h768v-1505h-768zM256 128h512v1249h-512v-1249z" />
    <glyph glyph-name="glyph1" horiz-adv-x="0" 
 />
    <glyph glyph-name="glyph2" 
 />
    <glyph glyph-name="space" unicode=" " 
 />
    <glyph glyph-name="exclam" unicode="!" 
d="M682 408q-29 -14 -72 -14q-22 2 -67 14v754q24 7 67 12q33 0 72 -12v-754zM694 114q0 -52 -25.5 -86.5t-60.5 -34.5t-58 34.5t-23 86.5q0 49 23.5 84.5t57.5 35.5q35 0 60.5 -35.5t25.5 -84.5z" />
    <glyph glyph-name="quotedbl" unicode="&#x22;" 
d="M914 1230q0 -29 -25 -72l-156 -269q-23 -40 -81 -40q-42 0 -42 19t10 44l111 278q26 65 72 65h70q27 0 34 -6t7 -19zM622 1230q0 -33 -23 -72l-158 -269q-23 -40 -81 -40q-42 0 -42 19q0 13 12 44l109 278q25 65 72 65h69q30 0 38 -8q4 -5 4 -17z" />
    <glyph glyph-name="numbersign" unicode="#" 
d="M1088 766h-209l-32 -242h195v-118h-209l-60 -406h-119l58 406h-255l-58 -406h-120l60 406h-195v118h225l30 242h-209v118h223l60 373h121l-60 -373h239l60 373h118l-58 -373h195v-118zM759 766h-239l-33 -242h242z" />
    <glyph glyph-name="dollar" unicode="$" 
d="M1042 311q0 -148 -103 -234q-94 -78 -250 -89v-146h-97v151q-116 11 -213 83q-106 78 -126 188l109 35q13 -59 78 -117q70 -62 152 -75v445q-318 88 -318 316q0 137 90 222.5t228 85.5v107h97v-104q102 -13 189 -80q92 -71 117 -166l-102 -51q-95 166 -204 171v-399
q163 -46 238 -102q115 -88 115 -241zM592 687v373q-193 -21 -193 -206q0 -104 193 -167zM921 311q0 88 -78 141q-44 31 -154 65v-417q232 25 232 211z" />
    <glyph glyph-name="percent" unicode="%" 
d="M1102 1234l-807 -1264l-84 51l808 1264zM1283 248q0 -116 -79.5 -196t-196.5 -80q-118 0 -198 79.5t-80 196.5q0 114 80.5 195t197.5 81q116 0 196 -81t80 -195zM504 1009q0 -116 -80.5 -196t-195.5 -80q-114 0 -196.5 80.5t-82.5 195.5q0 116 82.5 196t196.5 80
q115 0 195.5 -80t80.5 -196zM1165 248q0 65 -46 111.5t-112 46.5t-112 -46.5t-46 -111.5t46 -111.5t112 -46.5t112 46.5t46 111.5zM385 1012q0 64 -46 110.5t-111 46.5q-66 0 -112 -46.5t-46 -110.5q0 -67 45.5 -112.5t112.5 -45.5q66 0 111.5 45.5t45.5 112.5z" />
    <glyph glyph-name="ampersand" unicode="&#x26;" 
d="M1241 160q-135 -196 -280 -197q-138 -1 -260 158q-68 -68 -175.5 -108t-212.5 -41q-129 -1 -205 63q-87 74 -80 216q6 133 133 246q40 35 199 136q-60 140 -58 253q2 120 93 195q80 67 183 67q91 0 151 -53q65 -58 65 -158q0 -155 -256 -304q92 -156 214 -343l107 167
q49 76 51 135q3 78 -105 92v28h355v-28q-94 -20 -148 -106l-214 -341q101 -147 239 -147q105 0 165 96zM701 921q4 22 4 42q0 57 -35 89q-32 29 -81 29q-62 0 -105 -43q-48 -48 -48 -129q0 -65 65 -211q99 59 125 84q57 53 75 139zM650 172q-24 19 -119 159
q-105 153 -146 240q-183 -119 -183 -279q0 -84 55 -150q63 -76 163 -75q50 0 119 31.5t111 73.5z" />
    <glyph glyph-name="quotesingle" unicode="'" 
d="M763 1230q0 -33 -23 -72l-157 -269q-23 -40 -82 -40q-41 0 -41 19q0 16 11 44l109 278q25 65 72 65h70q34 0 39 -11q2 -5 2 -14z" />
    <glyph glyph-name="parenleft" unicode="(" 
d="M826 -158q0 -16 -23 -16l-74 9q-272 301 -272 713q0 404 276 707h49q44 0 44 -14q0 -15 -11 -28q-244 -293 -244 -665q0 -383 244 -680q11 -13 11 -26z" />
    <glyph glyph-name="parenright" unicode=")" 
d="M770 548q0 -415 -276 -713l-72 -9q-23 0 -23 16q0 7 10 26q245 293 245 680q0 376 -245 665q-10 20 -10 28q0 14 47 14h48q276 -305 276 -707z" />
    <glyph glyph-name="asterisk" unicode="*" 
d="M1009 680q2 -7 2 -14q0 -31 -27 -66q-25 -31 -51 -43l-279 195l26 -355q-19 -5 -63 -5q-15 0 -38 2.5t-31 2.5l14 350l-283 -190q-60 64 -63 123l306 151l-306 155q26 92 70 114l280 -191l-21 341q40 5 75 5q34 0 65 -9l-21 -344l273 195q22 -14 47 -53q28 -44 25 -70
l-306 -143q100 -51 306 -151z" />
    <glyph glyph-name="plus" unicode="+" 
d="M1174 466h-487v-498h-121v498h-485v126h481v503h125v-503h487v-126z" />
    <glyph glyph-name="comma" unicode="," 
d="M743 264q0 -29 -24 -71l-155 -272q-26 -37 -81 -37q-42 0 -42 21l9 39l109 281q24 63 72 63h70q42 0 42 -24z" />
    <glyph glyph-name="hyphen" unicode="-" 
d="M810 578q0 -49 -9 -72h-388q-7 40 -7 74q0 28 7 70h388q9 -31 9 -72z" />
    <glyph glyph-name="period" unicode="." 
d="M703 114q0 -53 -24.5 -87t-58.5 -34q-36 0 -61 34t-25 87q0 47 25.5 82.5t60.5 35.5q33 0 58 -35.5t25 -82.5z" />
    <glyph glyph-name="slash" unicode="/" 
d="M1050 1435l-825 -1735h-106l824 1735h107z" />
    <glyph glyph-name="zero" unicode="0" 
d="M1033 631q0 -289 -97 -461q-109 -193 -321 -193q-211 0 -319 193q-96 172 -96 461q0 288 96 459q108 193 319 193q212 0 321 -193q97 -171 97 -459zM884 631q0 226 -62 362q-70 153 -207 153q-135 0 -205 -153q-62 -136 -62 -362t62 -363q70 -154 205 -154q136 0 207 154
q62 136 62 363z" />
    <glyph glyph-name="one" unicode="1" 
d="M731 0q-31 -12 -79 -12q-22 1 -69 12v1023l-174 -167q-28 7 -62 40.5t-34 61.5l274 286q27 13 67 13q54 0 77 -13v-1244z" />
    <glyph glyph-name="two" unicode="2" 
d="M984 79q0 -53 -14 -79h-717q-1 16 -1 32q0 206 235 437q204 200 221 220q113 132 113 241q0 101 -68 156q-59 48 -147 48q-182 0 -272 -236q-30 -2 -75 23t-57 51q42 132 146 217q113 94 260 94q150 0 253 -91q111 -99 111 -264q0 -149 -121 -294l-266 -270
q-120 -123 -144 -213h529q14 -40 14 -72z" />
    <glyph glyph-name="three" unicode="3" 
d="M1007 422q0 -198 -137 -324t-343 -126q-243 0 -385 195q7 24 41 57q38 35 64 35l8 -1q123 -142 297 -142q131 0 220 84t89 211q0 106 -50 182q-63 94 -180 94q-68 0 -88 -28l-56 -77q-26 -6 -65 19q-42 26 -55 63l313 440h-448q-14 30 -14 79q0 44 14 72h673l26 -56
l-277 -387q170 0 267 -123q86 -108 86 -267z" />
    <glyph glyph-name="four" unicode="4" 
d="M1056 438q0 -42 -9 -78h-147v-360q-31 -12 -83 -12q-21 1 -65 12v360h-596q-7 54 -7 76q0 35 7 51q90 55 139 188q44 130 89 260q60 157 138 234q96 95 272 95q54 0 61 -1q30 -5 45 -29v-726h147q9 -47 9 -70zM752 508v603q-82 -3 -144 -65q-53 -53 -102 -190
q-40 -116 -81 -232q-29 -70 -58 -116h385z" />
    <glyph glyph-name="five" unicode="5" 
d="M1002 408q0 -191 -116 -312q-120 -124 -315 -124q-269 0 -394 225q41 67 118 84q115 -167 285 -167q126 0 200 86q69 80 69 204q0 131 -72.5 207t-189.5 76q-149 0 -218 -133q-21 -9 -53 -9q-47 0 -79 21l120 661l24 28h517l12 -69q0 -43 -14 -79h-399l-58 -323
q74 40 199 40q156 0 260 -119t104 -297z" />
    <glyph glyph-name="six" unicode="6" 
d="M1012 385q0 -186 -108.5 -299.5t-293.5 -113.5q-218 0 -326 170q-91 143 -91 380q0 328 179 530q193 219 542 219q7 -33 7 -65q0 -50 -16 -62q-211 0 -370 -127q-164 -131 -164 -316q108 104 279 104q135 0 239 -100q123 -119 123 -320zM870 385q0 117 -73.5 199
t-181.5 82q-106 0 -180.5 -83t-74.5 -198q0 -118 74 -197t181 -79q108 0 181.5 80t73.5 196z" />
    <glyph glyph-name="seven" unicode="7" 
d="M993 1186q0 -73 -51 -177q-127 -242 -254 -485q-138 -288 -154 -524q-24 -16 -74 -14q-28 1 -75 14q18 243 146 526q52 115 256 486q32 58 32 95h-582q-9 45 -9 65q0 38 11 83h740q14 -24 14 -69z" />
    <glyph glyph-name="eight" unicode="8" 
d="M1019 362q0 -171 -115.5 -280.5t-297.5 -109.5q-184 0 -300 109.5t-116 280.5q0 117 58 208t156 135q-156 98 -156 286q0 131 97.5 211.5t260.5 80.5q161 0 258 -80.5t97 -211.5q0 -203 -160 -286q100 -44 159 -135t59 -208zM817 970q0 77 -61.5 130t-149.5 53
q-91 0 -153.5 -53t-62.5 -130q0 -75 63 -130.5t153 -55.5q87 0 149 55.5t62 130.5zM877 364q0 109 -80.5 190.5t-190.5 81.5q-112 0 -192 -81.5t-80 -190.5q0 -106 79.5 -180.5t192.5 -74.5q111 0 191 75t80 180z" />
    <glyph glyph-name="nine" unicode="9" 
d="M1021 740q0 -330 -180 -535q-195 -221 -544 -221q-2 14 -2 65q0 53 14 62q209 0 368 132q163 134 163 321q-104 -105 -278 -105q-137 0 -240 96q-122 115 -122 317q0 184 110 297.5t293 113.5q217 0 326 -166q92 -142 92 -377zM854 875q0 116 -73.5 193.5t-181.5 77.5
q-107 0 -181 -79t-74 -195t74 -196t181 -80q108 0 181.5 81t73.5 198z" />
    <glyph glyph-name="colon" unicode=":" 
d="M701 768q0 -50 -25.5 -85.5t-58.5 -35.5q-36 0 -61 35.5t-25 85.5t25 84t61 34q34 0 59 -34.5t25 -83.5zM701 114q0 -53 -25 -87t-59 -34q-37 0 -61.5 34t-24.5 87q0 47 25 82.5t61 35.5q33 0 58.5 -36t25.5 -82z" />
    <glyph glyph-name="semicolon" unicode=";" 
d="M733 768q0 -50 -24.5 -85.5t-56.5 -35.5q-37 0 -61.5 35t-24.5 86q0 50 24.5 84t61.5 34q32 0 56.5 -34.5t24.5 -83.5zM743 264q0 -29 -24 -71l-155 -272q-26 -37 -81 -37q-42 0 -42 21l9 39l109 281q24 63 72 63h70q42 0 42 -24z" />
    <glyph glyph-name="less" unicode="&#x3c;" 
d="M1056 -5l-884 416v106l884 392v-127l-724 -318l724 -339v-130z" />
    <glyph glyph-name="equal" unicode="=" 
d="M1160 629h-1093v125h1093v-125zM1160 304h-1093v125h1093v-125z" />
    <glyph glyph-name="greater" unicode="&#x3e;" 
d="M1056 387l-884 -392v130l724 320l-724 337v127l884 -413v-109z" />
    <glyph glyph-name="question" unicode="?" 
d="M859 900q0 -95 -103.5 -261t-103.5 -245v-30q-25 -23 -65 -23q-44 0 -67 23v63q0 98 96 244t96 238q0 53 -32 91q-35 42 -91 42q-65 0 -104 -54q-35 -49 -35 -118q0 -37 -2 -51q-38 -9 -72 -9q-46 0 -60 9q-3 21 -3 65q0 109 69 191q80 94 217 94q121 0 193 -81
q67 -75 67 -188zM668 114q0 -52 -24 -86.5t-57 -34.5q-35 0 -60.5 34t-25.5 87q0 47 26 82.5t60 35.5q32 0 56.5 -36t24.5 -82z" />
    <glyph glyph-name="at" unicode="@" 
d="M983 345q0 -28 -22 -38q-10 -5 -34 -5h-68v11q-50 -8 -85 -8q-117 0 -197 71q-83 74 -83 189q0 142 115 226q102 74 250 74v97q0 107 -66 178.5t-172 71.5q-131 0 -205 -97q-117 -152 -117 -371v-331q0 -177 75 -305q91 -154 256 -154q150 0 225 71q17 16 33 16
q41 0 41 -40q0 -32 -60 -70q-96 -61 -251 -61q-160 0 -258 111q-81 92 -122 239q-23 82 -23 193v336q0 255 136 418q109 130 266 130q175 0 273 -149q53 -81 53 -186v-576q40 -4 40 -41zM859 398v384q-108 -1 -188 -52q-93 -60 -93 -163q0 -85 62 -134q57 -44 145 -44
q29 0 74 9z" />
    <glyph glyph-name="A" unicode="A" 
d="M1215 42q0 -42 -56 -42h-313q-57 0 -57 42t57 42h160l-115 307h-552l-113 -307h161q56 0 56 -42t-56 -42h-314q-56 0 -56 42t56 42h65l371 1002h-248q-56 0 -56 42t56 42h423l410 -1086h65q56 0 56 -42zM859 475l-232 611h-31l-225 -611h488z" />
    <glyph glyph-name="B" unicode="B" 
d="M1113 321q0 -175 -162 -272q-83 -49 -180 -49h-628q-56 0 -56 42t56 42h113v1002h-113q-56 0 -56 42t56 42h528q141 0 243 -79q111 -87 111 -224q0 -154 -165 -249q253 -91 253 -297zM940 874q0 96 -89 157q-79 55 -178 55h-333v-436h297q195 0 269 116q34 53 34 108z
M1028 319q0 72 -51 132q-46 55 -117 83q-79 31 -218 31h-302v-481h425q159 0 232 125q31 53 31 110z" />
    <glyph glyph-name="C" unicode="C" 
d="M1100 222q0 -22 -43 -70q-166 -185 -392 -185q-91 0 -185 35q-124 46 -234 185q-119 147 -119 317v171q0 132 69 259t180 194q115 69 250 69q208 0 358 -142v59q0 56 42 56t42 -56v-233q0 -57 -42 -57q-39 0 -42 51q-5 84 -91 149q-117 89 -264 89q-96 0 -183 -43
q-65 -32 -102 -76q-133 -157 -133 -331v-147q0 -186 133 -324q134 -141 319 -141q201 0 359 189q18 21 38 21q40 0 40 -39z" />
    <glyph glyph-name="D" unicode="D" 
d="M1142 527q0 -295 -247 -461q-98 -66 -229 -66h-452q-56 0 -56 42t56 42h71v1002h-71q-56 0 -56 42t56 42h452q208 0 327 -144q149 -180 149 -383v-116zM1058 509v152q0 78 -25 139q-36 89 -102 169q-96 117 -257 117h-305v-1002h305q105 0 200 70q90 65 138 165
q46 96 46 190z" />
    <glyph glyph-name="E" unicode="E" 
d="M1071 0h-927q-56 0 -56 42t56 42h113v1002h-113q-56 0 -56 42t56 42h883v-289q0 -56 -42 -56t-42 56v205h-602v-437h301v95q0 56 43 56q42 0 42 -56v-274q0 -56 -42 -56q-43 0 -43 56v95h-301v-481h646v248q0 56 42 56t42 -56v-332z" />
    <glyph glyph-name="F" unicode="F" 
d="M1140 881q0 -56 -42 -56q-43 0 -43 56v205h-643v-437h301v95q0 56 43 56q42 0 42 -56v-274q0 -56 -42 -56q-43 0 -43 56v95h-301v-481h288q56 0 56 -42t-56 -42h-485q-56 0 -56 42t56 42h113v1002h-113q-56 0 -56 42t56 42h925v-289z" />
    <glyph glyph-name="G" unicode="G" 
d="M1157 476q0 -29 -26 -38q-10 -4 -60 -4v-360q-194 -107 -382 -107q-261 0 -411 152t-150 387v154q0 141 68 268q70 131 188.5 200t258.5 69q203 0 343 -111q0 64 18 77q11 7 25 7q42 0 42 -56v-190q0 -56 -42 -56q-38 0 -41 52q-6 94 -130 149q-100 44 -208 44
q-244 0 -384 -243q-54 -94 -54 -211v-153q0 -216 134 -338q128 -117 347 -117q136 0 293 72v311h-289q-56 0 -56 42q0 43 56 43l404 -1q56 0 56 -42z" />
    <glyph glyph-name="H" unicode="H" 
d="M1135 42q0 -42 -56 -42h-292q-56 0 -56 42t56 42h112v482h-557v-482h113q56 0 56 -42t-56 -42h-292q-56 0 -56 42t56 42h95v1002h-52q-57 0 -57 42t57 42h249q56 0 56 -42t-56 -42h-113v-436h557v436h-112q-56 0 -56 42t56 42h249q57 0 57 -42t-57 -42h-52v-1002h95
q56 0 56 -42z" />
    <glyph glyph-name="I" unicode="I" 
d="M1001 42q0 -42 -56 -42h-660q-56 0 -56 42t56 42h288v1002h-288q-56 0 -56 42t56 42h660q56 0 56 -42t-56 -42h-288v-1002h288q56 0 56 -42z" />
    <glyph glyph-name="J" unicode="J" 
d="M1199 1128q0 -42 -56 -42h-200v-742q0 -156 -114.5 -266.5t-271.5 -110.5q-183 0 -386 186v310q0 56 42 56q43 0 43 -56l-1 -270q154 -142 302 -142q165 0 256 141q45 71 45 152v742h-329q-57 0 -57 42t57 42h614q56 0 56 -42z" />
    <glyph glyph-name="K" unicode="K" 
d="M1177 42q0 -42 -57 -42h-162q-100 274 -154 365q-113 189 -293 245l-169 -152v-374h155q57 0 57 -42t-57 -42h-352q-56 0 -56 42t56 42h113v1002h-113q-56 0 -56 42t56 42h352q57 0 57 -42t-57 -42h-155v-517l580 517h-92q-57 0 -57 42t57 42h247q56 0 56 -42t-56 -42
h-34l-462 -413q189 -77 302 -284q37 -68 132 -305h105q57 0 57 -42z" />
    <glyph glyph-name="L" unicode="L" 
d="M1112 0h-928q-56 0 -56 42t56 42h200v1002h-200q-56 0 -56 42t56 42h485q56 0 56 -42t-56 -42h-200v-1002h558v334q0 56 43 56q42 0 42 -56v-418z" />
    <glyph glyph-name="M" unicode="M" 
d="M1216 42q0 -42 -57 -42h-309q-57 0 -57 42t57 42h155v1002h-18l-317 -735h-96l-323 735h-16v-1002h155q56 0 56 -42t-56 -42h-310q-56 0 -56 42t56 42h71v1002h-53q-56 0 -56 42t56 42h206l318 -724l313 724h206q57 0 57 -42t-57 -42h-52v-1002h70q57 0 57 -42z" />
    <glyph glyph-name="N" unicode="N" 
d="M1153 1128q0 -42 -56 -42h-71v-1086h-108l-619 1047v-963h155q57 0 57 -42t-57 -42h-309q-57 0 -57 42t57 42h70v1002h-113q-56 0 -56 42t56 42h220l620 -1049v965h-155q-56 0 -56 42t56 42h310q56 0 56 -42z" />
    <glyph glyph-name="O" unicode="O" 
d="M1128 582q0 -161 -62 -300q-68 -151 -193 -235q-120 -80 -257 -80q-231 0 -378 197q-134 179 -134 418t133 418q147 197 379 197q145 0 265 -86q113 -81 179 -217q68 -143 68 -312zM1043 582q0 202 -110 358q-123 173 -317 173t-317 -174q-111 -156 -111 -357
q0 -200 111 -357q124 -174 317 -174q194 0 317 173q110 156 110 358z" />
    <glyph glyph-name="P" unicode="P" 
d="M1115 829q0 -158 -121 -248q-75 -56 -155 -82q-58 -19 -144 -19h-263v-396h288q56 0 56 -42t-56 -42h-485q-56 0 -56 42t56 42h113v1002h-113q-56 0 -56 42t56 42h488q157 0 270 -91q122 -97 122 -250zM1031 829q0 113 -96 188q-88 69 -204 69h-299v-522h268q85 0 165 37
q87 39 129 106q37 60 37 122z" />
    <glyph glyph-name="Q" unicode="Q" 
d="M1128 582q0 -235 -131 -414q-144 -198 -371 -201l-112 -84q83 17 137 17q89 0 173 -32q61 -23 93 -23q57 0 129 47q27 18 40 18q41 0 41 -42q0 -15 -10 -26q-21 -23 -95 -56q-57 -25 -110 -25q-38 0 -121.5 27t-137.5 27q-49 0 -121 -12q-96 -16 -162 -34q-18 -5 -29 -5
q-41 0 -41 44q0 19 23 36l187 135q-190 47 -303 230q-103 167 -103 373q0 239 133 418q147 197 379 197t379 -197q133 -179 133 -418zM1043 582q0 202 -110 358q-123 173 -317 173t-317 -174q-111 -156 -111 -357q0 -200 111 -357q124 -174 317 -174q194 0 317 173
q110 156 110 358z" />
    <glyph glyph-name="R" unicode="R" 
d="M1214 42q0 -42 -56 -42h-112q-122 219 -180 297q-117 158 -258 225h-267v-438h155q57 0 57 -42t-57 -42h-352q-56 0 -56 42t56 42h113v1002h-113q-56 0 -56 42t56 42h508q142 0 253 -89q119 -96 119 -235q0 -204 -289 -302q110 -76 205 -209q43 -61 154 -251h64
q56 0 56 -42zM940 850q0 100 -98 171q-89 65 -192 65h-309v-480h229q92 0 180 32q101 37 150 102q40 54 40 110z" />
    <glyph glyph-name="S" unicode="S" 
d="M1044 314q0 -165 -134 -261q-120 -86 -291 -86q-219 0 -350 137v-48q0 -56 -42 -56t-42 56v232q0 57 42 57q39 0 42 -51q6 -117 125 -185q100 -58 225 -58q134 0 230 64q111 74 111 202q0 138 -139 199q-49 22 -200 47q-180 30 -266 83q-127 77 -127 229q0 149 121 240
q109 82 263 82q176 0 303 -111v28q0 56 42 56t42 -56v-214q0 -56 -42 -56q-39 0 -42 51q-6 102 -105 164q-87 54 -195 54q-119 0 -205 -59q-98 -67 -98 -181q0 -101 84 -157q68 -46 236 -74q172 -28 236 -57q176 -79 176 -271z" />
    <glyph glyph-name="T" unicode="T" 
d="M1084 795q0 -57 -42 -57t-42 57v291h-344v-1002h218q56 0 56 -42t-56 -42h-521q-56 0 -56 42t56 42h218v1002h-344v-291q0 -57 -42 -57t-42 57v375h941v-375z" />
    <glyph glyph-name="U" unicode="U" 
d="M1148 1128q0 -42 -56 -42h-71v-702q0 -174 -114 -294q-116 -123 -289 -123q-226 0 -347 198q-61 99 -61 219v702h-71q-56 0 -56 42t56 42h310q56 0 56 -42t-56 -42h-155v-702q0 -136 92 -233q93 -100 228 -100q170 0 272 155q51 79 51 178v702h-155q-56 0 -56 42t56 42
h310q56 0 56 -42z" />
    <glyph glyph-name="V" unicode="V" 
d="M1214 1128q0 -26 -23 -37q-10 -5 -34 -5h-64l-416 -1086h-117l-423 1086h-65q-37 0 -49 20q-7 10 -7 22q0 27 23 38q10 4 33 4h313q37 0 50 -19q6 -11 6 -23q0 -26 -23 -37q-10 -5 -33 -5h-161l390 -1002h6l385 1002h-160q-38 0 -50 20q-7 10 -7 22q0 26 24 38q9 4 33 4
h312q38 0 51 -19q6 -11 6 -23z" />
    <glyph glyph-name="W" unicode="W" 
d="M1188 1128q0 -42 -57 -42h-31l-117 -1086h-132l-238 831l-233 -831h-132l-124 1086h-31q-56 0 -56 42t56 42h312q57 0 57 -42t-57 -42h-196l111 -990l227 815h129l233 -815l109 990h-197q-56 0 -56 42t56 42h310q57 0 57 -42z" />
    <glyph glyph-name="X" unicode="X" 
d="M1152 42q0 -42 -56 -42h-270q-56 0 -56 42t56 42h134l-347 446l-343 -446h134q56 0 56 -42t-56 -42h-268q-56 0 -56 42q0 31 26 39q10 3 61 3l394 515l-376 487h-31q-56 0 -56 42t56 42h229q57 0 57 -42t-57 -42h-94l324 -419l322 419h-94q-57 0 -57 42t57 42h230
q56 0 56 -42t-56 -42h-32l-374 -487l399 -515h32q56 0 56 -42z" />
    <glyph glyph-name="Y" unicode="Y" 
d="M1128 1128q0 -42 -56 -42h-50l-363 -558v-444h218q56 0 56 -42t-56 -42h-521q-56 0 -56 42t56 42h218v444l-369 558h-50q-56 0 -56 42t56 42h231q56 0 56 -42t-56 -42h-83l314 -473l307 473h-82q-57 0 -57 42t57 42h230q56 0 56 -42z" />
    <glyph glyph-name="Z" unicode="Z" 
d="M1022 0h-809v122l682 964h-559v-247q0 -57 -43 -57q-42 0 -42 57v331h725v-119l-682 -967h644v293q0 57 42 57t42 -57v-377z" />
    <glyph glyph-name="bracketleft" unicode="[" 
d="M810 -225h-362v1415h362v-72h-248v-1271h248v-72z" />
    <glyph glyph-name="backslash" unicode="\" 
d="M873 0h-147l-396 1197h160z" />
    <glyph glyph-name="bracketright" unicode="]" 
d="M777 -225h-357v72h248v1271h-248v72h357v-1415z" />
    <glyph glyph-name="asciicircum" unicode="^" 
d="M991 436h-118l-256 569l-250 -569h-121l320 703h105z" />
    <glyph glyph-name="underscore" unicode="_" 
d="M1299 -258h-1299v112h1299v-112z" />
    <glyph glyph-name="grave" unicode="`" 
d="M786 1064q0 -43 -43 -43q-15 0 -38 20l-236 204q-25 22 -25 41q0 43 43 43q15 0 38 -20l236 -204l22 -25q3 -5 3 -16z" />
    <glyph glyph-name="a" unicode="a" 
d="M1110 42q0 -42 -57 -42h-197v121q-183 -154 -391 -154q-132 0 -221 64q-100 73 -100 200q0 155 150 238q121 66 289 66q120 0 273 -31v136q0 89 -88 135q-70 36 -168 36q-97 0 -275 -57q-31 -10 -41 -10q-39 0 -39 42q0 17 10 27q14 15 113 41q158 42 236 42
q129 0 225 -62q112 -71 112 -194v-556h112q57 0 57 -42zM856 233v185q-115 33 -264 33q-182 0 -286 -79q-78 -59 -78 -141q0 -91 74 -139q63 -41 159 -41q205 0 395 182z" />
    <glyph glyph-name="b" unicode="b" 
d="M1111 435q0 -190 -127 -327q-130 -141 -319 -141q-220 0 -367 198v-165h-197q-56 0 -56 42t56 42h113v1086h-113q-56 0 -56 43q0 42 56 42h197v-557q152 198 367 198q190 0 318 -135t128 -326zM1027 431q0 154 -104 266q-107 114 -260 114t-258.5 -113t-105.5 -267
t105.5 -267t258.5 -113t260 114q104 112 104 266z" />
    <glyph glyph-name="c" unicode="c" 
d="M1099 183q0 -43 -101 -109q-163 -107 -363 -107q-202 0 -333 128t-131 330q0 204 133 337.5t337 133.5q193 0 324 -115v28q0 57 42 57q43 0 43 -57v-190q0 -57 -43 -57q-38 0 -42 50q-8 97 -125 153q-95 46 -204 46q-170 0 -275.5 -107t-105.5 -278q0 -167 108 -271
t276 -104q226 0 383 152q21 20 37 20q40 0 40 -40z" />
    <glyph glyph-name="d" unicode="d" 
d="M1195 42q0 -42 -57 -42h-197v167q-146 -200 -371 -200q-120 0 -223 63t-160 170q-61 112 -61 231q0 122 61 232.5t165 171.5t219 61q220 0 370 -200v474h-112q-57 0 -57 43q0 42 57 42h197v-1171h112q57 0 57 -42zM941 431q0 156 -105 268t-260 112t-260.5 -112
t-105.5 -268t105.5 -268t260.5 -112q154 0 261 113q104 112 104 267z" />
    <glyph glyph-name="e" unicode="e" 
d="M1071 137q0 -16 -16 -33q-61 -63 -198 -103q-119 -34 -224 -34q-210 0 -356 136q-149 139 -149 348q0 192 141 320q137 125 330 125q211 0 341.5 -136t128.5 -347h-856q22 -166 137 -264t283 -98q221 0 365 113q19 15 33 15q40 0 40 -42zM984 498q-25 142 -132.5 227.5
t-252.5 85.5q-146 0 -252.5 -85t-132.5 -228h770z" />
    <glyph glyph-name="f" unicode="f" 
d="M1114 1185q0 -41 -44 -41q-7 0 -27 3q-150 23 -255 23q-90 0 -154 -42q-75 -50 -75 -135v-127h393q56 0 56 -43q0 -42 -56 -42h-393v-697h369q56 0 56 -42t-56 -42h-657q-56 0 -56 42t56 42h203v697h-182q-56 0 -56 43q0 42 56 42h182v127q0 121 99 195q90 67 215 67
q118 0 254 -22q72 -12 72 -48z" />
    <glyph glyph-name="g" unicode="g" 
d="M1150 823q0 -42 -56 -42h-113v-839q0 -84 -36 -150q-56 -103 -182 -158q-46 -20 -123 -20h-238q-56 0 -56 42q0 43 56 43l241 -1q153 -1 232 149q22 41 22 107v252q-135 -185 -348 -185q-178 0 -302 131q-122 128 -122 307t123 308t301 129q213 0 348 -184v154h197
q56 0 56 -43zM897 459q0 146 -99.5 249t-244.5 103t-244 -103.5t-99 -248.5q0 -146 99 -249.5t244 -103.5t244.5 103.5t99.5 249.5z" />
    <glyph glyph-name="h" unicode="h" 
d="M1133 42q0 -42 -56 -42h-273q-57 0 -57 42t57 42h94v515q0 102 -75 160q-68 53 -173 53q-92 0 -157 -45q-48 -33 -155 -151v-532h95q56 0 56 -42t-56 -42h-274q-56 0 -56 42t56 42h95v1086h-113q-56 0 -56 43q0 42 56 42h197v-517q145 158 318 158q191 0 281 -140
q46 -72 46 -151v-521h94q56 0 56 -42z" />
    <glyph glyph-name="i" unicode="i" 
d="M656 1080h-124v217h124v-217zM1046 42q0 -42 -57 -42h-744q-56 0 -56 42t56 42h330v697h-245q-57 0 -57 42q0 43 57 43h329v-782h330q57 0 57 -42z" />
    <glyph glyph-name="j" unicode="j" 
d="M735 1080h-124v217h124v-217zM824 -59q0 -206 -176 -296q-61 -31 -145 -31h-267q-56 0 -56 42q0 43 56 43l265 -1q106 0 172.5 68.5t66.5 174.5v840h-499q-56 0 -56 43q0 42 56 42h583v-925z" />
    <glyph glyph-name="k" unicode="k" 
d="M1171 42q0 -42 -57 -42h-272q-56 0 -56 42t56 42h59l-361 371l-96 -81v-374h-197q-56 0 -56 42t56 42h113v1086h-113q-56 0 -56 43q0 42 56 42h197v-774l357 300h-43q-56 0 -56 42q0 43 56 43h269q57 0 57 -43q0 -42 -57 -42h-97l-328 -274l415 -423h97q57 0 57 -42z" />
    <glyph glyph-name="l" unicode="l" 
d="M1044 42q0 -42 -57 -42h-744q-56 0 -56 42t56 42h330v1086h-242q-57 0 -57 43q0 42 57 42h326v-1171h330q57 0 57 -42z" />
    <glyph glyph-name="m" unicode="m" 
d="M1215 42q0 -42 -56 -42h-155v663q0 58 -35 101q-37 47 -94 47q-104 0 -213 -170v-557h70q56 0 56 -42t-56 -42h-155v657q0 58 -34 104q-37 50 -94 50q-103 0 -217 -170v-557h71q56 0 56 -42t-56 -42h-226q-56 0 -56 42t56 42h71v697h-71q-56 0 -56 43q0 42 56 42h155v-85
q107 115 215 115q130 0 196 -139q111 139 229 139q90 0 145 -59q71 -77 71 -166v-587h71q56 0 56 -42z" />
    <glyph glyph-name="n" unicode="n" 
d="M1111 42q0 -42 -56 -42h-225q-57 0 -57 42t57 42h70v515q0 98 -72 157q-67 55 -167 55q-102 0 -181 -59q-46 -34 -137 -141v-527h95q56 0 56 -42t-56 -42h-274q-56 0 -56 42t56 42h95v697h-71q-56 0 -56 43q0 42 56 42h155v-127q155 157 319 157q185 0 277 -140
q45 -70 45 -143v-529h71q56 0 56 -42z" />
    <glyph glyph-name="o" unicode="o" 
d="M1084 431q0 -194 -137 -329t-332 -135t-332.5 134.5t-137.5 329.5t137.5 330t332.5 135t332 -135t137 -330zM999 431q0 160 -112.5 270t-272.5 110t-272.5 -110.5t-112.5 -269.5t113 -269.5t272 -110.5q160 0 272.5 110.5t112.5 269.5z" />
    <glyph glyph-name="p" unicode="p" 
d="M1111 459q0 -186 -130.5 -312t-317.5 -126q-225 0 -365 183v-506h204q56 0 56 -42t-56 -42h-401q-56 0 -56 42t56 42h113v1083h-113q-56 0 -56 43q0 42 56 42h197v-153q151 183 364 183q123 0 226 -56q107 -59 165 -163t58 -218zM1026 459q0 149 -106.5 250.5
t-256.5 101.5t-256 -101q-109 -102 -109 -251t107.5 -251t257.5 -102t256.5 102t106.5 251z" />
    <glyph glyph-name="q" unicode="q" 
d="M1194 -344q0 -42 -57 -42h-400q-56 0 -56 42t56 42h203v506q-139 -183 -365 -183q-186 0 -316.5 126.5t-130.5 311.5q0 187 132 313q129 124 317 124q224 0 363 -183v153h197q57 0 57 -43q0 -42 -57 -42h-112v-1083h112q57 0 57 -42zM940 459q0 149 -107 250.5
t-257 101.5t-257 -101.5t-107 -250.5t107 -251t257 -102t257 102t107 251z" />
    <glyph glyph-name="r" unicode="r" 
d="M1114 760q0 -44 -44 -44q-17 0 -43 26q-61 61 -112 61q-82 0 -216 -101q-50 -38 -185 -158v-460h372q57 0 57 -42t-57 -42h-659q-56 0 -56 41q0 40 56 40h203v700h-155q-56 0 -56 43q0 42 56 42h239v-212q121 109 181 150q120 83 215 83q53 0 126 -42q78 -44 78 -85z" />
    <glyph glyph-name="s" unicode="s" 
d="M1022 241q0 -140 -140 -214q-113 -60 -265 -60q-199 0 -326 101q0 -49 -18 -61q-11 -7 -24 -7q-42 0 -42 56v173q0 56 42 56q43 0 43 -46q0 -101 135 -156q76 -32 187 -32q113 0 203 39q121 52 121 151q0 155 -319 188q-126 13 -180 28q-104 28 -151 92q-38 52 -38 112
q0 119 127 184q101 51 232 51q174 0 283 -85q0 55 42 55q43 0 43 -57v-144q0 -56 -43 -56q-38 0 -42 47q-6 60 -62 99q-81 56 -217 56q-141 0 -219 -57q-59 -43 -59 -96q0 -60 70 -100q49 -28 182 -43q177 -20 243 -43q192 -69 192 -231z" />
    <glyph glyph-name="t" unicode="t" 
d="M1083 105q0 -47 -168 -99q-124 -39 -237 -39q-134 0 -221 59q-100 68 -100 196v559h-155q-56 0 -56 43q0 42 56 42h155v248q0 56 42 56q43 0 43 -56v-248h456q56 0 56 -43q0 -42 -56 -42h-456v-559q0 -88 75 -133q61 -38 155 -38q77 0 174 23q104 24 164 60q22 13 33 13
q40 0 40 -42z" />
    <glyph glyph-name="u" unicode="u" 
d="M1113 42q0 -42 -56 -42h-155v123q-172 -156 -372 -156q-123 0 -187 67q-83 88 -83 205v542h-113q-56 0 -56 43q0 42 56 42h197v-627q0 -81 51 -134.5t131 -53.5q205 0 376 188v542h-155q-56 0 -56 43q0 42 56 42h239v-782h71q56 0 56 -42z" />
    <glyph glyph-name="v" unicode="v" 
d="M1170 823q0 -42 -56 -42h-85l-341 -781h-142l-345 781h-86q-56 0 -56 43q0 42 56 42h315q56 0 56 -43q0 -42 -56 -42h-139l308 -697h37l302 697h-140q-56 0 -56 43q0 42 56 42h316q56 0 56 -43z" />
    <glyph glyph-name="w" unicode="w" 
d="M1172 823q0 -42 -57 -42h-40l-171 -781l-104 -1l-185 540l-184 -540l-104 1l-174 781h-41q-56 0 -56 43q0 42 56 42h231q56 0 56 -43q0 -42 -56 -42h-107l149 -666l179 532h100l184 -532l143 666h-106q-57 0 -57 43q0 42 57 42h230q57 0 57 -43z" />
    <glyph glyph-name="x" unicode="x" 
d="M1130 42q0 -42 -57 -42h-270q-57 0 -57 42t57 42h139l-327 313l-325 -313h140q56 0 56 -42t-56 -42h-273q-56 0 -56 42q0 29 25 39q9 3 47 3l385 369l-342 328q-50 0 -62 19q-8 11 -8 24q0 42 57 42h229q56 0 56 -43q0 -42 -56 -42h-100l283 -273l285 273h-100
q-57 0 -57 43q0 42 57 42h229q56 0 56 -43q0 -28 -24 -38q-10 -4 -46 -4l-343 -328l385 -369q53 0 66 -18q7 -11 7 -24z" />
    <glyph glyph-name="y" unicode="y" 
d="M1176 823q0 -29 -26 -38q-10 -4 -56 -4l-532 -1083h131q56 0 56 -42t-56 -42h-484q-56 0 -56 42t56 42h263l148 302l-390 781h-25q-56 0 -56 42q0 28 24 39q10 4 32 4h230q56 0 56 -43q0 -42 -56 -42h-113l343 -689l338 689h-113q-56 0 -56 43q0 42 56 42h229
q57 0 57 -43z" />
    <glyph glyph-name="z" unicode="z" 
d="M1006 200l-1 -200h-768v75l626 706h-522v-114q0 -56 -42 -56q-43 0 -43 56v199h726v-75l-629 -707h568v116q0 56 42 56q43 0 43 -56z" />
    <glyph glyph-name="braceleft" unicode="{" 
d="M817 -302q-23 -4 -70 -4q-142 0 -199 92q-44 72 -44 221q0 38 2 118.5t2 120.5q0 127 -24 191q-36 100 -138 117q101 17 138 117q24 64 24 190q0 40 -2 121.5t-2 119.5q0 148 44 220q57 93 199 93q24 0 70 -4q-174 -47 -176 -304q0 -47 5.5 -140t5.5 -134
q0 -125 -29 -187q-37 -80 -131 -92q95 -14 131 -92q29 -62 29 -186q0 -42 -5.5 -134.5t-5.5 -139.5q2 -257 176 -304z" />
    <glyph glyph-name="bar" unicode="|" 
d="M680 0h-130v1197h130v-1197z" />
    <glyph glyph-name="braceright" unicode="}" 
d="M882 554q-104 -17 -141 -116q-24 -65 -24 -192q0 -40 3.5 -120.5t3.5 -118.5q0 -149 -44 -221q-57 -92 -200 -92q-46 0 -71 4q174 46 176 304q0 47 -4.5 139.5t-4.5 134.5q0 119 24 176q35 88 136 102q-101 12 -137 101q-23 59 -23 178q0 40 5 135q4 91 4 139
q-2 258 -176 304q50 4 71 4q142 0 200 -93q44 -72 44 -220q0 -38 -3.5 -119.5t-3.5 -121.5q0 -126 24 -191q38 -99 141 -116z" />
    <glyph glyph-name="asciitilde" unicode="~" 
d="M1230 731q-153 -269 -353 -269q-69 0 -151 33q-59 26 -118 53q-137 79 -229 79q-78 0 -144 -59q-46 -40 -121 -148l-86 114q139 245 345 245q84 0 272 -85q59 -21 119 -43q69 -24 118 -24q131 0 236 176z" />
    <glyph glyph-name="uni007F" 
d="M1188 59h-293v469h62v-414h231v-55zM835 59h-350v469h339v-56h-277v-143h260v-55h-260v-160h288v-55zM429 296q0 -102 -45 -163q-36 -51 -98 -66q-33 -8 -76 -8h-169v469h162q54 0 83 -7q89 -21 125 -114q18 -49 18 -111zM365 297q0 134 -83 166q-25 9 -80 9h-99v-358
h100q82 0 115 33q47 47 47 150z" />
    <glyph glyph-name="uni00A0" unicode="&#xa0;" 
 />
    <glyph glyph-name="exclamdown" unicode="&#xa1;" 
d="M694 775q0 -49 -25.5 -84.5t-60.5 -35.5q-34 0 -57.5 35.5t-23.5 84.5q0 52 23 86.5t58 34.5t60.5 -34.5t25.5 -86.5zM682 -273q-39 -12 -72 -12q-43 5 -67 12v754q9 4 67 14q43 0 72 -14v-754z" />
    <glyph glyph-name="cent" unicode="&#xa2;" 
d="M964 406q0 -29 -51 -61q-117 -74 -258 -82v-207q0 -56 -42 -56t-42 56v207q-148 18 -245.5 126t-97.5 257q0 160 110 270q81 81 233 114v250q0 56 42 56t42 -56v-247q128 -4 218 -75q10 34 41 34q43 0 43 -51v-127q0 -57 -42 -57q-36 0 -42 48q-10 76 -89 115
q-64 32 -149 32q-139 0 -229 -82q-94 -86 -94 -223q0 -133 90 -218.5t224 -85.5q155 0 261 87q21 17 37 17q40 0 40 -41z" />
    <glyph glyph-name="sterling" unicode="&#xa3;" 
d="M1021 919q-45 -5 -65 -5q-21 0 -63 5q0 86 -51 159q-61 87 -162 87q-201 0 -204 -200q-1 -41 35 -234h259q5 -15 12 -44q0 -46 -12 -63h-248q37 -138 37 -262q0 -109 -32 -211h475q17 -54 17 -79q0 -52 -17 -72h-786q-19 19 -19 72q0 36 19 79h193q25 105 25 218
q0 117 -32 255h-184q-14 22 -14 63q7 20 14 44h160q-32 215 -32 241q0 143 90.5 228t243.5 85q144 0 238 -92q103 -100 103 -274z" />
    <glyph glyph-name="currency" unicode="&#xa4;" 
d="M1022 241q0 -42 -43 -42q-17 0 -39 22l-115 115q-96 -72 -211 -72t-210 72l-116 -115q-22 -22 -39 -22q-43 0 -43 43q0 17 22 39l116 115q-74 97 -74 212t72 211l-114 114q-22 22 -22 40q0 42 43 42q17 0 39 -22l114 -114q91 73 213 73q120 0 211 -73l114 114
q22 22 40 22q42 0 42 -43q0 -9 -4 -17t-18 -22l-114 -114q72 -95 72 -210q0 -119 -73 -213l115 -115q22 -22 22 -40zM874 608q0 109 -75.5 184.5t-184.5 75.5q-108 0 -183.5 -76t-75.5 -184t75.5 -183.5t183.5 -75.5t184 75.5t76 183.5z" />
    <glyph glyph-name="yen" unicode="&#xa5;" 
d="M1128 1128q0 -42 -57 -42h-48l-340 -515h245q41 0 41 -30t-41 -30h-271v-158h271q41 0 41 -30t-41 -30h-271v-209h179q56 0 56 -42t-56 -42h-443q-56 0 -56 42t56 42h179v209h-271q-40 0 -40 30t40 30h271v158h-271q-40 0 -40 30t40 30h242l-339 515h-50q-56 0 -56 42
t56 42h230q56 0 56 -42t-56 -42h-81l311 -472l311 472h-82q-56 0 -56 42t56 42h228q57 0 57 -42z" />
    <glyph glyph-name="brokenbar" unicode="&#xa6;" 
d="M657 1138l-1 -376q0 -88 -6 -98q-14 -19 -36 -19q-33 0 -40 30q-2 8 -2 87v376q0 79 2 87q7 30 40 30q31 0 40 -30q3 -11 3 -87zM657 233l-1 -376q0 -89 -6 -97q-14 -19 -36 -19q-33 0 -40 29q-2 8 -2 87v376q0 79 2 87q7 30 40 30t40 -30q3 -8 3 -87z" />
    <glyph glyph-name="section" unicode="&#xa7;" 
d="M956 543q0 -141 -179 -216q135 -79 135 -202q0 -130 -85 -210t-231 -80q-164 0 -252 78q-62 56 -70 124q15 10 51 30q26 11 67 26q15 -58 80 -94q58 -31 122 -31q67 0 117 32q57 37 57 100t-78 111q-25 16 -154 72l-106 40q-73 33 -113 81q-52 63 -52 162q0 67 54 127
q50 55 108 68q-123 82 -123 225q0 113 82 189q86 80 229 80q234 0 309 -199q-16 -10 -51 -31q-29 -12 -70 -25q-40 130 -190 130q-61 0 -104 -26q-56 -32 -56 -95q0 -82 61 -126q29 -21 117 -52q137 -48 202 -91q123 -81 123 -197zM810 517q0 64 -78 112q-33 20 -154 69
q-4 4 -16 10q-149 -14 -149 -119q0 -81 60 -126q32 -24 116 -52q21 -8 65 -26q63 6 106 38q50 36 50 94z" />
    <glyph glyph-name="dieresis" unicode="&#xa8;" 
d="M911 1147q0 -34 -24 -57.5t-58 -23.5t-57.5 23.5t-23.5 57.5t23.5 58t57.5 24t58 -24t24 -58zM482 1147q0 -34 -24 -57.5t-58 -23.5q-33 0 -57 24t-24 57q0 34 23.5 58t57.5 24t58 -24t24 -58z" />
    <glyph glyph-name="copyright" unicode="&#xa9;" 
d="M1226 584q0 -255 -178.5 -433t-433.5 -178t-433 178t-178 433t178 433.5t433 178.5q256 0 434 -178t178 -434zM1158 584q0 228 -158 386t-386 158q-227 0 -385.5 -158.5t-158.5 -385.5t158.5 -385t385.5 -158t385.5 158t158.5 385zM879 390q0 -51 -100 -100
q-88 -44 -146 -44q-173 0 -275 178q-30 52 -30 126v97q0 120 81.5 208t200.5 88t203 -81v34q0 32 25 32q23 0 23 -32v-132q0 -22 -11 -28q-6 -4 -13 -4q-22 0 -24 28q-4 49 -51 85q-66 50 -150 50q-100 0 -158 -63q-78 -85 -78 -192v-83q0 -105 75.5 -184.5t179.5 -79.5
q116 0 204 107q10 12 21 12q23 0 23 -22z" />
    <glyph glyph-name="ordfeminine" unicode="&#xaa;" 
d="M950 786q0 -39 -50 -39h-141v60q-115 -80 -240 -80q-89 0 -151 41q-72 47 -72 132q0 101 104 154q82 41 193 41q70 0 166 -16v66q0 89 -154 89q-59 0 -175 -34q-20 -6 -30 -6q-39 0 -39 39q0 30 79 50q111 28 168 28q86 0 153 -39q79 -46 79 -127v-321h60q50 0 50 -38z
M759 906l-1 95q-64 17 -157 17q-116 0 -179 -45q-45 -32 -45 -73q0 -96 139 -96q127 0 243 102z" />
    <glyph glyph-name="guillemotleft" unicode="&#xab;" 
d="M1102 43q0 -42 -42 -42q-19 0 -44 23l-448 410l448 410q26 24 44 24q42 0 42 -43q0 -16 -22 -41l-313 -350l313 -349q22 -25 22 -42zM633 43q0 -42 -42 -42q-19 0 -44 23l-448 410l448 410q26 24 44 24q42 0 42 -43q0 -15 -23 -41l-313 -350l313 -349q23 -26 23 -42z" />
    <glyph glyph-name="logicalnot" unicode="&#xac;" 
d="M1085 123q0 -56 -42 -56q-43 0 -43 56v420h-920q-37 0 -49 20q-7 10 -7 22q0 42 56 42h1005v-504z" />
    <glyph glyph-name="uni00AD" unicode="&#xad;" 
d="M1141 585q0 -27 -23 -37q-10 -5 -33 -5h-1005q-37 0 -49 20q-7 10 -7 22q0 42 56 42h1005q56 0 56 -42z" />
    <glyph glyph-name="registered" unicode="&#xae;" 
d="M1226 584q0 -255 -178.5 -433t-433.5 -178t-433 178t-178 433t178 433.5t433 178.5q256 0 434 -178t178 -434zM1158 584q0 228 -158 386t-386 158q-227 0 -385.5 -158.5t-158.5 -385.5t158.5 -385t385.5 -158t385.5 158t158.5 385zM959 277q0 -15 -13 -21q-6 -3 -19 -3
h-64q-68 123 -102 168q-66 89 -146 128h-151v-248h88q20 0 28 -11q4 -6 4 -13q0 -15 -13 -21q-6 -3 -19 -3h-200q-21 0 -28 11q-4 6 -4 13q0 15 14 22q5 2 18 2h64v567h-64q-20 0 -28 12q-4 6 -4 12q0 15 14 22q5 2 18 2h288q81 0 144 -51q67 -54 67 -133q0 -115 -164 -171
q86 -57 203 -260h37q20 0 28 -12q4 -6 4 -12zM803 735q0 57 -55 97q-50 36 -109 36h-175v-272h129q73 0 135 32q75 39 75 107z" />
    <glyph glyph-name="macron" unicode="&#xaf;" 
d="M1256 1382q0 -42 -56 -42h-1171q-56 0 -56 43q0 42 56 42h1171q56 0 56 -43z" />
    <glyph glyph-name="degree" unicode="&#xb0;" 
d="M882 1016q0 -109 -78 -185.5t-189 -76.5q-110 0 -187 76.5t-77 185.5t77.5 188t186.5 79q110 0 188.5 -79t78.5 -188zM815 1016q0 82 -56.5 139.5t-138.5 57.5t-140 -57.5t-58 -139.5q0 -83 58 -140t140 -57t138.5 57t56.5 140z" />
    <glyph glyph-name="plusminus" unicode="&#xb1;" 
d="M1174 466h-487v-373h-121v373h-485v126h481v503h125v-503h487v-126zM1174 -126h-1093v126h1093v-126z" />
    <glyph glyph-name="uni00B2" unicode="&#xb2;" 
d="M845 800q0 -25 -14 -53h-434q-6 139 134 288q65 61 129 122q66 67 66 121q0 53 -36 88q-33 31 -77 31q-100 0 -153 -130q-19 -2 -54 12t-42 29q27 82 89 137q70 61 157 61q90 0 155 -56q70 -61 70 -160t-73 -176q-80 -74 -161 -147q-47 -46 -65 -113h295q14 -28 14 -54z
" />
    <glyph glyph-name="uni00B3" unicode="&#xb3;" 
d="M861 1005q0 -124 -75 -198t-206 -74q-159 0 -239 111q4 18 31.5 43t45.5 20q70 -81 162 -81q79 0 125.5 47t46.5 122q0 54 -37 98t-86 44q-38 0 -53 -16l-31 -33l-8 -1q-18 0 -43.5 15.5t-33.5 34.5l171 246h-239q-9 32 -9 62q0 8 14 47h411l9 -33l-167 -229
q96 0 157 -74q54 -66 54 -151z" />
    <glyph glyph-name="acute" unicode="&#xb4;" 
d="M785 1286q0 -19 -25 -41l-237 -204q-23 -20 -38 -20q-42 0 -42 43q0 19 25 41l236 204q23 20 39 20q42 0 42 -43z" />
    <glyph glyph-name="mu" unicode="&#xb5;" 
d="M1112 42q0 -42 -56 -42h-155v123q-172 -156 -374 -156q-109 0 -184 67v-364q0 -56 -42 -56t-42 56v1111h-113q-56 0 -56 43q0 42 56 42h197v-627q0 -81 51 -134.5t131 -53.5q205 0 376 188v542h-155q-56 0 -56 43q0 42 56 42h239v-782h71q56 0 56 -42z" />
    <glyph glyph-name="paragraph" unicode="&#xb6;" 
d="M1066 -99q0 -31 -40 -31h-195q-41 0 -41 31q0 20 19 27q7 3 25 3v1263h-176v-1263q30 0 39 -14q5 -8 5 -16q0 -31 -40 -31h-280q-40 0 -40 30q0 31 40 31h215v633q-116 8 -213 45q-126 48 -189 151q-24 39 -24 97v97q0 121 95 192q146 109 348 109h409q41 0 41 -30
q0 -31 -41 -31h-128v-1263h131q40 0 40 -30zM597 627v567q-114 -10 -201 -69q-104 -70 -104 -176v-77q0 -56 27 -95q92 -133 278 -150z" />
    <glyph glyph-name="periodcentered" unicode="&#xb7;" 
d="M913 683q0 -42 -30 -72t-72 -30q-43 0 -73 29.5t-30 72.5t30 73t73 30t72.5 -30t29.5 -73z" />
    <glyph glyph-name="cedilla" unicode="&#xb8;" 
d="M764 -216q0 -57 -45 -89q-40 -28 -99 -28q-35 0 -89 15q-61 16 -79 37q-10 11 -10 23q0 30 30 30q10 0 23 -7q68 -38 125 -38q83 0 83 59q0 51 -76 51h-41v153q0 40 30 40t30 -40v-96q118 -17 118 -110z" />
    <glyph glyph-name="uni00B9" unicode="&#xb9;" 
d="M668 752q-34 -12 -58 -12q-19 0 -53 12v594l-86 -84q-25 0 -48.5 24.5t-23.5 45.5l160 162q32 16 51 16q36 0 58 -16v-742z" />
    <glyph glyph-name="ordmasculine" unicode="&#xba;" 
d="M930 1019q0 -126 -97 -211q-93 -81 -221 -81q-127 0 -221 81q-97 85 -97 211t97 211q93 81 221 81t221 -81q97 -85 97 -211zM849 1019q0 94 -73 156q-69 59 -164 59t-164 -59q-73 -63 -73 -156t73 -156q69 -59 164 -59t164 59q73 63 73 156z" />
    <glyph glyph-name="guillemotright" unicode="&#xbb;" 
d="M1130 434l-448 -410q-25 -23 -44 -23q-42 0 -42 42q0 17 22 42l313 349l-313 350q-22 25 -22 42q0 42 42 42q18 0 44 -24zM661 434l-449 -410q-25 -23 -43 -23q-42 0 -42 42q0 17 22 42l313 349l-313 350q-22 25 -22 42q0 42 42 42q17 0 43 -24z" />
    <glyph glyph-name="onequarter" unicode="&#xbc;" 
d="M1302 262q0 -35 -10 -53h-78v-209q-31 -9 -54 -9q-31 0 -60 9v209h-346q-7 38 -7 51q0 23 7 37q51 29 84 114q27 79 53 157q36 94 84 137q64 56 171 56q41 0 65 -21v-431h81q10 -24 10 -47zM1009 1223l-781 -1258q-24 0 -51 12q-17 15 -26 32l780 1258q28 0 41 -10
q26 -10 37 -34zM195 483q-45 -14 -58 -14q-14 0 -53 14v596l-88 -86q-24 0 -47 25t-25 45l164 164q34 14 49 14q16 0 58 -14v-744zM1100 309v341q-17 -1 -53 -19q-35 -31 -63 -112q-24 -69 -47 -139q-15 -37 -34 -71h197z" />
    <glyph glyph-name="onehalf" unicode="&#xbd;" 
d="M1304 51q0 -29 -14 -51h-431q-1 12 -1 24q0 121 133 264q64 61 129 121q66 67 66 122q0 54 -34 85t-80 31q-101 0 -153 -130q-18 -2 -52.5 14.5t-42.5 32.5q29 80 90 134q70 63 156 63q89 0 155 -57q72 -62 72 -161t-74 -177q-82 -74 -163 -148q-45 -46 -67 -111h297
q14 -22 14 -56zM991 1223l-784 -1258q-20 0 -51 12q-10 11 -26 32l782 1258q26 0 39 -10q26 -10 40 -34zM195 485q-45 -14 -58 -14q-14 0 -53 14v594l-88 -84q-24 0 -47 25t-25 45l164 165q33 11 49 11q9 0 58 -11v-745z" />
    <glyph glyph-name="threequarters" unicode="&#xbe;" 
d="M1346 262q0 -21 -7 -53h-84v-209q-25 -9 -48 -9q-38 0 -63 9v209h-346q-4 38 -4 51q0 23 4 37q65 39 81 114q28 78 56 157q36 95 84 137q64 56 171 56q39 0 63 -21v-431h86q7 -42 7 -47zM1093 1223l-782 -1258q-24 0 -51 12q-10 11 -25 32l779 1258q29 0 42 -10
q23 -9 37 -34zM413 742q0 -120 -74 -193t-204 -73q-153 0 -242 111q6 19 33 43.5t44 19.5q72 -79 165 -79q78 0 123.5 46t45.5 123q0 52 -36 95.5t-87 43.5q-41 0 -53 -14l-30 -34l-9 -1q-55 0 -77 49l174 246h-239q-9 22 -9 63q0 8 11 44h411l9 -30l-167 -232q97 0 158 -75
q53 -66 53 -153zM1144 309v341q-16 -2 -51 -19q-35 -30 -63 -114q-39 -118 -48 -137q-9 -23 -35 -71h197z" />
    <glyph glyph-name="questiondown" unicode="&#xbf;" 
d="M671 775q0 -47 -26 -82.5t-60 -35.5q-32 0 -56.5 36t-24.5 82q0 52 25 88q23 33 56 33q35 0 60.5 -34t25.5 -87zM859 5q0 -109 -69 -191q-80 -94 -217 -94q-121 0 -193 81q-67 75 -67 188q0 95 103.5 261t103.5 245v30q25 23 65 23q44 0 67 -23v-63q0 -98 -96 -244
t-96 -238q0 -53 32 -91q35 -42 91 -42q65 0 104 54q35 49 35 118q0 37 2 51q38 9 72 9q46 0 60 -9q3 -21 3 -65z" />
    <glyph glyph-name="Agrave" unicode="&#xc0;" 
d="M1215 42q0 -42 -56 -42h-313q-57 0 -57 42t57 42h160l-115 307h-552l-113 -307h161q56 0 56 -42t-56 -42h-314q-56 0 -56 42t56 42h65l371 1002h-248q-56 0 -56 42t56 42h423l410 -1086h65q56 0 56 -42zM859 475l-232 611h-31l-225 -611h488zM714 1331q0 -43 -43 -43
q-15 0 -38 20l-236 204q-25 22 -25 41q0 43 43 43q15 0 38 -20l236 -204l22 -25q3 -5 3 -16z" />
    <glyph glyph-name="Aacute" unicode="&#xc1;" 
d="M1215 42q0 -42 -56 -42h-313q-57 0 -57 42t57 42h160l-115 307h-552l-113 -307h161q56 0 56 -42t-56 -42h-314q-56 0 -56 42t56 42h65l371 1002h-248q-56 0 -56 42t56 42h423l410 -1086h65q56 0 56 -42zM859 475l-232 611h-31l-225 -611h488zM824 1553q0 -19 -25 -41
l-237 -204q-23 -20 -38 -20q-42 0 -42 43q0 19 25 41l236 204q23 20 39 20q42 0 42 -43z" />
    <glyph glyph-name="Acircumflex" unicode="&#xc2;" 
d="M1215 42q0 -42 -56 -42h-313q-57 0 -57 42t57 42h160l-115 307h-552l-113 -307h161q56 0 56 -42t-56 -42h-314q-56 0 -56 42t56 42h65l371 1002h-248q-56 0 -56 42t56 42h423l410 -1086h65q56 0 56 -42zM859 475l-232 611h-31l-225 -611h488zM554 1580l271 -206
q18 -14 23 -22.5t5 -19.5q0 -18 -12.5 -30t-30.5 -12q-13 0 -35 17l-221 169l-220 -169q-22 -17 -36 -17q-17 0 -29.5 12.5t-12.5 29.5q0 21 28 42z" />
    <glyph glyph-name="Atilde" unicode="&#xc3;" 
d="M1215 42q0 -42 -56 -42h-313q-57 0 -57 42t57 42h160l-115 307h-552l-113 -307h161q56 0 56 -42t-56 -42h-314q-56 0 -56 42t56 42h65l371 1002h-248q-56 0 -56 42t56 42h423l410 -1086h65q56 0 56 -42zM859 475l-232 611h-31l-225 -611h488zM801 1435q17 0 29.5 -12
t12.5 -27q0 -17 -13 -32q-40 -45 -95 -74q-38 -21 -79 -21q-64 0 -173 79q-58 43 -90 43q-40 0 -101 -56q-27 -25 -46 -25q-18 0 -29.5 12t-11.5 28q0 26 51 66q78 59 136 59q30 0 61 -12.5t101 -60.5t102 -48q38 0 115 68q16 13 30 13z" />
    <glyph glyph-name="Adieresis" unicode="&#xc4;" 
d="M1215 42q0 -42 -56 -42h-313q-57 0 -57 42t57 42h160l-115 307h-552l-113 -307h161q56 0 56 -42t-56 -42h-314q-56 0 -56 42t56 42h65l371 1002h-248q-56 0 -56 42t56 42h423l410 -1086h65q56 0 56 -42zM859 475l-232 611h-31l-225 -611h488zM822 1414q0 -34 -24 -57.5
t-58 -23.5t-57.5 23.5t-23.5 57.5t23.5 58t57.5 24t58 -24t24 -58zM393 1414q0 -34 -24 -57.5t-58 -23.5q-33 0 -57 24t-24 57q0 34 23.5 58t57.5 24t58 -24t24 -58z" />
    <glyph glyph-name="Aring" unicode="&#xc5;" 
d="M1215 42q0 -42 -56 -42h-313q-57 0 -57 42t57 42h160l-115 307h-552l-113 -307h161q56 0 56 -42t-56 -42h-314q-56 0 -56 42t56 42h65l371 1002h-248q-56 0 -56 42t56 42h423l410 -1086h65q56 0 56 -42zM859 475l-232 611h-31l-225 -611h488zM744 1425q0 -73 -53 -125.5
t-128 -52.5t-128 52.5t-53 125.5t53 125.5t128 52.5t128 -52.5t53 -125.5zM684 1425q0 49 -35.5 83.5t-85.5 34.5q-51 0 -86 -35t-35 -83t35.5 -83t85.5 -35t85.5 34.5t35.5 83.5z" />
    <glyph glyph-name="AE" unicode="&#xc6;" 
d="M614 394h-293l-85 -310h54q30 0 43 -11.5t13 -30.5q0 -18 -13 -30t-43 -12h-216q-30 0 -43 12t-13 30q0 19 13 30.5t43 11.5h77l276 1002h-131q-30 0 -43 11.5t-13 30.5t12.5 30.5t43.5 11.5h874v-316q0 -30 -12 -43t-30 -13q-19 0 -31 13t-12 43v232h-387v-436h163v58
q0 31 11.5 44t30.5 13t31 -13t11 -44v-198q0 -31 -11.5 -44t-30.5 -13t-30.5 13t-11.5 44v57h-163v-483h430v194q0 23 5 34q3 6 14.5 14t18.5 8l20 -3q16 -9 21 -18.5t5 -34.5v-278h-706q-30 0 -43 12t-13 30q0 19 13 30.5t43 11.5h108v310zM614 475v611h-104l-166 -611h270
z" />
    <glyph glyph-name="Ccedilla" unicode="&#xc7;" 
d="M1100 222q0 -22 -43 -70q-166 -185 -392 -185q-91 0 -185 35q-124 46 -234 185q-119 147 -119 317v171q0 132 69 259t180 194q115 69 250 69q208 0 358 -142v59q0 56 42 56t42 -56v-233q0 -57 -42 -57q-39 0 -42 51q-5 84 -91 149q-117 89 -264 89q-96 0 -183 -43
q-65 -32 -102 -76q-133 -157 -133 -331v-147q0 -186 133 -324q134 -141 319 -141q201 0 359 189q18 21 38 21q40 0 40 -39zM770 -216q0 -57 -45 -89q-40 -28 -99 -28q-35 0 -89 15q-61 16 -79 37q-10 11 -10 23q0 30 30 30q10 0 23 -7q68 -38 125 -38q83 0 83 59
q0 51 -76 51h-41v153q0 40 30 40t30 -40v-96q118 -17 118 -110z" />
    <glyph glyph-name="Egrave" unicode="&#xc8;" 
d="M1071 0h-927q-56 0 -56 42t56 42h113v1002h-113q-56 0 -56 42t56 42h883v-289q0 -56 -42 -56t-42 56v205h-602v-437h301v95q0 56 43 56q42 0 42 -56v-274q0 -56 -42 -56q-43 0 -43 56v95h-301v-481h646v248q0 56 42 56t42 -56v-332zM789 1331q0 -43 -43 -43q-15 0 -38 20
l-236 204q-25 22 -25 41q0 43 43 43q15 0 38 -20l236 -204l22 -25q3 -5 3 -16z" />
    <glyph glyph-name="Eacute" unicode="&#xc9;" 
d="M1071 0h-927q-56 0 -56 42t56 42h113v1002h-113q-56 0 -56 42t56 42h883v-289q0 -56 -42 -56t-42 56v205h-602v-437h301v95q0 56 43 56q42 0 42 -56v-274q0 -56 -42 -56q-43 0 -43 56v95h-301v-481h646v248q0 56 42 56t42 -56v-332zM788 1553q0 -19 -25 -41l-237 -204
q-23 -20 -38 -20q-42 0 -42 43q0 19 25 41l236 204q23 20 39 20q42 0 42 -43z" />
    <glyph glyph-name="Ecircumflex" unicode="&#xca;" 
d="M1071 0h-927q-56 0 -56 42t56 42h113v1002h-113q-56 0 -56 42t56 42h883v-289q0 -56 -42 -56t-42 56v205h-602v-437h301v95q0 56 43 56q42 0 42 -56v-274q0 -56 -42 -56q-43 0 -43 56v95h-301v-481h646v248q0 56 42 56t42 -56v-332zM615 1577l271 -206q18 -14 23 -22.5
t5 -19.5q0 -18 -12.5 -30t-30.5 -12q-13 0 -35 17l-221 169l-220 -169q-22 -17 -36 -17q-17 0 -29.5 12.5t-12.5 29.5q0 21 28 42z" />
    <glyph glyph-name="Edieresis" unicode="&#xcb;" 
d="M1071 0h-927q-56 0 -56 42t56 42h113v1002h-113q-56 0 -56 42t56 42h883v-289q0 -56 -42 -56t-42 56v205h-602v-437h301v95q0 56 43 56q42 0 42 -56v-274q0 -56 -42 -56q-43 0 -43 56v95h-301v-481h646v248q0 56 42 56t42 -56v-332zM912 1414q0 -34 -24 -57.5t-58 -23.5
t-57.5 23.5t-23.5 57.5t23.5 58t57.5 24t58 -24t24 -58zM483 1414q0 -34 -24 -57.5t-58 -23.5q-33 0 -57 24t-24 57q0 34 23.5 58t57.5 24t58 -24t24 -58z" />
    <glyph glyph-name="Igrave" unicode="&#xcc;" 
d="M1001 42q0 -42 -56 -42h-660q-56 0 -56 42t56 42h288v1002h-288q-56 0 -56 42t56 42h660q56 0 56 -42t-56 -42h-288v-1002h288q56 0 56 -42zM789 1331q0 -43 -43 -43q-15 0 -38 20l-236 204q-25 22 -25 41q0 43 43 43q15 0 38 -20l236 -204l22 -25q3 -5 3 -16z" />
    <glyph glyph-name="Iacute" unicode="&#xcd;" 
d="M1001 42q0 -42 -56 -42h-660q-56 0 -56 42t56 42h288v1002h-288q-56 0 -56 42t56 42h660q56 0 56 -42t-56 -42h-288v-1002h288q56 0 56 -42zM782 1553q0 -19 -25 -41l-237 -204q-23 -20 -38 -20q-42 0 -42 43q0 19 25 41l236 204q23 20 39 20q42 0 42 -43z" />
    <glyph glyph-name="Icircumflex" unicode="&#xce;" 
d="M1001 42q0 -42 -56 -42h-660q-56 0 -56 42t56 42h288v1002h-288q-56 0 -56 42t56 42h660q56 0 56 -42t-56 -42h-288v-1002h288q56 0 56 -42zM614 1577l271 -206q18 -14 23 -22.5t5 -19.5q0 -18 -12.5 -30t-30.5 -12q-13 0 -35 17l-221 169l-220 -169q-22 -17 -36 -17
q-17 0 -29.5 12.5t-12.5 29.5q0 21 28 42z" />
    <glyph glyph-name="Idieresis" unicode="&#xcf;" 
d="M1001 42q0 -42 -56 -42h-660q-56 0 -56 42t56 42h288v1002h-288q-56 0 -56 42t56 42h660q56 0 56 -42t-56 -42h-288v-1002h288q56 0 56 -42zM911 1414q0 -34 -24 -57.5t-58 -23.5t-57.5 23.5t-23.5 57.5t23.5 58t57.5 24t58 -24t24 -58zM482 1414q0 -34 -24 -57.5
t-58 -23.5q-33 0 -57 24t-24 57q0 34 23.5 58t57.5 24t58 -24t24 -58z" />
    <glyph glyph-name="Eth" unicode="&#xd0;" 
d="M213 564h-99q-79 0 -87 2q-13 4 -21.5 15t-8.5 26q0 14 8.5 25t21.5 15q8 2 87 2h99v437h-70q-31 0 -44 11.5t-13 30.5t13 30.5t44 11.5h451q106 0 193.5 -44t133.5 -100q79 -95 120 -201q30 -77 30 -182v-116q0 -129 -57.5 -250t-190.5 -211q-99 -66 -229 -66h-451
q-31 0 -44 12t-13 30q0 19 13 30.5t44 11.5h70v480zM298 564v-480h305q105 0 198 69t139 165.5t46 190.5v152q0 78 -24 139q-37 89 -102 169q-36 44 -106.5 80.5t-150.5 36.5h-305v-437h234q79 0 87 -2q12 -4 21 -15t9 -25q0 -15 -9 -26t-21 -15q-8 -2 -87 -2h-234z" />
    <glyph glyph-name="Ntilde" unicode="&#xd1;" 
d="M1153 1128q0 -42 -56 -42h-71v-1086h-108l-619 1047v-963h155q57 0 57 -42t-57 -42h-309q-57 0 -57 42t57 42h70v1002h-113q-56 0 -56 42t56 42h220l620 -1049v965h-155q-56 0 -56 42t56 42h310q56 0 56 -42zM891 1435q17 0 29.5 -12t12.5 -27q0 -17 -13 -32
q-40 -45 -95 -74q-38 -21 -79 -21q-64 0 -173 79q-58 43 -90 43q-40 0 -101 -56q-27 -25 -46 -25q-18 0 -29.5 12t-11.5 28q0 26 51 66q78 59 136 59q30 0 61 -12.5t101 -60.5t102 -48q38 0 115 68q16 13 30 13z" />
    <glyph glyph-name="Ograve" unicode="&#xd2;" 
d="M1128 582q0 -161 -62 -300q-68 -151 -193 -235q-120 -80 -257 -80q-231 0 -378 197q-134 179 -134 418t133 418q147 197 379 197q145 0 265 -86q113 -81 179 -217q68 -143 68 -312zM1043 582q0 202 -110 358q-123 173 -317 173t-317 -174q-111 -156 -111 -357
q0 -200 111 -357q124 -174 317 -174q194 0 317 173q110 156 110 358zM786 1331q0 -43 -43 -43q-15 0 -38 20l-236 204q-25 22 -25 41q0 43 43 43q15 0 38 -20l236 -204l22 -25q3 -5 3 -16z" />
    <glyph glyph-name="Oacute" unicode="&#xd3;" 
d="M1128 582q0 -161 -62 -300q-68 -151 -193 -235q-120 -80 -257 -80q-231 0 -378 197q-134 179 -134 418t133 418q147 197 379 197q145 0 265 -86q113 -81 179 -217q68 -143 68 -312zM1043 582q0 202 -110 358q-123 173 -317 173t-317 -174q-111 -156 -111 -357
q0 -200 111 -357q124 -174 317 -174q194 0 317 173q110 156 110 358zM785 1553q0 -19 -25 -41l-237 -204q-23 -20 -38 -20q-42 0 -42 43q0 19 25 41l236 204q23 20 39 20q42 0 42 -43z" />
    <glyph glyph-name="Ocircumflex" unicode="&#xd4;" 
d="M1128 582q0 -161 -62 -300q-68 -151 -193 -235q-120 -80 -257 -80q-231 0 -378 197q-134 179 -134 418t133 418q147 197 379 197q145 0 265 -86q113 -81 179 -217q68 -143 68 -312zM1043 582q0 202 -110 358q-123 173 -317 173t-317 -174q-111 -156 -111 -357
q0 -200 111 -357q124 -174 317 -174q194 0 317 173q110 156 110 358zM614 1577l271 -206q18 -14 23 -22.5t5 -19.5q0 -18 -12.5 -30t-30.5 -12q-13 0 -35 17l-221 169l-220 -169q-22 -17 -36 -17q-17 0 -29.5 12.5t-12.5 29.5q0 21 28 42z" />
    <glyph glyph-name="Otilde" unicode="&#xd5;" 
d="M1128 582q0 -161 -62 -300q-68 -151 -193 -235q-120 -80 -257 -80q-231 0 -378 197q-134 179 -134 418t133 418q147 197 379 197q145 0 265 -86q113 -81 179 -217q68 -143 68 -312zM1043 582q0 202 -110 358q-123 173 -317 173t-317 -174q-111 -156 -111 -357
q0 -200 111 -357q124 -174 317 -174q194 0 317 173q110 156 110 358zM892 1435q17 0 29.5 -12t12.5 -27q0 -17 -13 -32q-40 -45 -95 -74q-38 -21 -79 -21q-64 0 -173 79q-58 43 -90 43q-40 0 -101 -56q-27 -25 -46 -25q-18 0 -29.5 12t-11.5 28q0 26 51 66q78 59 136 59
q30 0 61 -12.5t101 -60.5t102 -48q38 0 115 68q16 13 30 13z" />
    <glyph glyph-name="Odieresis" unicode="&#xd6;" 
d="M1128 582q0 -161 -62 -300q-68 -151 -193 -235q-120 -80 -257 -80q-231 0 -378 197q-134 179 -134 418t133 418q147 197 379 197q145 0 265 -86q113 -81 179 -217q68 -143 68 -312zM1043 582q0 202 -110 358q-123 173 -317 173t-317 -174q-111 -156 -111 -357
q0 -200 111 -357q124 -174 317 -174q194 0 317 173q110 156 110 358zM911 1414q0 -34 -24 -57.5t-58 -23.5t-57.5 23.5t-23.5 57.5t23.5 58t57.5 24t58 -24t24 -58zM482 1414q0 -34 -24 -57.5t-58 -23.5q-33 0 -57 24t-24 57q0 34 23.5 58t57.5 24t58 -24t24 -58z" />
    <glyph glyph-name="multiply" unicode="&#xd7;" 
d="M1156 88l-86 -88l-446 448l-436 -448l-86 97l436 439l-422 427l88 86l423 -427l417 422l86 -86l-420 -424z" />
    <glyph glyph-name="Oslash" unicode="&#xd8;" 
d="M291 104l-127 -161q-14 -18 -22.5 -22.5t-18.5 -4.5q-18 0 -30.5 12.5t-12.5 30.5q0 14 18 36l137 174q-131 181 -131 412q0 272 154.5 444t357.5 172q183 0 322 -134l127 162q14 17 22.5 22t19.5 5q18 0 30 -12.5t12 -30.5q0 -14 -17 -36l-137 -174q133 -177 133 -417
q0 -270 -155 -442.5t-357 -172.5q-184 0 -325 137zM884 995q-121 118 -268 118q-177 0 -302.5 -156t-125.5 -375q0 -191 102 -343zM344 172q121 -121 272 -121q175 0 301 155t126 376q0 196 -103 347z" />
    <glyph glyph-name="Ugrave" unicode="&#xd9;" 
d="M1148 1128q0 -42 -56 -42h-71v-702q0 -174 -114 -294q-116 -123 -289 -123q-226 0 -347 198q-61 99 -61 219v702h-71q-56 0 -56 42t56 42h310q56 0 56 -42t-56 -42h-155v-702q0 -136 92 -233q93 -100 228 -100q170 0 272 155q51 79 51 178v702h-155q-56 0 -56 42t56 42
h310q56 0 56 -42zM758 1331q0 -43 -43 -43q-15 0 -38 20l-236 204q-25 22 -25 41q0 43 43 43q15 0 38 -20l236 -204l22 -25q3 -5 3 -16z" />
    <glyph glyph-name="Uacute" unicode="&#xda;" 
d="M1148 1128q0 -42 -56 -42h-71v-702q0 -174 -114 -294q-116 -123 -289 -123q-226 0 -347 198q-61 99 -61 219v702h-71q-56 0 -56 42t56 42h310q56 0 56 -42t-56 -42h-155v-702q0 -136 92 -233q93 -100 228 -100q170 0 272 155q51 79 51 178v702h-155q-56 0 -56 42t56 42
h310q56 0 56 -42zM807 1553q0 -19 -25 -41l-237 -204q-23 -20 -38 -20q-42 0 -42 43q0 19 25 41l236 204q23 20 39 20q42 0 42 -43z" />
    <glyph glyph-name="Ucircumflex" unicode="&#xdb;" 
d="M1148 1128q0 -42 -56 -42h-71v-702q0 -174 -114 -294q-116 -123 -289 -123q-226 0 -347 198q-61 99 -61 219v702h-71q-56 0 -56 42t56 42h310q56 0 56 -42t-56 -42h-155v-702q0 -136 92 -233q93 -100 228 -100q170 0 272 155q51 79 51 178v702h-155q-56 0 -56 42t56 42
h310q56 0 56 -42zM615 1577l271 -206q18 -14 23 -22.5t5 -19.5q0 -18 -12.5 -30t-30.5 -12q-13 0 -35 17l-221 169l-220 -169q-22 -17 -36 -17q-17 0 -29.5 12.5t-12.5 29.5q0 21 28 42z" />
    <glyph glyph-name="Udieresis" unicode="&#xdc;" 
d="M1148 1128q0 -42 -56 -42h-71v-702q0 -174 -114 -294q-116 -123 -289 -123q-226 0 -347 198q-61 99 -61 219v702h-71q-56 0 -56 42t56 42h310q56 0 56 -42t-56 -42h-155v-702q0 -136 92 -233q93 -100 228 -100q170 0 272 155q51 79 51 178v702h-155q-56 0 -56 42t56 42
h310q56 0 56 -42zM912 1414q0 -34 -24 -57.5t-58 -23.5t-57.5 23.5t-23.5 57.5t23.5 58t57.5 24t58 -24t24 -58zM483 1414q0 -34 -24 -57.5t-58 -23.5q-33 0 -57 24t-24 57q0 34 23.5 58t57.5 24t58 -24t24 -58z" />
    <glyph glyph-name="Yacute" unicode="&#xdd;" 
d="M1128 1128q0 -42 -56 -42h-50l-363 -558v-444h218q56 0 56 -42t-56 -42h-521q-56 0 -56 42t56 42h218v444l-369 558h-50q-56 0 -56 42t56 42h231q56 0 56 -42t-56 -42h-83l314 -473l307 473h-82q-57 0 -57 42t57 42h230q56 0 56 -42zM785 1544q0 -19 -25 -41l-237 -204
q-23 -20 -38 -20q-42 0 -42 43q0 19 25 41l236 204q23 20 39 20q42 0 42 -43z" />
    <glyph glyph-name="Thorn" unicode="&#xde;" 
d="M259 1170h461q30 0 43 -11.5t13 -30.5t-13 -30.5t-43 -11.5h-288v-157h291q173 0 282.5 -102.5t109.5 -239.5q0 -80 -35.5 -145t-85.5 -102q-75 -56 -155 -82q-58 -20 -144 -20h-263v-154h288q30 0 43 -11.5t13 -30.5q0 -18 -13 -30t-43 -12h-485q-30 0 -43 12t-13 30
q0 19 13 30.5t43 11.5h113v1002h-113q-30 0 -43 11.5t-13 30.5q0 13 7.5 24t17.5 14.5t55 3.5zM432 323h268q93 0 174.5 41t119 101t37.5 122q0 99 -85 178t-215 79h-299v-521z" />
    <glyph glyph-name="germandbls" unicode="&#xdf;" 
d="M258 84v906q0 106 84.5 185.5t210.5 79.5q127 0 215 -88.5t88 -214.5q0 -125 -120 -207q93 -39 146 -84q72 -61 110.5 -143t38.5 -185q0 -170 -83 -268t-191 -98q-92 0 -155 68.5t-63 174.5q0 22 12 34.5t30 12.5t29.5 -12t12.5 -37q5 -78 42 -117q36 -40 93 -40
q87 0 137.5 88.5t50.5 192.5q0 83 -32.5 152t-76.5 106.5t-133 78.5q-56 25 -132 25q-31 0 -43 9q-16 13 -16 34q0 17 12.5 29.5t33.5 12.5q61 0 111.5 26t76 64.5t25.5 85.5q0 87 -64 151t-155 64q-94 0 -152.5 -55.5t-58.5 -124.5v-906h32q30 0 43 -11.5t13 -30.5
q0 -18 -13 -30t-43 -12h-229q-30 0 -43 12t-13 30q0 19 13 30.5t43 11.5h113z" />
    <glyph glyph-name="agrave" unicode="&#xe0;" 
d="M1110 42q0 -42 -57 -42h-197v121q-183 -154 -391 -154q-132 0 -221 64q-100 73 -100 200q0 155 150 238q121 66 289 66q120 0 273 -31v136q0 89 -88 135q-70 36 -168 36q-97 0 -275 -57q-31 -10 -41 -10q-39 0 -39 42q0 17 10 27q14 15 113 41q158 42 236 42
q129 0 225 -62q112 -71 112 -194v-556h112q57 0 57 -42zM856 233v185q-115 33 -264 33q-182 0 -286 -79q-78 -59 -78 -141q0 -91 74 -139q63 -41 159 -41q205 0 395 182zM786 1064q0 -43 -43 -43q-15 0 -38 20l-236 204q-25 22 -25 41q0 43 43 43q15 0 38 -20l236 -204
l22 -25q3 -5 3 -16z" />
    <glyph glyph-name="aacute" unicode="&#xe1;" 
d="M1110 42q0 -42 -57 -42h-197v121q-183 -154 -391 -154q-132 0 -221 64q-100 73 -100 200q0 155 150 238q121 66 289 66q120 0 273 -31v136q0 89 -88 135q-70 36 -168 36q-97 0 -275 -57q-31 -10 -41 -10q-39 0 -39 42q0 17 10 27q14 15 113 41q158 42 236 42
q129 0 225 -62q112 -71 112 -194v-556h112q57 0 57 -42zM856 233v185q-115 33 -264 33q-182 0 -286 -79q-78 -59 -78 -141q0 -91 74 -139q63 -41 159 -41q205 0 395 182zM785 1286q0 -19 -25 -41l-237 -204q-23 -20 -38 -20q-42 0 -42 43q0 19 25 41l236 204q23 20 39 20
q42 0 42 -43z" />
    <glyph glyph-name="acircumflex" unicode="&#xe2;" 
d="M1110 42q0 -42 -57 -42h-197v121q-183 -154 -391 -154q-132 0 -221 64q-100 73 -100 200q0 155 150 238q121 66 289 66q120 0 273 -31v136q0 89 -88 135q-70 36 -168 36q-97 0 -275 -57q-31 -10 -41 -10q-39 0 -39 42q0 17 10 27q14 15 113 41q158 42 236 42
q129 0 225 -62q112 -71 112 -194v-556h112q57 0 57 -42zM856 233v185q-115 33 -264 33q-182 0 -286 -79q-78 -59 -78 -141q0 -91 74 -139q63 -41 159 -41q205 0 395 182zM614 1310l271 -206q18 -14 23 -22.5t5 -19.5q0 -18 -12.5 -30t-30.5 -12q-13 0 -35 17l-221 169
l-220 -169q-22 -17 -36 -17q-17 0 -29.5 12.5t-12.5 29.5q0 21 28 42z" />
    <glyph glyph-name="atilde" unicode="&#xe3;" 
d="M1110 42q0 -42 -57 -42h-197v121q-183 -154 -391 -154q-132 0 -221 64q-100 73 -100 200q0 155 150 238q121 66 289 66q120 0 273 -31v136q0 89 -88 135q-70 36 -168 36q-97 0 -275 -57q-31 -10 -41 -10q-39 0 -39 42q0 17 10 27q14 15 113 41q158 42 236 42
q129 0 225 -62q112 -71 112 -194v-556h112q57 0 57 -42zM856 233v185q-115 33 -264 33q-182 0 -286 -79q-78 -59 -78 -141q0 -91 74 -139q63 -41 159 -41q205 0 395 182zM892 1167q17 0 29.5 -12t12.5 -27q0 -17 -13 -32q-40 -45 -95 -74q-38 -21 -79 -21q-64 0 -173 79
q-58 43 -90 43q-40 0 -101 -56q-27 -25 -46 -25q-18 0 -29.5 12t-11.5 28q0 26 51 66q78 59 136 59q30 0 61 -12.5t101 -60.5t102 -48q38 0 115 68q16 13 30 13z" />
    <glyph glyph-name="adieresis" unicode="&#xe4;" 
d="M1110 42q0 -42 -57 -42h-197v121q-183 -154 -391 -154q-132 0 -221 64q-100 73 -100 200q0 155 150 238q121 66 289 66q120 0 273 -31v136q0 89 -88 135q-70 36 -168 36q-97 0 -275 -57q-31 -10 -41 -10q-39 0 -39 42q0 17 10 27q14 15 113 41q158 42 236 42
q129 0 225 -62q112 -71 112 -194v-556h112q57 0 57 -42zM856 233v185q-115 33 -264 33q-182 0 -286 -79q-78 -59 -78 -141q0 -91 74 -139q63 -41 159 -41q205 0 395 182zM865 1147q0 -34 -24 -57.5t-58 -23.5t-57.5 23.5t-23.5 57.5t23.5 58t57.5 24t58 -24t24 -58z
M436 1147q0 -34 -24 -57.5t-58 -23.5q-33 0 -57 24t-24 57q0 34 23.5 58t57.5 24t58 -24t24 -58z" />
    <glyph glyph-name="aring" unicode="&#xe5;" 
d="M1110 42q0 -42 -57 -42h-197v121q-183 -154 -391 -154q-132 0 -221 64q-100 73 -100 200q0 155 150 238q121 66 289 66q120 0 273 -31v136q0 89 -88 135q-70 36 -168 36q-97 0 -275 -57q-31 -10 -41 -10q-39 0 -39 42q0 17 10 27q14 15 113 41q158 42 236 42
q129 0 225 -62q112 -71 112 -194v-556h112q57 0 57 -42zM856 233v185q-115 33 -264 33q-182 0 -286 -79q-78 -59 -78 -141q0 -91 74 -139q63 -41 159 -41q205 0 395 182zM795 1186q0 -73 -53 -125.5t-128 -52.5t-128 52.5t-53 125.5t53 125.5t128 52.5t128 -52.5t53 -125.5z
M735 1186q0 49 -35.5 83.5t-85.5 34.5q-51 0 -86 -35t-35 -83t35.5 -83t85.5 -35t85.5 34.5t35.5 83.5z" />
    <glyph glyph-name="ae" unicode="&#xe6;" 
d="M1192 412h-534q15 -181 100 -286q61 -75 129 -75q89 0 231 116q18 15 33 15q18 0 29.5 -12t11.5 -30q0 -16 -13 -31q-48 -51 -152 -103q-79 -39 -139 -39q-61 0 -122 39.5t-108 119.5v-70q0 -30 -11.5 -43t-30.5 -13t-30.5 13t-11.5 43v45q-71 -76 -127 -105t-119 -29
q-80 0 -154 43t-116 125t-42 165q0 55 29.5 95.5t115.5 80.5q125 58 234 58q45 0 90 -6.5t89 -19.5v125q0 70 -53 124t-114 54q-33 0 -86 -14.5t-103 -40.5q-26 -13 -37 -13q-16 0 -28.5 12.5t-12.5 28.5t14 31t105 48t153 33q69 0 134 -47.5t96 -130.5q55 91 105 128
q65 50 136 50q109 0 208.5 -126.5t100.5 -357.5zM1107 496q-20 156 -102 249q-58 66 -125 66q-63 0 -121 -67q-80 -92 -101 -248h449zM574 420q-45 15 -88 22.5t-84 7.5q-141 0 -249 -72q-53 -34 -53 -85q0 -59 30.5 -119.5t84 -91.5t111.5 -31q53 0 100 30q64 40 148 148
v191z" />
    <glyph glyph-name="ccedilla" unicode="&#xe7;" 
d="M1099 183q0 -43 -101 -109q-163 -107 -363 -107q-202 0 -333 128t-131 330q0 204 133 337.5t337 133.5q193 0 324 -115v28q0 57 42 57q43 0 43 -57v-190q0 -57 -43 -57q-38 0 -42 50q-8 97 -125 153q-95 46 -204 46q-170 0 -275.5 -107t-105.5 -278q0 -167 108 -271
t276 -104q226 0 383 152q21 20 37 20q40 0 40 -40zM764 -216q0 -57 -45 -89q-40 -28 -99 -28q-35 0 -89 15q-61 16 -79 37q-10 11 -10 23q0 30 30 30q10 0 23 -7q68 -38 125 -38q83 0 83 59q0 51 -76 51h-41v153q0 40 30 40t30 -40v-96q118 -17 118 -110z" />
    <glyph glyph-name="egrave" unicode="&#xe8;" 
d="M1071 137q0 -16 -16 -33q-61 -63 -198 -103q-119 -34 -224 -34q-210 0 -356 136q-149 139 -149 348q0 192 141 320q137 125 330 125q211 0 341.5 -136t128.5 -347h-856q22 -166 137 -264t283 -98q221 0 365 113q19 15 33 15q40 0 40 -42zM984 498q-25 142 -132.5 227.5
t-252.5 85.5q-146 0 -252.5 -85t-132.5 -228h770zM786 1064q0 -43 -43 -43q-15 0 -38 20l-236 204q-25 22 -25 41q0 43 43 43q15 0 38 -20l236 -204l22 -25q3 -5 3 -16z" />
    <glyph glyph-name="eacute" unicode="&#xe9;" 
d="M1071 137q0 -16 -16 -33q-61 -63 -198 -103q-119 -34 -224 -34q-210 0 -356 136q-149 139 -149 348q0 192 141 320q137 125 330 125q211 0 341.5 -136t128.5 -347h-856q22 -166 137 -264t283 -98q221 0 365 113q19 15 33 15q40 0 40 -42zM984 498q-25 142 -132.5 227.5
t-252.5 85.5q-146 0 -252.5 -85t-132.5 -228h770zM786 1286q0 -19 -25 -41l-237 -204q-23 -20 -38 -20q-42 0 -42 43q0 19 25 41l236 204q23 20 39 20q42 0 42 -43z" />
    <glyph glyph-name="ecircumflex" unicode="&#xea;" 
d="M1071 137q0 -16 -16 -33q-61 -63 -198 -103q-119 -34 -224 -34q-210 0 -356 136q-149 139 -149 348q0 192 141 320q137 125 330 125q211 0 341.5 -136t128.5 -347h-856q22 -166 137 -264t283 -98q221 0 365 113q19 15 33 15q40 0 40 -42zM984 498q-25 142 -132.5 227.5
t-252.5 85.5q-146 0 -252.5 -85t-132.5 -228h770zM614 1310l271 -206q18 -14 23 -22.5t5 -19.5q0 -18 -12.5 -30t-30.5 -12q-13 0 -35 17l-221 169l-220 -169q-22 -17 -36 -17q-17 0 -29.5 12.5t-12.5 29.5q0 21 28 42z" />
    <glyph glyph-name="edieresis" unicode="&#xeb;" 
d="M1071 137q0 -16 -16 -33q-61 -63 -198 -103q-119 -34 -224 -34q-210 0 -356 136q-149 139 -149 348q0 192 141 320q137 125 330 125q211 0 341.5 -136t128.5 -347h-856q22 -166 137 -264t283 -98q221 0 365 113q19 15 33 15q40 0 40 -42zM984 498q-25 142 -132.5 227.5
t-252.5 85.5q-146 0 -252.5 -85t-132.5 -228h770zM915 1147q0 -34 -24 -57.5t-58 -23.5t-57.5 23.5t-23.5 57.5t23.5 58t57.5 24t58 -24t24 -58zM486 1147q0 -34 -24 -57.5t-58 -23.5q-33 0 -57 24t-24 57q0 34 23.5 58t57.5 24t58 -24t24 -58z" />
    <glyph glyph-name="igrave" unicode="&#xec;" 
d="M660 866v-782h330q31 0 44 -11.5t13 -30.5q0 -18 -13 -30t-44 -12h-744q-30 0 -43 12t-17 32q4 17 17 28.5t43 11.5h330v697h-245q-30 0 -43.5 12t-13.5 30q0 19 13 31t44 12h329zM710 1055q0 -43 -43 -43q-15 0 -38 20l-236 204q-25 22 -25 41q0 43 43 43q15 0 38 -20
l236 -204l22 -25q3 -5 3 -16z" />
    <glyph glyph-name="iacute" unicode="&#xed;" 
d="M660 866v-782h330q31 0 44 -11.5t13 -30.5q0 -18 -13 -30t-44 -12h-744q-30 0 -43 12t-17 32q4 17 17 28.5t43 11.5h330v697h-245q-30 0 -43.5 12t-13.5 30q0 19 13 31t44 12h329zM700 1285q0 -19 -25 -41l-237 -204q-23 -20 -38 -20q-42 0 -42 43q0 19 25 41l236 204
q23 20 39 20q42 0 42 -43z" />
    <glyph glyph-name="icircumflex" unicode="&#xee;" 
d="M660 866v-782h330q31 0 44 -11.5t13 -30.5q0 -18 -13 -30t-44 -12h-744q-30 0 -43 12t-17 32q4 17 17 28.5t43 11.5h330v697h-245q-30 0 -43.5 12t-13.5 30q0 19 13 31t44 12h329zM530 1310l271 -206q18 -14 23 -22.5t5 -19.5q0 -18 -12.5 -30t-30.5 -12q-13 0 -35 17
l-221 169l-220 -169q-22 -17 -36 -17q-17 0 -29.5 12.5t-12.5 29.5q0 21 28 42z" />
    <glyph glyph-name="idieresis" unicode="&#xef;" 
d="M660 866v-782h330q31 0 44 -11.5t13 -30.5q0 -18 -13 -30t-44 -12h-744q-30 0 -43 12t-17 32q4 17 17 28.5t43 11.5h330v697h-245q-30 0 -43.5 12t-13.5 30q0 19 13 31t44 12h329zM827 1147q0 -34 -24 -57.5t-58 -23.5t-57.5 23.5t-23.5 57.5t23.5 58t57.5 24t58 -24
t24 -58zM398 1147q0 -34 -24 -57.5t-58 -23.5q-33 0 -57 24t-24 57q0 34 23.5 58t57.5 24t58 -24t24 -58z" />
    <glyph glyph-name="eth" unicode="&#xf0;" 
d="M725 1173l159 58q28 9 47 9q16 0 26.5 -11t10.5 -29q0 -19 -16 -30q-27 -20 -155 -47q137 -126 205 -272t68 -355q0 -258 -131.5 -392.5t-342.5 -134.5q-200 0 -333.5 135t-133.5 326q0 183 132 313t327 130q95 0 177 -34t135 -80q36 -33 75 -95q-38 150 -87.5 229
t-181.5 196q-321 -112 -341 -112q-19 0 -31 11t-12 27q0 15 15 28.5t104 40.5q140 42 180 51q-67 20 -138 29q-39 5 -53 17.5t-14 28.5t14 28t41 12q130 0 254 -77zM600 48q94 0 187 47t142 133t49 190q0 157 -108.5 263.5t-272.5 106.5q-167 0 -276.5 -107.5t-109.5 -256.5
q0 -94 52.5 -185t147.5 -141t189 -50z" />
    <glyph glyph-name="ntilde" unicode="&#xf1;" 
d="M1111 42q0 -42 -56 -42h-225q-57 0 -57 42t57 42h70v515q0 98 -72 157q-67 55 -167 55q-102 0 -181 -59q-46 -34 -137 -141v-527h95q56 0 56 -42t-56 -42h-274q-56 0 -56 42t56 42h95v697h-71q-56 0 -56 43q0 42 56 42h155v-127q155 157 319 157q185 0 277 -140
q45 -70 45 -143v-529h71q56 0 56 -42zM892 1167q17 0 29.5 -12t12.5 -27q0 -17 -13 -32q-40 -45 -95 -74q-38 -21 -79 -21q-64 0 -173 79q-58 43 -90 43q-40 0 -101 -56q-27 -25 -46 -25q-18 0 -29.5 12t-11.5 28q0 26 51 66q78 59 136 59q30 0 61 -12.5t101 -60.5t102 -48
q38 0 115 68q16 13 30 13z" />
    <glyph glyph-name="ograve" unicode="&#xf2;" 
d="M1084 431q0 -194 -137 -329t-332 -135t-332.5 134.5t-137.5 329.5t137.5 330t332.5 135t332 -135t137 -330zM999 431q0 160 -112.5 270t-272.5 110t-272.5 -110.5t-112.5 -269.5t113 -269.5t272 -110.5q160 0 272.5 110.5t112.5 269.5zM786 1064q0 -43 -43 -43
q-15 0 -38 20l-236 204q-25 22 -25 41q0 43 43 43q15 0 38 -20l236 -204l22 -25q3 -5 3 -16z" />
    <glyph glyph-name="oacute" unicode="&#xf3;" 
d="M1084 431q0 -194 -137 -329t-332 -135t-332.5 134.5t-137.5 329.5t137.5 330t332.5 135t332 -135t137 -330zM999 431q0 160 -112.5 270t-272.5 110t-272.5 -110.5t-112.5 -269.5t113 -269.5t272 -110.5q160 0 272.5 110.5t112.5 269.5zM785 1286q0 -19 -25 -41l-237 -204
q-23 -20 -38 -20q-42 0 -42 43q0 19 25 41l236 204q23 20 39 20q42 0 42 -43z" />
    <glyph glyph-name="ocircumflex" unicode="&#xf4;" 
d="M1084 431q0 -194 -137 -329t-332 -135t-332.5 134.5t-137.5 329.5t137.5 330t332.5 135t332 -135t137 -330zM999 431q0 160 -112.5 270t-272.5 110t-272.5 -110.5t-112.5 -269.5t113 -269.5t272 -110.5q160 0 272.5 110.5t112.5 269.5zM614 1310l271 -206
q18 -14 23 -22.5t5 -19.5q0 -18 -12.5 -30t-30.5 -12q-13 0 -35 17l-221 169l-220 -169q-22 -17 -36 -17q-17 0 -29.5 12.5t-12.5 29.5q0 21 28 42z" />
    <glyph glyph-name="otilde" unicode="&#xf5;" 
d="M1084 431q0 -194 -137 -329t-332 -135t-332.5 134.5t-137.5 329.5t137.5 330t332.5 135t332 -135t137 -330zM999 431q0 160 -112.5 270t-272.5 110t-272.5 -110.5t-112.5 -269.5t113 -269.5t272 -110.5q160 0 272.5 110.5t112.5 269.5zM892 1167q17 0 29.5 -12t12.5 -27
q0 -17 -13 -32q-40 -45 -95 -74q-38 -21 -79 -21q-64 0 -173 79q-58 43 -90 43q-40 0 -101 -56q-27 -25 -46 -25q-18 0 -29.5 12t-11.5 28q0 26 51 66q78 59 136 59q30 0 61 -12.5t101 -60.5t102 -48q38 0 115 68q16 13 30 13z" />
    <glyph glyph-name="odieresis" unicode="&#xf6;" 
d="M1084 431q0 -194 -137 -329t-332 -135t-332.5 134.5t-137.5 329.5t137.5 330t332.5 135t332 -135t137 -330zM999 431q0 160 -112.5 270t-272.5 110t-272.5 -110.5t-112.5 -269.5t113 -269.5t272 -110.5q160 0 272.5 110.5t112.5 269.5zM911 1147q0 -34 -24 -57.5
t-58 -23.5t-57.5 23.5t-23.5 57.5t23.5 58t57.5 24t58 -24t24 -58zM482 1147q0 -34 -24 -57.5t-58 -23.5q-33 0 -57 24t-24 57q0 34 23.5 58t57.5 24t58 -24t24 -58z" />
    <glyph glyph-name="divide" unicode="&#xf7;" 
d="M750 893q0 -50 -36 -85t-87 -35t-87 35t-36 85t36 86.5t87 36.5q50 0 86.5 -36.5t36.5 -86.5zM1174 466h-1093v126h1093v-126zM750 165q0 -51 -36 -86t-87 -35t-87 35t-36 86q0 50 36 86.5t87 36.5q50 0 86.5 -36.5t36.5 -86.5z" />
    <glyph glyph-name="oslash" unicode="&#xf8;" 
d="M320 66l-126 -129q-22 -23 -40 -23t-30 12.5t-12 31.5q0 16 22 38l123 126q-123 133 -123 310q0 189 140.5 326.5t342.5 137.5q167 0 298 -99l125 128q22 22 40 22q17 0 29.5 -12t12.5 -31q0 -16 -22 -39l-122 -125q122 -132 122 -309q0 -190 -140.5 -327t-342.5 -137
q-162 0 -297 99zM855 736q-106 75 -238 75q-167 0 -282.5 -112.5t-115.5 -267.5q0 -137 97 -248zM379 127q106 -76 239 -76q167 0 282 112.5t115 267.5q0 141 -96 249z" />
    <glyph glyph-name="ugrave" unicode="&#xf9;" 
d="M1113 42q0 -42 -56 -42h-155v123q-172 -156 -372 -156q-123 0 -187 67q-83 88 -83 205v542h-113q-56 0 -56 43q0 42 56 42h197v-627q0 -81 51 -134.5t131 -53.5q205 0 376 188v542h-155q-56 0 -56 43q0 42 56 42h239v-782h71q56 0 56 -42zM786 1064q0 -43 -43 -43
q-15 0 -38 20l-236 204q-25 22 -25 41q0 43 43 43q15 0 38 -20l236 -204l22 -25q3 -5 3 -16z" />
    <glyph glyph-name="uacute" unicode="&#xfa;" 
d="M1113 42q0 -42 -56 -42h-155v123q-172 -156 -372 -156q-123 0 -187 67q-83 88 -83 205v542h-113q-56 0 -56 43q0 42 56 42h197v-627q0 -81 51 -134.5t131 -53.5q205 0 376 188v542h-155q-56 0 -56 43q0 42 56 42h239v-782h71q56 0 56 -42zM786 1286q0 -19 -25 -41
l-237 -204q-23 -20 -38 -20q-42 0 -42 43q0 19 25 41l236 204q23 20 39 20q42 0 42 -43z" />
    <glyph glyph-name="ucircumflex" unicode="&#xfb;" 
d="M1113 42q0 -42 -56 -42h-155v123q-172 -156 -372 -156q-123 0 -187 67q-83 88 -83 205v542h-113q-56 0 -56 43q0 42 56 42h197v-627q0 -81 51 -134.5t131 -53.5q205 0 376 188v542h-155q-56 0 -56 43q0 42 56 42h239v-782h71q56 0 56 -42zM615 1310l271 -206
q18 -14 23 -22.5t5 -19.5q0 -18 -12.5 -30t-30.5 -12q-13 0 -35 17l-221 169l-220 -169q-22 -17 -36 -17q-17 0 -29.5 12.5t-12.5 29.5q0 21 28 42z" />
    <glyph glyph-name="udieresis" unicode="&#xfc;" 
d="M1113 42q0 -42 -56 -42h-155v123q-172 -156 -372 -156q-123 0 -187 67q-83 88 -83 205v542h-113q-56 0 -56 43q0 42 56 42h197v-627q0 -81 51 -134.5t131 -53.5q205 0 376 188v542h-155q-56 0 -56 43q0 42 56 42h239v-782h71q56 0 56 -42zM876 1147q0 -34 -24 -57.5
t-58 -23.5t-57.5 23.5t-23.5 57.5t23.5 58t57.5 24t58 -24t24 -58zM447 1147q0 -34 -24 -57.5t-58 -23.5q-33 0 -57 24t-24 57q0 34 23.5 58t57.5 24t58 -24t24 -58z" />
    <glyph glyph-name="yacute" unicode="&#xfd;" 
d="M1176 823q0 -29 -26 -38q-10 -4 -56 -4l-532 -1083h131q56 0 56 -42t-56 -42h-484q-56 0 -56 42t56 42h263l148 302l-390 781h-25q-56 0 -56 42q0 28 24 39q10 4 32 4h230q56 0 56 -43q0 -42 -56 -42h-113l343 -689l338 689h-113q-56 0 -56 43q0 42 56 42h229
q57 0 57 -43zM925 1286q0 -19 -25 -41l-237 -204q-23 -20 -38 -20q-42 0 -42 43q0 19 25 41l236 204q23 20 39 20q42 0 42 -43z" />
    <glyph glyph-name="thorn" unicode="&#xfe;" 
d="M298 1255v-542q75 91 161 137t203 46q124 0 229 -58t162.5 -161.5t57.5 -217.5q0 -181 -129.5 -309.5t-318.5 -128.5q-225 0 -365 183v-506h204q30 0 43 -11.5t13 -30.5q0 -18 -13 -30t-43 -12h-401q-30 0 -43 11.5t-13 30.5t13 30.5t43 11.5h113v1472h-113q-30 0 -43 12
t-13 31q0 18 13 30t43 12h197zM1026 459q0 145 -105.5 248.5t-257.5 103.5q-153 0 -259 -104t-106 -248q0 -145 106 -249t259 -104q151 0 257 103.5t106 249.5z" />
    <glyph glyph-name="ydieresis" unicode="&#xff;" 
d="M1176 823q0 -29 -26 -38q-10 -4 -56 -4l-532 -1083h131q56 0 56 -42t-56 -42h-484q-56 0 -56 42t56 42h263l148 302l-390 781h-25q-56 0 -56 42q0 28 24 39q10 4 32 4h230q56 0 56 -43q0 -42 -56 -42h-113l343 -689l338 689h-113q-56 0 -56 43q0 42 56 42h229
q57 0 57 -43zM971 1147q0 -34 -24 -57.5t-58 -23.5t-57.5 23.5t-23.5 57.5t23.5 58t57.5 24t58 -24t24 -58zM542 1147q0 -34 -24 -57.5t-58 -23.5q-33 0 -57 24t-24 57q0 34 23.5 58t57.5 24t58 -24t24 -58z" />
    <glyph glyph-name="dotlessi" unicode="&#x131;" 
d="M660 866v-782h330q31 0 44 -11.5t13 -30.5q0 -18 -13 -30t-44 -12h-744q-30 0 -43 12t-17 32q4 17 17 28.5t43 11.5h330v697h-245q-30 0 -43.5 12t-13.5 30q0 19 13 31t44 12h329z" />
    <glyph glyph-name="OE" unicode="&#x152;" 
d="M698 566v-482h430v193q0 30 11.5 43t30.5 13t30.5 -13t11.5 -43v-277h-669q-230 0 -378 157.5t-148 424.5q0 108 28 211.5t72 165.5t126 122q62 45 125.5 67t158.5 22h644v-320q0 -30 -12 -43t-31 -13q-18 0 -30 13t-12 43v236h-388v-436h163v57q0 31 12 44t30 13
q19 0 31 -13t12 -44l-1 -199q0 -30 -11.5 -43t-30.5 -13q-18 0 -30 13t-12 43v58h-163zM613 1086h-67q-122 0 -192 -35t-129.5 -98t-91.5 -158.5t-32 -213.5q0 -233 122.5 -365t322.5 -132h67v1002z" />
    <glyph glyph-name="Scaron" unicode="&#x160;" 
d="M1044 314q0 -165 -134 -261q-120 -86 -291 -86q-219 0 -350 137v-48q0 -56 -42 -56t-42 56v232q0 57 42 57q39 0 42 -51q6 -117 125 -185q100 -58 225 -58q134 0 230 64q111 74 111 202q0 138 -139 199q-49 22 -200 47q-180 30 -266 83q-127 77 -127 229q0 149 121 240
q109 82 263 82q176 0 303 -111v28q0 56 42 56t42 -56v-214q0 -56 -42 -56q-39 0 -42 51q-6 102 -105 164q-87 54 -195 54q-119 0 -205 -59q-98 -67 -98 -181q0 -101 84 -157q68 -46 236 -74q172 -28 236 -57q176 -79 176 -271zM615 1266l-271 206q-18 14 -23 22.5t-5 19.5
q0 18 12.5 30.5t30.5 12.5q13 0 35 -17l221 -170l220 169q22 17 36 17q17 0 29.5 -12.5t12.5 -29.5q0 -21 -28 -42z" />
    <glyph glyph-name="scaron" unicode="&#x161;" 
d="M1022 241q0 -140 -140 -214q-113 -60 -265 -60q-199 0 -326 101q0 -49 -18 -61q-11 -7 -24 -7q-42 0 -42 56v173q0 56 42 56q43 0 43 -46q0 -101 135 -156q76 -32 187 -32q113 0 203 39q121 52 121 151q0 155 -319 188q-126 13 -180 28q-104 28 -151 92q-38 52 -38 112
q0 119 127 184q101 51 232 51q174 0 283 -85q0 55 42 55q43 0 43 -57v-144q0 -56 -43 -56q-38 0 -42 47q-6 60 -62 99q-81 56 -217 56q-141 0 -219 -57q-59 -43 -59 -96q0 -60 70 -100q49 -28 182 -43q177 -20 243 -43q192 -69 192 -231zM615 1008l-271 206q-18 14 -23 22.5
t-5 19.5q0 18 12.5 30.5t30.5 12.5q13 0 35 -17l221 -170l220 169q22 17 36 17q17 0 29.5 -12.5t12.5 -29.5q0 -21 -28 -42z" />
    <glyph glyph-name="uni0163" unicode="&#x163;" 
d="M1193 413h-536q8 -115 50 -204t89.5 -123.5t94.5 -34.5q76 0 187 84q46 35 55.5 40t19.5 5q16 0 28.5 -12.5t12.5 -29.5q0 -19 -30 -44q-47 -40 -113 -76q-92 -51 -162 -51q-76 0 -152 61t-122 186q-50 -129 -125 -188t-151 -59q-115 0 -204 112q-117 145 -117 360
q0 208 113 347q91 111 204 111q77 0 155.5 -60t124.5 -178q103 238 268 238q110 0 208.5 -124t101.5 -360zM574 432q0 178 -79 279.5t-157 101.5q-79 0 -157.5 -101.5t-78.5 -279.5t79 -279.5t157 -101.5q79 0 157.5 101.5t78.5 279.5zM1107 498q-25 162 -102 249
q-59 66 -123 66t-122 -65q-77 -87 -102 -250h449z" />
    <glyph glyph-name="Ydieresis" unicode="&#x178;" 
d="M1128 1128q0 -42 -56 -42h-50l-363 -558v-444h218q56 0 56 -42t-56 -42h-521q-56 0 -56 42t56 42h218v444l-369 558h-50q-56 0 -56 42t56 42h231q56 0 56 -42t-56 -42h-83l314 -473l307 473h-82q-57 0 -57 42t57 42h230q56 0 56 -42zM912 1414q0 -34 -24 -57.5t-58 -23.5
t-57.5 23.5t-23.5 57.5t23.5 58t57.5 24t58 -24t24 -58zM483 1414q0 -34 -24 -57.5t-58 -23.5q-33 0 -57 24t-24 57q0 34 23.5 58t57.5 24t58 -24t24 -58z" />
    <glyph glyph-name="Zcaron" unicode="&#x17d;" 
d="M1022 0h-809v122l682 964h-559v-247q0 -57 -43 -57q-42 0 -42 57v331h725v-119l-682 -967h644v293q0 57 42 57t42 -57v-377zM618 1266l-271 206q-18 14 -23 22.5t-5 19.5q0 18 12.5 30.5t30.5 12.5q13 0 35 -17l221 -170l220 169q22 17 36 17q17 0 29.5 -12.5t12.5 -29.5
q0 -21 -28 -42z" />
    <glyph glyph-name="zcaron" unicode="&#x17e;" 
d="M1006 200l-1 -200h-768v75l626 706h-522v-114q0 -56 -42 -56q-43 0 -43 56v199h726v-75l-629 -707h568v116q0 56 42 56q43 0 43 -56zM615 1008l-271 206q-18 14 -23 22.5t-5 19.5q0 18 12.5 30.5t30.5 12.5q13 0 35 -17l221 -170l220 169q22 17 36 17q17 0 29.5 -12.5
t12.5 -29.5q0 -21 -28 -42z" />
    <glyph glyph-name="florin" unicode="&#x192;" 
d="M1062 1219q0 -41 -41 -41q-8 0 -39 10q-47 15 -90 15q-105 0 -160 -59q-74 -80 -74 -184v-180h200q56 0 56 -43q0 -42 -56 -42h-200v-574q0 -129 -87.5 -221.5t-215.5 -92.5q-69 0 -134 25q-44 17 -44 47q0 41 38 41q11 0 31 -7q64 -22 114 -22q89 0 143 60q70 78 70 183
v561h-200q-56 0 -56 43q0 42 56 42h200v180q0 135 88.5 231t222.5 96q74 0 138 -24q40 -15 40 -44z" />
    <glyph glyph-name="circumflex" unicode="&#x2c6;" 
d="M614 1310l271 -206q18 -14 23 -22.5t5 -19.5q0 -18 -12.5 -30t-30.5 -12q-13 0 -35 17l-221 169l-220 -169q-22 -17 -36 -17q-17 0 -29.5 12.5t-12.5 29.5q0 21 28 42z" />
    <glyph glyph-name="caron" unicode="&#x2c7;" 
d="M615 1008l-271 206q-18 14 -23 22.5t-5 19.5q0 18 12.5 30.5t30.5 12.5q13 0 35 -17l221 -170l220 169q22 17 36 17q17 0 29.5 -12.5t12.5 -29.5q0 -21 -28 -42z" />
    <glyph glyph-name="ring" unicode="&#x2da;" 
d="M795 1186q0 -73 -53 -125.5t-128 -52.5t-128 52.5t-53 125.5t53 125.5t128 52.5t128 -52.5t53 -125.5zM735 1186q0 49 -35.5 83.5t-85.5 34.5q-51 0 -86 -35t-35 -83t35.5 -83t85.5 -35t85.5 34.5t35.5 83.5z" />
    <glyph glyph-name="tilde" unicode="&#x2dc;" 
d="M892 1167q17 0 29.5 -12t12.5 -27q0 -17 -13 -32q-40 -45 -95 -74q-38 -21 -79 -21q-64 0 -173 79q-58 43 -90 43q-40 0 -101 -56q-27 -25 -46 -25q-18 0 -29.5 12t-11.5 28q0 26 51 66q78 59 136 59q30 0 61 -12.5t101 -60.5t102 -48q38 0 115 68q16 13 30 13z" />
    <glyph glyph-name="uni0591" unicode="&#x591;" 
d="M803 -420h-92v48q0 160 -95 160q-101 0 -101 -160v-48h-90v99q0 152 143 189v93h92v-93q143 -37 143 -189v-99z" />
    <glyph glyph-name="uni0592" unicode="&#x592;" horiz-adv-x="929" 
d="M777 1286q0 -36 -24 -59.5t-59 -23.5t-59 24t-24 59t24 59t59 24q48 0 72 -41q11 -18 11 -42zM547 1398q0 -35 -24 -59t-59 -24t-59 24t-24 59q0 34 24.5 58.5t58.5 24.5q48 0 72 -41q11 -18 11 -42zM317 1286q0 -36 -24 -59.5t-59 -23.5t-59 24t-24 59q0 34 24.5 58.5
t58.5 24.5q35 0 59 -24t24 -59z" />
    <glyph glyph-name="uni0593" unicode="&#x593;" 
d="M751 1289l-186 -86h-88l186 86l-186 86l186 86l-186 86l186 86h88l-186 -86l186 -86l-186 -86z" />
    <glyph glyph-name="uni0594" unicode="&#x594;" 
d="M697 1536q0 -45 -38 -70q-20 -13 -45 -13q-34 0 -58.5 24.5t-24.5 58.5q0 35 24 59t59 24q83 0 83 -83zM697 1286q0 -45 -38 -70q-20 -13 -45 -13q-34 0 -58.5 24.5t-24.5 58.5q0 35 24 59t59 24q83 0 83 -83z" />
    <glyph glyph-name="uni0595" unicode="&#x595;" 
d="M802 1512q0 -36 -23.5 -59.5t-59.5 -23.5q-34 0 -58 24.5t-25 58.5q-1 45 42 72q18 11 41 11q35 0 59 -24t24 -59zM802 1286q0 -35 -24 -59t-59 -24q-34 0 -58 24.5t-25 58.5q-1 33 24.5 58t58.5 25q35 0 59 -24t24 -59zM530 1233h-103v332h103v-332z" />
    <glyph glyph-name="uni0596" unicode="&#x596;" 
d="M784 -420q-340 0 -340 349q0 16 4 40h88q-4 -18 -4 -69q0 -111 72 -172q67 -58 180 -58v-90z" />
    <glyph glyph-name="uni0597" unicode="&#x597;" 
d="M755 1381l-141 -178l-141 178l141 178z" />
    <glyph glyph-name="uni0598" unicode="&#x598;" 
d="M911 1353q0 -64 -44 -107t-108 -43q-71 0 -125 62q-35 54 -70 107q-52 70 -97 70q-87 0 -87 -89q0 -59 62 -82l-23 -63q-102 47 -102 145q0 64 43 108t107 44q71 0 124 -62q39 -57 89 -125q32 -52 79 -52q40 0 64.5 25t24.5 62q0 57 -64 82l22 63q105 -49 105 -145z" />
    <glyph glyph-name="uni0599" unicode="&#x599;" 
d="M785 1243q0 -16 -4 -40h-88q4 18 4 69q0 111 -72 172q-67 58 -180 58v90q340 0 340 -349z" />
    <glyph glyph-name="uni059A" unicode="&#x59a;" 
d="M766 -420h-123l-179 180l179 180h123l-179 -180z" />
    <glyph glyph-name="uni059B" unicode="&#x59b;" 
d="M787 -71q0 -349 -340 -349v90q113 0 180 58q72 61 72 172q0 51 -4 69h88q4 -24 4 -40zM609 -144q0 -36 -24 -59.5t-59 -23.5t-59 24.5t-24 58.5t25 59t58 24q35 -1 59 -24.5t24 -58.5z" />
    <glyph glyph-name="uni059C" unicode="&#x59c;" 
d="M785 1502q-113 0 -180 -58q-72 -61 -72 -172q0 -51 4 -69h-88q-4 24 -4 40q0 349 340 349v-90z" />
    <glyph glyph-name="uni059D" unicode="&#x59d;" 
d="M785 1502q-113 0 -180 -58q-72 -61 -72 -172q0 -51 4 -69h-88q-4 24 -4 40q0 349 340 349v-90z" />
    <glyph glyph-name="uni059E" unicode="&#x59e;" 
d="M955 1502q-113 0 -180 -58q-72 -61 -72 -172q0 -51 4 -69h-88q-4 24 -4 40q0 349 340 349v-90zM615 1502q-113 0 -180 -58q-72 -61 -72 -172q0 -51 4 -69h-88q-4 24 -4 40q0 349 340 349v-90z" />
    <glyph glyph-name="uni059F" unicode="&#x59f;" 
d="M1228 1518q0 -91 -61.5 -154t-152.5 -63q-79 0 -127 43l-141 -141l-47 47l141 141q-43 49 -43 127q0 90 63 153t154 63q90 0 152 -63.5t62 -152.5zM529 1250l-47 -47l-141 141q-48 -43 -127 -43q-91 0 -152.5 63t-61.5 154q0 88 62.5 152t151.5 64q92 0 154.5 -62.5
t62.5 -153.5q0 -78 -43 -127zM1152 1518q0 56 -41 98t-97 42q-62 0 -101.5 -39t-39.5 -101q0 -61 40 -101t101 -40q60 0 99 40.5t39 100.5zM355 1518q0 62 -39.5 101t-101.5 39q-56 0 -97 -42t-41 -98q0 -60 39 -100.5t99 -40.5q61 0 101 40t40 101z" />
    <glyph glyph-name="uni05A0" unicode="&#x5a0;" 
d="M879 1518q0 -91 -61.5 -154t-152.5 -63q-79 0 -127 43l-141 -141l-47 47l141 141q-43 49 -43 127q0 90 63 153t154 63q90 0 152 -63.5t62 -152.5zM803 1518q0 56 -41 98t-97 42q-62 0 -101.5 -39t-39.5 -101q0 -61 40 -101t101 -40q60 0 99 40.5t39 100.5z" />
    <glyph glyph-name="uni05A1" unicode="&#x5a1;" 
d="M765 1518q0 -73 -38 -127q-43 -61 -113 -61q-41 0 -64 10v-137h-86v412h86v-199q10 -12 43 -12q86 0 86 127v84h86v-97z" />
    <glyph glyph-name="uni05A2" unicode="&#x5a2;" 
d="M804 -138q0 -152 -143 -189v-93h-92v93q-143 37 -143 189v99h90v-48q0 -160 101 -160q96 0 96 160v48h91v-99z" />
    <glyph glyph-name="uni05A3" unicode="&#x5a3;" 
d="M747 -420h-264v86h178v254h86v-340z" />
    <glyph glyph-name="uni05A4" unicode="&#x5a4;" 
d="M766 -420h-123l-179 180l179 180h123l-179 -180z" />
    <glyph glyph-name="uni05A5" unicode="&#x5a5;" 
d="M785 -71q0 -349 -340 -349v90q113 0 180 58q72 61 72 172q0 51 -4 69h88q4 -24 4 -40z" />
    <glyph glyph-name="uni05A6" unicode="&#x5a6;" 
d="M955 -71q0 -349 -340 -349v90q113 0 180 58q72 61 72 172q0 51 -4 69h88q4 -24 4 -40zM615 -71q0 -349 -340 -349v90q113 0 180 58q72 61 72 172q0 51 -4 69h88q4 -24 4 -40z" />
    <glyph glyph-name="uni05A7" unicode="&#x5a7;" 
d="M744 -332l-65 -55l-193 -33v78l142 23l-142 187l65 55l193 33v-75l-144 -26z" />
    <glyph glyph-name="uni05A8" unicode="&#x5a8;" 
d="M785 1243q0 -16 -4 -40h-88q4 18 4 69q0 111 -72 172q-67 58 -180 58v90q340 0 340 -349z" />
    <glyph glyph-name="uni05A9" unicode="&#x5a9;" 
d="M879 1250l-47 -47l-141 141q-48 -43 -127 -43q-91 0 -152.5 63t-61.5 154q0 88 62.5 152t151.5 64q92 0 154.5 -62.5t62.5 -153.5q0 -78 -43 -127zM705 1518q0 62 -39.5 101t-101.5 39q-56 0 -97 -42t-41 -98q0 -60 39 -100.5t99 -40.5q61 0 101 40t40 101z" />
    <glyph glyph-name="uni05AA" unicode="&#x5aa;" 
d="M804 -138q0 -152 -143 -189v-93h-92v93q-143 37 -143 189v99h90v-48q0 -160 101 -160q96 0 96 160v48h91v-99z" />
    <glyph glyph-name="uni05AB" unicode="&#x5ab;" 
d="M766 1203h-123l-179 180l179 180h123l-179 -180z" />
    <glyph glyph-name="uni05AC" unicode="&#x5ac;" 
d="M747 1203h-264v86h178v254h86v-340z" />
    <glyph glyph-name="uni05AD" unicode="&#x5ad;" 
d="M785 -420q-340 0 -340 349q0 16 4 40h88q-4 -18 -4 -69q0 -111 72 -172q67 -58 180 -58v-90z" />
    <glyph glyph-name="uni05AE" unicode="&#x5ae;" 
d="M912 1353q0 -64 -44 -107t-108 -43q-71 0 -125 62q-35 54 -70 107q-52 70 -97 70q-87 0 -87 -89q0 -59 62 -82l-23 -63q-102 47 -102 145q0 64 43 108t107 44q71 0 124 -62q39 -57 89 -125q32 -52 79 -52q40 0 64.5 25t24.5 62q0 57 -64 82l22 63q105 -49 105 -145z" />
    <glyph glyph-name="uni05AF" unicode="&#x5af;" 
d="M731 1319q0 -50 -33 -83t-83 -33t-83 33t-33 83t33 83t83 33t83 -33t33 -83zM682 1319q0 67 -67 67t-67 -67t67 -67t67 67z" />
    <glyph glyph-name="uni05B0" unicode="&#x5b0;" 
d="M690 -211q0 -31 -22.5 -53.5t-52.5 -22.5q-31 0 -53.5 22.5t-22.5 53.5t22.5 53.5t53.5 22.5q30 0 52.5 -22.5t22.5 -53.5zM690 -436q0 -31 -22.5 -53.5t-52.5 -22.5q-31 0 -53.5 22.5t-22.5 53.5q0 30 22.5 53t53.5 23q30 0 52.5 -23t22.5 -53z" />
    <glyph glyph-name="uni05B1" unicode="&#x5b1;" 
d="M944 -211q0 -31 -22.5 -53.5t-53.5 -22.5q-30 0 -52.5 22.5t-22.5 53.5t22.5 53.5t52.5 22.5q31 0 53.5 -22.5t22.5 -53.5zM944 -436q0 -31 -22.5 -53.5t-53.5 -22.5q-30 0 -52.5 22.5t-22.5 53.5q0 30 22.5 53t52.5 23q31 0 53.5 -23t22.5 -53zM690 -211
q0 -31 -22.5 -53.5t-52.5 -22.5q-31 0 -53.5 22.5t-22.5 53.5t22.5 53.5t53.5 22.5q30 0 52.5 -22.5t22.5 -53.5zM436 -211q0 -31 -22.5 -53.5t-52.5 -22.5q-31 0 -53.5 22.5t-22.5 53.5t22.5 53.5t53.5 22.5q30 0 52.5 -22.5t22.5 -53.5zM563 -436q0 -31 -22.5 -53.5
t-52.5 -22.5q-31 0 -53.5 22.5t-22.5 53.5q0 30 22.5 53t53.5 23q30 0 52.5 -23t22.5 -53z" />
    <glyph glyph-name="uni05B2" unicode="&#x5b2;" 
d="M903 -211q0 -31 -22.5 -53.5t-53.5 -22.5q-30 0 -52.5 22.5t-22.5 53.5t22.5 53.5t52.5 22.5q31 0 53.5 -22.5t22.5 -53.5zM903 -436q0 -31 -22.5 -53.5t-53.5 -22.5q-30 0 -52.5 22.5t-22.5 53.5q0 30 22.5 53t52.5 23q31 0 53.5 -23t22.5 -53zM672 -281h-346v113h346
v-113z" />
    <glyph glyph-name="uni05B3" unicode="&#x5b3;" 
d="M903 -211q0 -31 -22.5 -53.5t-53.5 -22.5q-30 0 -52.5 22.5t-22.5 53.5t22.5 53.5t52.5 22.5q31 0 53.5 -22.5t22.5 -53.5zM903 -436q0 -31 -22.5 -53.5t-53.5 -22.5q-30 0 -52.5 22.5t-22.5 53.5q0 30 22.5 53t52.5 23q31 0 53.5 -23t22.5 -53zM672 -281h-123v-149h-100
v149h-123v113h346v-113z" />
    <glyph glyph-name="uni05B4" unicode="&#x5b4;" 
d="M690 -211q0 -31 -22.5 -53.5t-52.5 -22.5q-31 0 -53.5 22.5t-22.5 53.5t22.5 53.5t53.5 22.5q30 0 52.5 -22.5t22.5 -53.5z" />
    <glyph glyph-name="uni05B5" unicode="&#x5b5;" 
d="M817 -211q0 -31 -22.5 -53.5t-53.5 -22.5q-30 0 -52.5 22.5t-22.5 53.5t22.5 53.5t52.5 22.5q31 0 53.5 -22.5t22.5 -53.5zM563 -211q0 -31 -22.5 -53.5t-52.5 -22.5q-31 0 -53.5 22.5t-22.5 53.5t22.5 53.5t53.5 22.5q30 0 52.5 -22.5t22.5 -53.5z" />
    <glyph glyph-name="uni05B6" unicode="&#x5b6;" 
d="M817 -211q0 -31 -22.5 -53.5t-53.5 -22.5q-30 0 -52.5 22.5t-22.5 53.5t22.5 53.5t52.5 22.5q31 0 53.5 -22.5t22.5 -53.5zM563 -211q0 -31 -22.5 -53.5t-52.5 -22.5q-31 0 -53.5 22.5t-22.5 53.5t22.5 53.5t53.5 22.5q30 0 52.5 -22.5t22.5 -53.5zM690 -436
q0 -31 -22.5 -53.5t-52.5 -22.5q-31 0 -53.5 22.5t-22.5 53.5q0 30 22.5 53t53.5 23q30 0 52.5 -23t22.5 -53z" />
    <glyph glyph-name="uni05B7" unicode="&#x5b7;" 
d="M788 -281h-347v113h347v-113z" />
    <glyph glyph-name="uni05B8" unicode="&#x5b8;" 
d="M788 -281h-123v-149h-101v149h-123v113h347v-113z" />
    <glyph glyph-name="uni05B9" unicode="&#x5b9;" 
d="M692 1292q0 -31 -23.5 -54t-53.5 -23q-31 0 -54 23t-23 54t23 53.5t54 22.5q30 0 53.5 -23t23.5 -53z" />
    <glyph glyph-name="uni05BA" unicode="&#x5ba;" 
d="M691 1292q0 -30 -23 -52.5t-53 -22.5q-31 0 -53.5 22.5t-22.5 52.5q0 31 22.5 53.5t53.5 22.5q30 0 53 -22.5t23 -53.5z" />
    <glyph glyph-name="uni05BB" unicode="&#x5bb;" 
d="M873 -436q0 -31 -23 -53.5t-53 -22.5q-31 0 -53.5 22.5t-22.5 53.5q0 30 22.5 53t53.5 23q30 0 53 -23t23 -53zM690 -324q0 -30 -22.5 -52.5t-52.5 -22.5q-31 0 -53.5 22.5t-22.5 52.5q0 31 22.5 53.5t53.5 22.5q30 0 52.5 -22.5t22.5 -53.5zM508 -211q0 -31 -22.5 -53.5
t-53.5 -22.5q-30 0 -53 22.5t-23 53.5t23 53.5t53 22.5q31 0 53.5 -22.5t22.5 -53.5z" />
    <glyph glyph-name="uni05BC" unicode="&#x5bc;" 
d="M690 588q0 -31 -22.5 -53.5t-52.5 -22.5q-31 0 -53.5 22.5t-22.5 53.5q0 30 22.5 53t53.5 23q30 0 52.5 -23t22.5 -53z" />
    <glyph glyph-name="uni05BD" unicode="&#x5bd;" 
d="M661 -395h-93v260h93v-260z" />
    <glyph glyph-name="uni05BE" unicode="&#x5be;" 
d="M813 965h-397v194h397v-194z" />
    <glyph glyph-name="uni05BF" unicode="&#x5bf;" 
d="M817 1092q0 -41 -10 -72h-387q-8 30 -8 70q0 36 8 69h387q10 -37 10 -67z" />
    <glyph glyph-name="uni05C0" unicode="&#x5c0;" 
d="M670 0h-111v1296h111v-1296z" />
    <glyph glyph-name="uni05C1" unicode="&#x5c1;" 
d="M1077 1292q0 -30 -22.5 -52.5t-53.5 -22.5q-30 0 -52.5 22.5t-22.5 52.5q0 31 22.5 53.5t52.5 22.5q31 0 53.5 -22.5t22.5 -53.5z" />
    <glyph glyph-name="uni05C2" unicode="&#x5c2;" 
d="M381 1292q0 -30 -22.5 -52.5t-53.5 -22.5t-53.5 22.5t-22.5 52.5q0 31 22.5 53.5t53.5 22.5t53.5 -22.5t22.5 -53.5z" />
    <glyph glyph-name="uni05C3" unicode="&#x5c3;" 
d="M707 868q0 -52 -26 -90.5t-64 -38.5q-39 0 -67 39t-28 90q0 55 28 93t67 38t64.5 -37.5t25.5 -93.5zM707 135q0 -56 -25.5 -93.5t-64.5 -37.5t-67 38t-28 93q0 56 27.5 92.5t67.5 36.5q39 0 64.5 -36t25.5 -93z" />
    <glyph glyph-name="uni05C4" unicode="&#x5c4;" 
d="M691 1292q0 -30 -23 -52.5t-53 -22.5q-31 0 -53.5 22.5t-22.5 52.5q0 31 22.5 53.5t53.5 22.5q30 0 53 -22.5t23 -53.5z" />
    <glyph glyph-name="uni05C5" unicode="&#x5c5;" 
d="M691 -211q0 -31 -23 -53.5t-53 -22.5q-31 0 -53.5 22.5t-22.5 53.5t22.5 53.5t53.5 22.5q30 0 53 -22.5t23 -53.5z" />
    <glyph glyph-name="uni05C6" unicode="&#x5c6;" 
d="M410 1020q0 139 116 139h236q12 -20 14 -67q2 -43 -16 -72h-141q-42 0 -54 -5q-16 -8 -16 -38v-791q0 -47 70 -47h186q12 -30 14 -76q2 -38 -14 -63h-299q-96 0 -96 154v866z" />
    <glyph glyph-name="uni05C7" unicode="&#x5c7;" 
d="M814 -256h-145l8 -207h-121l6 207h-147v123h399v-123z" />
    <glyph glyph-name="uni05D0" unicode="&#x5d0;" 
d="M1114 0h-161l-467 664q-119 -40 -159 -120q-32 -61 -32 -194q0 -121 12 -161q14 -50 60 -50h133q21 -20 21 -67q0 -43 -21 -72h-205q-100 0 -128 109q-11 46 -11 194q0 229 66 328q41 63 190 147l-238 357h162l367 -539q121 0 181 89q50 75 50 198q0 137 -71 137h-99
q-20 20 -20 70q0 40 20 69h170q137 0 137 -246q0 -382 -282 -438z" />
    <glyph glyph-name="uni05D1" unicode="&#x5d1;" 
d="M1087 70q0 -50 -20 -70h-885q-20 20 -20 70q0 47 20 69h635v742q0 48 -20 88q-27 51 -76 51h-459q-20 20 -20 70q0 46 20 69h475q105 0 166 -88q53 -77 53 -190v-742h111q20 -29 20 -69z" />
    <glyph glyph-name="uni05D2" unicode="&#x5d2;" 
d="M852 0q-22 -12 -74 -12q-47 0 -69 12v311q-118 -149 -253 -243q-112 -78 -167 -78q-33 0 -33 65q0 66 41 84q92 41 216 157q133 126 200 249v409q0 66 -31 66h-217q-20 36 -19 72q2 47 15 67h280q111 0 111 -82v-1077z" />
    <glyph glyph-name="uni05D3" unicode="&#x5d3;" 
d="M1020 1094q0 -48 -15 -74h-217v-1020q-22 -12 -69 -12q-48 0 -70 12v1020h-449q-19 36 -18 72q2 47 14 67h813q11 -27 11 -65z" />
    <glyph glyph-name="uni05D4" unicode="&#x5d4;" 
d="M1018 0q-22 -12 -69 -12q-48 0 -70 12v954q0 66 -27 66h-665q-20 36 -19 72q2 47 15 67h729q106 0 106 -82v-1077zM342 0q-22 -12 -69 -12q-48 0 -70 12v725q23 14 70 14q46 0 69 -14v-725z" />
    <glyph glyph-name="uni05D5" unicode="&#x5d5;" 
d="M765 0q-22 -12 -69 -12q-48 0 -70 12v954q0 66 -27 66h-245q-20 36 -19 72q2 47 15 67h309q106 0 106 -82v-1077z" />
    <glyph glyph-name="uni05D6" unicode="&#x5d6;" 
d="M873 1092q1 -36 -19 -72h-178v-1020q-22 -12 -69 -12q-48 0 -70 12v1020h-166q-20 36 -18 72q2 47 14 67h492q12 -20 14 -67z" />
    <glyph glyph-name="uni05D7" unicode="&#x5d7;" 
d="M982 0q-22 -12 -70 -12q-47 0 -70 12v954q0 66 -26 66h-410v-1020q-22 -12 -69 -12q-48 0 -70 12v1020h-129q-20 36 -18 72q1 47 14 67h741q107 0 107 -82v-1077z" />
    <glyph glyph-name="uni05D8" unicode="&#x5d8;" 
d="M997 180q-44 -192 -385 -192q-145 0 -251 52q-138 68 -138 204v714q0 62 -47 62h-62q-19 36 -18 72q2 47 14 67h172q80 0 80 -76v-772q0 -90 76 -144q72 -50 180 -48q210 3 240 92v690q0 146 -125 146q-119 0 -119 -158v-160h-139v160q0 297 266 297q256 0 256 -285v-721
z" />
    <glyph glyph-name="uni05D9" unicode="&#x5d9;" 
d="M794 647q-22 -12 -70 -12q-47 0 -69 12v311q0 62 -47 62h-226q-20 36 -18 72q2 47 14 67h336q80 0 80 -76v-436z" />
    <glyph glyph-name="uni05DA" unicode="&#x5da;" 
d="M863 -240q-22 -12 -69 -12q-48 0 -70 12v1194q0 66 -27 66h-514q-20 36 -18 72q2 47 14 67h578q106 0 106 -82v-1317z" />
    <glyph glyph-name="uni05DB" unicode="&#x5db;" 
d="M990 307q0 -307 -305 -307h-530q-20 36 -19 72q2 47 15 67h532q168 0 168 168v547q0 72 -57 119t-133 47h-506q-20 36 -19 72q2 47 15 67h549q121 0 200 -70q90 -82 90 -237v-545z" />
    <glyph glyph-name="uni05DC" unicode="&#x5dc;" 
d="M982 618l-379 -370q-45 -44 -45 -109v-88q0 -51 -70 -51q-69 0 -69 51v101q0 108 104 210l320 314v285q0 59 -43 59h-553q-121 0 -121 104v238q22 12 70 12q47 0 69 -12v-168q0 -35 45 -35h559q50 0 81.5 -27.5t31.5 -70.5v-443z" />
    <glyph glyph-name="uni05DD" unicode="&#x5dd;" 
d="M980 102q0 -102 -61 -102h-590q-35 0 -58 33q-20 30 -20 69v918h-125q-20 36 -18 72q2 47 14 67h764q32 0 62 -26q32 -30 32 -70v-961zM841 209v749q0 62 -45 62h-406v-811q0 -70 45 -70h371q35 0 35 70z" />
    <glyph glyph-name="uni05DE" unicode="&#x5de;" 
d="M990 139q0 -139 -88 -139h-297q-12 20 -14 68q-2 36 18 71h203q39 0 39 49v715q0 62 -47 105t-119 43q-138 0 -220 -117q-73 -103 -73 -248v-686q-28 -14 -73 -12q-52 2 -66 12v971q0 49 -33 49h-117q-19 36 -18 72q2 47 14 67h197q84 0 90 -65l10 -107q47 86 128 141
q86 58 180 58q109 0 192 -59q94 -67 94 -179v-809z" />
    <glyph glyph-name="uni05DF" unicode="&#x5df;" 
d="M712 -238q-29 -16 -69 -16q-41 0 -70 16v1192q0 66 -27 66h-157q-20 36 -19 72q2 47 15 67h221q106 0 106 -82v-1315z" />
    <glyph glyph-name="uni05E0" unicode="&#x5e0;" 
d="M762 154q0 -154 -96 -154h-299q-16 25 -14 63q2 46 14 76h186q70 0 70 47v791q0 30 -16 38q-12 5 -54 5h-141q-18 29 -16 72q2 47 14 67h236q116 0 116 -139v-866z" />
    <glyph glyph-name="uni05E1" unicode="&#x5e1;" 
d="M971 274q0 -129 -106 -207q-102 -75 -261 -75q-154 0 -250 77.5t-96 204.5v746h-106q-19 29 -17 72q2 47 14 67h715q41 0 74 -32.5t33 -75.5v-777zM836 332v624q0 64 -39 64h-400v-688q0 -203 219 -203q97 0 155 48q65 54 65 155z" />
    <glyph glyph-name="uni05E2" unicode="&#x5e2;" 
d="M992 449q0 -449 -516 -449h-370q-20 36 -19 72q2 47 14 67h193v815q0 66 -27 66h-161q-20 36 -19 72q2 47 14 67h226q106 0 106 -82v-938h43q193 0 280 65q97 72 97 245v505q0 66 -27 66h-141q-20 36 -18 72q2 47 14 67h205q106 0 106 -82v-628z" />
    <glyph glyph-name="uni05E3" unicode="&#x5e3;" 
d="M952 -238q-29 -16 -69 -16t-70 16v1201q0 57 -45 57h-377q-45 0 -45 -57v-353q0 -49 39 -49h187q19 -36 18 -72q-2 -47 -14 -67h-281q-88 0 -88 82v516q0 139 102 139h541q102 0 102 -139v-1258z" />
    <glyph glyph-name="uni05E4" unicode="&#x5e4;" 
d="M970 266q0 -126 -36 -186q-47 -80 -168 -80h-510q-20 36 -19 72q2 47 15 67h471q73 0 94 42q14 29 14 126v656q0 57 -45 57h-377q-45 0 -45 -57v-312q0 -49 39 -49h228q19 -36 18 -72q-2 -47 -14 -67h-322q-88 0 -88 82v475q0 139 102 139h541q102 0 102 -139v-754z" />
    <glyph glyph-name="uni05E5" unicode="&#x5e5;" 
d="M1047 1020q0 -225 -169.5 -384t-404.5 -159v-715q-29 -16 -69 -16q-41 0 -70 16v1192q0 66 -27 66h-151q-20 36 -19 72q2 47 15 67h215q106 0 106 -82v-471q142 0 282 105q148 111 148 243q0 66 -26 66h-142q-19 36 -18 72q2 47 14 67h205q64 0 87.5 -30t23.5 -109z" />
    <glyph glyph-name="uni05E6" unicode="&#x5e6;" 
d="M1045 1020q0 -266 -285 -469q135 -117 172 -165q82 -106 82 -241q0 -145 -113 -145h-727q-20 36 -18 72q2 47 14 67h662q45 0 45 51q0 78 -104 175l-218 180q-118 98 -156 148q-67 89 -67 202v59q0 66 -27 66h-151q-20 36 -19 72q2 47 15 67h215q106 0 106 -82v-125
q0 -121 43 -183q27 -40 146 -132q116 92 164 147q77 88 77 170q0 66 -26 66h-142q-19 36 -18 72q2 47 14 67h205q64 0 87.5 -30t23.5 -109z" />
    <glyph glyph-name="uni05E7" unicode="&#x5e7;" 
d="M999 629q-32 -86 -186 -267l-85 -100q-38 -52 -38 -94v-117q0 -51 -70 -51q-69 0 -69 51v152q0 59 49 121l106 120q124 150 154 230v287q0 59 -43 59h-623q-19 36 -18 72q2 47 14 67h697q49 0 80.5 -27.5t31.5 -70.5v-432zM399 -219q0 -35 -69 -35q-70 0 -70 35v1022
q23 14 70 14q46 0 69 -14v-1022z" />
    <glyph glyph-name="uni05E8" unicode="&#x5e8;" 
d="M911 0q-22 -12 -69 -12q-48 0 -70 12v954q0 66 -27 66h-563q-20 36 -18 72q2 47 14 67h627q106 0 106 -82v-1077z" />
    <glyph glyph-name="uni05E9" unicode="&#x5e9;" 
d="M1109 246q0 -246 -248 -246h-499q-248 0 -248 246v831q0 82 106 82h170q13 -20 15 -67q1 -36 -19 -72h-106q-27 0 -27 -66v-747q0 -68 135 -68h154v1020q18 10 71 10q50 0 68 -10v-1020h154q135 0 135 68v747q0 66 -27 66h-106q-20 36 -19 72q2 47 15 67h170
q106 0 106 -82v-831z" />
    <glyph glyph-name="uni05EA" unicode="&#x5ea;" 
d="M1020 0q-22 -12 -70 -12q-47 0 -69 12v954q0 66 -27 66h-492v-866q0 -154 -96 -154h-217q-16 25 -14 63q2 46 14 76h105q69 0 69 47v791q0 30 -16 38q-11 5 -53 5h-80q-18 29 -17 72q2 47 15 67h841q107 0 107 -82v-1077z" />
    <glyph glyph-name="uni05F0" unicode="&#x5f0;" 
d="M1091 0q-22 -12 -70 -12q-47 0 -69 12v954q0 66 -27 66h-246q-20 36 -18 72q2 47 14 67h309q107 0 107 -82v-1077zM568 0q-22 -12 -69 -12q-48 0 -70 12v954q0 66 -27 66h-245q-20 36 -19 72q2 47 15 67h309q106 0 106 -82v-1077z" />
    <glyph glyph-name="uni05F1" unicode="&#x5f1;" 
d="M1091 0q-22 -12 -70 -12q-47 0 -69 12v954q0 66 -27 66h-246q-20 36 -18 72q2 47 14 67h309q107 0 107 -82v-1077zM568 647q-22 -12 -69 -12q-48 0 -70 12v311q0 62 -47 62h-225q-20 36 -19 72q2 47 14 67h336q80 0 80 -76v-436z" />
    <glyph glyph-name="uni05F2" unicode="&#x5f2;" 
d="M1091 647q-22 -12 -70 -12q-47 0 -69 12v311q0 62 -47 62h-226q-20 36 -18 72q2 47 14 67h336q80 0 80 -76v-436zM568 647q-22 -12 -69 -12q-48 0 -70 12v311q0 62 -47 62h-225q-20 36 -19 72q2 47 14 67h336q80 0 80 -76v-436z" />
    <glyph glyph-name="uni05F3" unicode="&#x5f3;" 
d="M1163 1230q0 -33 -23 -72l-157 -269q-23 -40 -82 -40q-41 0 -41 19q0 16 11 44l109 278q25 65 72 65h70q34 0 39 -11q2 -5 2 -14z" />
    <glyph glyph-name="uni05F4" unicode="&#x5f4;" 
d="M1214 1230q0 -29 -25 -72l-156 -269q-23 -40 -81 -40q-42 0 -42 19t10 44l111 278q26 65 72 65h70q27 0 34 -6t7 -19zM922 1230q0 -33 -23 -72l-158 -269q-23 -40 -81 -40q-42 0 -42 19q0 13 12 44l109 278q25 65 72 65h69q30 0 38 -8q4 -5 4 -17z" />
    <glyph glyph-name="uni200E" unicode="&#x200e;" 
d="M942 918l-336 -312v221h-143v-827h-176v1004h319v225z" />
    <glyph glyph-name="uni200F" unicode="&#x200f;" 
d="M942 0h-176v827h-143v-221l-336 312l336 311v-225h319v-1004z" />
    <glyph glyph-name="endash" unicode="&#x2013;" 
d="M1084 585q0 -42 -56 -42h-827q-56 0 -56 42t56 42h827q56 0 56 -42z" />
    <glyph glyph-name="emdash" unicode="&#x2014;" 
d="M1243 586q0 -42 -56 -42h-1146q-56 0 -56 42q0 43 56 43h1146q56 0 56 -43z" />
    <glyph glyph-name="quoteleft" unicode="&#x2018;" 
d="M931 712q0 -59 -61 -59q-36 0 -63 50l-298 552h274l145 -520q3 -11 3 -23z" />
    <glyph glyph-name="quoteright" unicode="&#x2019;" 
d="M715 1255l-297 -552q-27 -50 -65 -50q-60 0 -60 60q0 11 3 22l146 520h273z" />
    <glyph glyph-name="quotesinglbase" unicode="&#x201a;" 
d="M721 277l-297 -551q-27 -51 -65 -51q-60 0 -60 61q0 11 3 22l146 519h273z" />
    <glyph glyph-name="quotedblleft" unicode="&#x201c;" 
d="M1009 789q0 -51 -51 -51q-29 0 -54 40l-293 477h218l171 -431q9 -23 9 -35zM577 789q0 -51 -52 -51q-28 0 -53 40l-293 477h218l171 -431q9 -23 9 -35z" />
    <glyph glyph-name="quotedblright" unicode="&#x201d;" 
d="M1049 1255l-292 -477q-24 -40 -54 -40q-52 0 -52 50q0 11 10 36l171 431h217zM617 1255l-293 -477q-25 -40 -54 -40q-51 0 -51 50q0 13 9 36l172 431h217z" />
    <glyph glyph-name="quotedblbase" unicode="&#x201e;" 
d="M1054 256l-292 -476q-25 -40 -54 -40q-52 0 -52 50q0 11 10 36l171 430h217zM622 256l-293 -476q-25 -40 -54 -40q-51 0 -51 50q0 13 9 36l172 430h217z" />
    <glyph glyph-name="dagger" unicode="&#x2020;" 
d="M978 825q0 -42 -57 -42h-264v-856q0 -57 -42 -57t-42 57v856h-265q-56 0 -56 42q0 43 56 43l265 -1v331q0 57 42 57t42 -57v-331h264q57 0 57 -42z" />
    <glyph glyph-name="daggerdbl" unicode="&#x2021;" 
d="M978 306q0 -42 -57 -42h-265v-337q0 -57 -42 -57t-42 57v337h-265q-56 0 -56 43q0 42 56 42h265v435h-265q-56 0 -56 43q0 42 56 42h265v329q0 57 42 57q43 0 43 -57l-1 -329h265q57 0 57 -43q0 -42 -57 -42h-265v-435h265q57 0 57 -43z" />
    <glyph glyph-name="bullet" unicode="&#x2022;" 
d="M862 637q0 -103 -72.5 -175.5t-175.5 -72.5t-175 72.5t-72 175.5t72 175t175 72t175.5 -72t72.5 -175z" />
    <glyph glyph-name="ellipsis" unicode="&#x2026;" 
d="M1128 73q0 -43 -30 -73t-73 -30t-72.5 30t-29.5 73t29.5 72.5t72.5 29.5t73 -29.5t30 -72.5zM716 73q0 -43 -30 -73t-73 -30t-72.5 30t-29.5 73q0 42 30 72t72 30q43 0 73 -29.5t30 -72.5zM306 73q0 -43 -29.5 -73t-72.5 -30t-73 30t-30 73t30 72.5t73 29.5q42 0 72 -30
t30 -72z" />
    <glyph glyph-name="perthousand" unicode="&#x2030;" 
d="M1046 842q0 -11 -8 -20q-4 -6 -23 -12l-778 -253q-15 -5 -21 -5q-28 0 -28 30q0 11 8 20q4 6 23 12l778 253q15 5 21 5q28 0 28 -30zM431 1060q0 -65 -47 -130q-64 -89 -138 -89q-75 0 -138 88q-47 65 -47 131q0 73 55 144q59 75 130 75q75 0 138 -88q47 -65 47 -131z
M1162 198q0 -66 -47 -131q-63 -88 -138 -88t-138 87q-47 65 -47 132q0 73 55 143q59 75 130 75q74 0 138 -88q47 -65 47 -130zM624 198q0 -67 -46 -131q-63 -88 -139 -88q-74 0 -137 87q-48 67 -48 132q0 73 55 143q59 75 130 75q75 0 139 -88q46 -64 46 -130zM369 1060
q0 45 -40 101.5t-83 56.5t-83 -56.5t-40 -101.5q0 -44 39 -99q42 -59 84 -59t84 59q39 54 39 99zM1100 198q0 45 -39 99q-42 59 -84 59t-84 -59q-39 -54 -39 -99t39 -100q41 -59 84 -59q42 0 84 59q39 55 39 100zM563 198q0 44 -39 99q-42 59 -84 59t-85 -58
q-39 -55 -39 -100t39 -100q42 -59 85 -59q42 0 84 59q39 55 39 100z" />
    <glyph glyph-name="guilsinglleft" unicode="&#x2039;" 
d="M641 43q0 -42 -42 -42q-19 0 -44 23l-448 410l448 410q26 24 44 24q42 0 42 -43q0 -15 -23 -41l-313 -350l313 -349q23 -26 23 -42z" />
    <glyph glyph-name="guilsinglright" unicode="&#x203a;" 
d="M1130 434l-449 -410q-25 -23 -43 -23q-42 0 -42 42q0 17 22 42l313 349l-313 350q-22 25 -22 42q0 42 42 42q17 0 43 -24z" />
    <glyph glyph-name="uni20AA" unicode="&#x20aa;" 
d="M1265 195q0 -111 -43.5 -153t-149.5 -42h-719v612h134v-475h548q90 0 90 76v743h140v-761zM889 339h-137v401q0 77 -93 77h-547v-817h-137v956h719q107 0 151 -43t44 -152v-422z" />
    <glyph glyph-name="Euro" unicode="&#x20ac;" 
d="M130 488h-83q-40 0 -40 30t40 30h80v90h-80q-40 0 -40 30t40 30h84q10 209 154 354t344 145q208 0 358 -142v59q0 56 42 56t42 -56v-233q0 -57 -42 -57q-39 0 -42 51q-6 94 -115 166t-240 72q-111 0 -198.5 -52t-147.5 -145t-71 -218h583q42 0 42 -30t-42 -30h-586v-90
h557q42 0 42 -30t-42 -30h-554q8 -177 139.5 -307t311.5 -130q201 0 359 189q18 21 38 21q40 0 40 -39q0 -17 -34.5 -60.5t-99.5 -93.5t-141 -75.5t-160 -25.5q-148 0 -267 69t-194 185.5t-77 266.5z" />
    <glyph glyph-name="trademark" unicode="&#x2122;" 
d="M1233 656q0 -25 -35 -25h-191q-35 0 -35 25q0 26 35 26h96v601h-11l-196 -442h-59l-200 442h-9v-601h95q35 0 35 -26q0 -25 -35 -25h-191q-35 0 -35 25q0 26 35 26h43v601h-32q-35 0 -35 25t35 25h127l197 -435l193 435h127q35 0 35 -25t-35 -25h-32v-601h43q35 0 35 -26
zM499 1108q0 -22 -12 -30q-6 -4 -13 -4q-26 0 -26 34v175h-206v-601h131q34 0 34 -26q0 -25 -34 -25h-312q-34 0 -34 25q0 26 34 26h131v601h-206v-175q0 -34 -26 -34q-25 0 -25 34v225h564v-225z" />
    <glyph glyph-name="uni25CC" unicode="&#x25cc;" 
d="M986 918q0 -50 -48 -50q-52 0 -52 50t52 50q48 0 48 -50zM838 1016q0 -49 -48 -49q-52 0 -52 49q0 51 52 51q48 0 48 -51zM1085 770q0 -51 -51 -51q-49 0 -49 51q0 49 51 49q49 0 49 -49zM1121 596q0 -50 -48 -50q-52 0 -52 50t52 50q48 0 48 -50zM664 1053
q0 -51 -50 -51t-50 51q0 49 50 49t50 -49zM491 1016q0 -49 -51 -49q-49 0 -49 49q0 51 49 51q51 0 51 -51zM1085 422q0 -49 -51 -49q-49 0 -49 49q0 51 49 51q51 0 51 -51zM343 918q0 -50 -50 -50t-50 47q0 53 50 53t50 -50zM986 272q0 -49 -48 -49q-52 0 -52 49q0 51 52 51
q48 0 48 -51zM838 174q0 -48 -48 -48q-52 0 -52 48q0 52 52 52q48 0 48 -52zM244 770q0 -51 -48 -51q-52 0 -52 51q0 49 50 49t50 -49zM208 596q1 -50 -48 -50q-52 0 -52 50t52 50q49 0 48 -50zM664 141q0 -51 -50 -51t-50 51q0 49 50 49t50 -49zM244 422q0 -49 -50 -49
t-50 49q0 51 50 51t50 -51zM491 178q0 -52 -51 -52q-49 0 -49 48q0 52 49 52q51 0 51 -48zM343 272q0 -49 -50 -49t-50 49q0 51 50 51t50 -51z" />
    <glyph glyph-name="uni2643" unicode="&#x2643;" horiz-adv-x="2048" 
 />
    <glyph glyph-name="uniFB1D" unicode="&#xfb1d;" 
d="M792 647q-22 -12 -69 -12q-48 0 -70 12v311q0 62 -47 62h-225q-20 36 -19 72q2 47 14 67h336q80 0 80 -76v-436zM799 336q0 -31 -23 -53.5t-53 -22.5q-31 0 -53.5 22.5t-22.5 53.5q0 30 22.5 53t53.5 23q30 0 53 -23t23 -53z" />
    <glyph glyph-name="uniFB1E" unicode="&#xfb1e;" 
d="M787 1464h123q-15 -125 -91.5 -192t-203.5 -67q-128 0 -204.5 66.5t-91.5 192.5h123q14 -68 55.5 -101.5t111.5 -33.5q81 0 122.5 32.5t55.5 102.5z" />
    <glyph glyph-name="uniFB1F" unicode="&#xfb1f;" 
d="M571 647q-22 -12 -69 -12q-48 0 -70 12v311q0 62 -47 62h-225q-20 36 -19 72q2 47 14 67h336q80 0 80 -76v-436zM1094 647q-22 -12 -70 -12q-47 0 -69 12v311q0 62 -47 62h-226q-20 36 -18 72q2 47 14 67h336q80 0 80 -76v-436zM1094 270h-662v82h662v-82z" />
    <glyph glyph-name="uniFB20" unicode="&#xfb20;" 
d="M992 449q0 -449 -516 -449h-370q-20 36 -19 72q2 47 14 67h193v815q0 66 -27 66h-161q-20 36 -19 72q2 47 14 67h226q106 0 106 -82v-938h43q193 0 280 65q97 72 97 245v505q0 66 -27 66h-141q-20 36 -18 72q2 47 14 67h205q106 0 106 -82v-628z" />
    <glyph glyph-name="uniFB21" unicode="&#xfb21;" 
d="M1222 0h-178l-646 706q-38 -11 -73.5 -29.5t-65 -39.5t-51 -43t-30.5 -40q-16 -31 -24 -84t-8 -120q0 -121 12 -161q14 -50 60 -50h133q21 -20 21 -67q0 -44 -21 -72h-205q-49 0 -76.5 27t-41.5 70.5t-17.5 97.5t-3.5 108q0 115 16.5 201.5t49.5 136.5q9 14 30.5 34
t52 42.5t69 46t81.5 43.5l-299 328h182l555 -610q36 4 80 14.5t85.5 26t75.5 35.5t50 44q12 19 21.5 47t16 60t9.5 66t3 65q0 137 -71 137h-99q-20 20 -20 70q0 40 20 69h170q137 0 137 -246q0 -107 -13 -184.5t-53 -135t-115 -99.5t-199 -76z" />
    <glyph glyph-name="uniFB22" unicode="&#xfb22;" 
d="M1184 1094q0 -48 -15 -74h-217v-1020q-22 -12 -69 -12q-48 0 -70 12v1020h-748q-20 36 -19 72q2 47 15 67h1113q10 -27 10 -65z" />
    <glyph glyph-name="uniFB23" unicode="&#xfb23;" 
d="M1190 0q-22 -12 -69 -12q-48 0 -70 12v954q0 66 -26 66h-966q-20 36 -18 72q1 47 14 67h1029q106 0 106 -82v-1077zM215 0q-23 -12 -70 -12q-48 0 -70 12v725q23 14 70 14t70 -14v-725z" />
    <glyph glyph-name="uniFB24" unicode="&#xfb24;" 
d="M1192 307q0 -307 -305 -307h-830q-20 36 -19 72q2 47 15 67h832q168 0 168 168v547q0 72 -57 119t-133 47h-806q-20 36 -19 72q2 47 15 67h849q121 0 200 -70q90 -82 90 -237v-545z" />
    <glyph glyph-name="uniFB25" unicode="&#xfb25;" 
d="M768 139v-88q0 -51 -69 -51q-70 0 -70 51v101q0 108 105 210l319 314v285q0 59 -43 59h-853q-121 0 -121 104v238q22 12 70 12q47 0 69 -12v-168q0 -35 46 -35h859q49 0 80.5 -27.5t31.5 -70.5v-443l-379 -370q-45 -44 -45 -109z" />
    <glyph glyph-name="uniFB26" unicode="&#xfb26;" 
d="M1202 102q0 -102 -62 -102h-889q-35 0 -58 33q-20 30 -20 69v918h-125q-20 36 -19 72q2 47 15 67h1064q32 0 61 -26q33 -30 33 -70v-961zM1063 209v749q0 62 -45 62h-706v-811q0 -70 45 -70h671q35 0 35 70z" />
    <glyph glyph-name="uniFB27" unicode="&#xfb27;" 
d="M1139 0q-22 -12 -69 -12q-48 0 -70 12v954q0 66 -27 66h-863q-20 36 -18 72q2 47 14 67h927q106 0 106 -82v-1077z" />
    <glyph glyph-name="uniFB28" unicode="&#xfb28;" 
d="M1195 0q-22 -12 -70 -12q-47 0 -69 12v954q0 66 -27 66h-692v-866q0 -154 -96 -154h-217q-16 25 -14 63q2 46 14 76h105q69 0 69 47v791q0 30 -16 38q-11 5 -53 5h-80q-18 29 -17 72q2 47 15 67h1041q107 0 107 -82v-1077z" />
    <glyph glyph-name="uniFB29" unicode="&#xfb29;" 
d="M1154 230h-1078v82h498v497h80v-497h500v-82z" />
    <glyph glyph-name="uniFB2A" unicode="&#xfb2a;" 
d="M1041 1292q0 -30 -22.5 -52.5t-52.5 -22.5q-31 0 -53.5 22.5t-22.5 52.5q0 31 22.5 53.5t53.5 22.5q30 0 52.5 -22.5t22.5 -53.5zM1109 246q0 -246 -248 -246h-499q-248 0 -248 246v831q0 82 106 82h170q13 -20 15 -67q1 -36 -19 -72h-106q-27 0 -27 -66v-747
q0 -68 135 -68h154v1020q18 10 71 10q50 0 68 -10v-1020h154q135 0 135 68v747q0 66 -27 66h-106q-20 36 -19 72q2 47 15 67h170q106 0 106 -82v-831z" />
    <glyph glyph-name="uniFB2B" unicode="&#xfb2b;" 
d="M346 1292q0 -30 -22.5 -52.5t-52.5 -22.5q-31 0 -53.5 22.5t-22.5 52.5q0 31 22.5 53.5t53.5 22.5q30 0 52.5 -22.5t22.5 -53.5zM1110 246q0 -246 -248 -246h-499q-248 0 -248 246v831q0 82 106 82h170q13 -20 15 -67q1 -36 -19 -72h-106q-27 0 -27 -66v-747
q0 -68 135 -68h154v1020q18 10 72 10q49 0 67 -10v-1020h154q135 0 135 68v747q0 66 -27 66h-106q-20 36 -19 72q2 47 15 67h170q106 0 106 -82v-831z" />
    <glyph glyph-name="uniFB2C" unicode="&#xfb2c;" 
d="M1042 1292q0 -30 -22.5 -52.5t-52.5 -22.5q-31 0 -53.5 22.5t-22.5 52.5q0 31 22.5 53.5t53.5 22.5q30 0 52.5 -22.5t22.5 -53.5zM899 588q0 -31 -22.5 -53.5t-53.5 -22.5q-30 0 -52.5 22.5t-22.5 53.5q0 30 22.5 53t52.5 23q31 0 53.5 -23t22.5 -53zM1110 246
q0 -246 -248 -246h-500q-247 0 -247 246v831q0 82 106 82h170q13 -20 14 -67q2 -36 -18 -72h-106q-27 0 -27 -66v-747q0 -68 135 -68h154v1020q18 10 71 10q50 0 68 -10v-1020h154q135 0 135 68v747q0 66 -27 66h-106q-20 36 -19 72q2 47 15 67h170q106 0 106 -82v-831z" />
    <glyph glyph-name="uniFB2D" unicode="&#xfb2d;" 
d="M346 1292q0 -30 -22.5 -52.5t-52.5 -22.5q-31 0 -53.5 22.5t-22.5 52.5q0 31 22.5 53.5t53.5 22.5q30 0 52.5 -22.5t22.5 -53.5zM899 588q0 -31 -22.5 -53.5t-52.5 -22.5q-31 0 -53.5 22.5t-22.5 53.5q0 30 22.5 53t53.5 23q30 0 52.5 -23t22.5 -53zM1110 246
q0 -246 -248 -246h-499q-248 0 -248 246v831q0 82 106 82h170q13 -20 15 -67q1 -36 -19 -72h-106q-27 0 -27 -66v-747q0 -68 135 -68h154v1020q18 10 72 10q49 0 67 -10v-1020h154q135 0 135 68v747q0 66 -27 66h-106q-20 36 -19 72q2 47 15 67h170q106 0 106 -82v-831z" />
    <glyph glyph-name="uniFB2E" unicode="&#xfb2e;" 
d="M1114 0h-161l-467 664q-119 -40 -159 -120q-32 -61 -32 -194q0 -121 12 -161q14 -50 60 -50h133q21 -20 21 -67q0 -43 -21 -72h-205q-100 0 -128 109q-11 46 -11 194q0 229 66 328q41 63 190 147l-238 357h162l367 -539q121 0 181 89q50 75 50 198q0 137 -71 137h-99
q-20 20 -20 70q0 40 20 69h170q137 0 137 -246q0 -382 -282 -438zM838 -281h-346v113h346v-113z" />
    <glyph glyph-name="uniFB2F" unicode="&#xfb2f;" 
d="M1114 0h-161l-467 664q-119 -40 -159 -120q-32 -61 -32 -194q0 -121 12 -161q14 -50 60 -50h133q21 -20 21 -67q0 -43 -21 -72h-205q-100 0 -128 109q-11 46 -11 194q0 229 66 328q41 63 190 147l-238 357h162l367 -539q121 0 181 89q50 75 50 198q0 137 -71 137h-99
q-20 20 -20 70q0 40 20 69h170q137 0 137 -246q0 -382 -282 -438zM838 -281h-123v-149h-100v149h-123v113h346v-113z" />
    <glyph glyph-name="uniFB30" unicode="&#xfb30;" 
d="M1114 0h-161l-467 664q-119 -40 -159 -120q-32 -61 -32 -194q0 -121 12 -161q14 -50 60 -50h133q21 -20 21 -67q0 -43 -21 -72h-205q-100 0 -128 109q-11 46 -11 194q0 229 66 328q41 63 190 147l-238 357h162l367 -539q121 0 181 89q50 75 50 198q0 137 -71 137h-99
q-20 20 -20 70q0 40 20 69h170q137 0 137 -246q0 -382 -282 -438zM735 -211q0 -31 -22.5 -53.5t-53.5 -22.5q-30 0 -53 22.5t-23 53.5t23 53.5t53 22.5q31 0 53.5 -22.5t22.5 -53.5z" />
    <glyph glyph-name="uniFB31" unicode="&#xfb31;" 
d="M1086 70q0 -50 -20 -70h-885q-20 20 -20 70q0 47 20 69h635v742q0 48 -20 88q-27 51 -76 51h-459q-20 20 -20 70q0 46 20 69h475q105 0 166 -88q53 -77 53 -190v-742h111q20 -29 20 -69zM599 588q0 -31 -22.5 -53.5t-53.5 -22.5t-53.5 22.5t-22.5 53.5q0 30 22.5 53
t53.5 23t53.5 -23t22.5 -53z" />
    <glyph glyph-name="uniFB32" unicode="&#xfb32;" 
d="M849 0q-22 -12 -73 -12q-48 0 -70 12v311q-118 -149 -253 -243q-112 -78 -167 -78q-33 0 -33 65q0 66 41 84q93 41 216 157q133 126 200 249v409q0 66 -31 66h-217q-20 36 -18 72q2 47 14 67h281q110 0 110 -82v-1077zM593 588q0 -31 -22.5 -53.5t-53.5 -22.5
q-30 0 -52.5 22.5t-22.5 53.5q0 30 22.5 53t52.5 23q31 0 53.5 -23t22.5 -53z" />
    <glyph glyph-name="uniFB33" unicode="&#xfb33;" 
d="M1020 1094q0 -48 -14 -74h-217v-1020q-22 -12 -70 -12q-47 0 -69 12v1020h-449q-20 36 -18 72q2 47 14 67h813q10 -27 10 -65zM498 588q0 -31 -22.5 -53.5t-53.5 -22.5q-30 0 -52.5 22.5t-22.5 53.5q0 30 22.5 53t52.5 23q31 0 53.5 -23t22.5 -53z" />
    <glyph glyph-name="uniFB34" unicode="&#xfb34;" 
d="M683 588q0 -31 -22.5 -53.5t-53.5 -22.5t-53.5 22.5t-22.5 53.5q0 30 22.5 53t53.5 23t53.5 -23t22.5 -53zM1014 0q-22 -12 -69 -12q-48 0 -70 12v954q0 66 -26 66h-666q-20 36 -18 72q1 47 14 67h729q106 0 106 -82v-1077zM339 0q-23 -12 -70 -12q-48 0 -70 12v725
q23 14 70 14t70 -14v-725z" />
    <glyph glyph-name="uniFB35" unicode="&#xfb35;" 
d="M766 0q-22 -12 -69 -12q-48 0 -70 12v954q0 66 -27 66h-245q-20 36 -19 72q2 47 15 67h309q106 0 106 -82v-1077zM535 588q0 -31 -22.5 -53.5t-53.5 -22.5t-53.5 22.5t-22.5 53.5q0 30 22.5 53t53.5 23t53.5 -23t22.5 -53z" />
    <glyph glyph-name="uniFB36" unicode="&#xfb36;" 
d="M875 1092q1 -36 -19 -72h-178v-1020q-22 -12 -69 -12q-48 0 -70 12v1020h-166q-20 36 -18 72q2 47 14 67h492q12 -20 14 -67zM484 588q0 -31 -22.5 -53.5t-53.5 -22.5t-53.5 22.5t-22.5 53.5q0 30 22.5 53t53.5 23t53.5 -23t22.5 -53z" />
    <glyph glyph-name="uniFB38" unicode="&#xfb38;" 
d="M998 180q-44 -192 -385 -192q-145 0 -250 52q-139 68 -139 204v714q0 62 -47 62h-61q-20 36 -19 72q2 47 14 67h173q79 0 79 -76v-772q0 -90 76 -144q72 -50 180 -48q210 3 240 92v690q0 146 -125 146q-119 0 -119 -158v-160h-139v160q0 297 266 297q256 0 256 -285v-721
zM679 465q0 -31 -22.5 -53.5t-53.5 -22.5t-53.5 22.5t-22.5 53.5t22.5 53.5t53.5 22.5t53.5 -22.5t22.5 -53.5z" />
    <glyph glyph-name="uniFB39" unicode="&#xfb39;" 
d="M795 647q-22 -12 -70 -12q-47 0 -69 12v311q0 62 -47 62h-226q-20 36 -18 72q2 47 14 67h336q80 0 80 -76v-436zM582 821q0 -30 -22.5 -53t-53.5 -23q-30 0 -53 23t-23 53q0 31 23 53.5t53 22.5q31 0 53.5 -22.5t22.5 -53.5z" />
    <glyph glyph-name="uniFB3A" unicode="&#xfb3a;" 
d="M509 588q0 -31 -22.5 -53.5t-53.5 -22.5t-53.5 22.5t-22.5 53.5q0 30 22.5 53t53.5 23t53.5 -23t22.5 -53zM863 -240q-22 -12 -70 -12q-47 0 -69 12v1194q0 66 -27 66h-514q-20 36 -18 72q2 47 14 67h578q106 0 106 -82v-1317z" />
    <glyph glyph-name="uniFB3B" unicode="&#xfb3b;" 
d="M991 307q0 -307 -305 -307h-530q-20 36 -19 72q2 47 15 67h532q168 0 168 168v547q0 72 -57 119t-133 47h-506q-20 36 -19 72q2 47 15 67h548q122 0 201 -70q90 -82 90 -237v-545zM588 588q0 -31 -22.5 -53.5t-53.5 -22.5t-53.5 22.5t-22.5 53.5q0 30 22.5 53t53.5 23
t53.5 -23t22.5 -53z" />
    <glyph glyph-name="uniFB3C" unicode="&#xfb3c;" 
d="M981 618l-379 -370q-45 -44 -45 -109v-88q0 -51 -70 -51q-69 0 -69 51v101q0 108 104 210l320 314v285q0 59 -43 59h-553q-121 0 -121 104v238q22 12 70 12q47 0 69 -12v-168q0 -35 45 -35h559q50 0 81.5 -27.5t31.5 -70.5v-443zM565 690q0 -31 -22.5 -53.5t-52.5 -22.5
q-31 0 -53.5 22.5t-22.5 53.5t22.5 53.5t53.5 22.5q30 0 52.5 -22.5t22.5 -53.5z" />
    <glyph glyph-name="uniFB3E" unicode="&#xfb3e;" 
d="M698 588q0 -31 -22.5 -53.5t-53.5 -22.5q-30 0 -52.5 22.5t-22.5 53.5q0 30 22.5 53t52.5 23q31 0 53.5 -23t22.5 -53zM993 139q0 -139 -88 -139h-297q-12 20 -14 68q-2 36 18 71h203q39 0 39 49v715q0 62 -47.5 105t-118.5 43q-139 0 -220 -117q-73 -103 -73 -248v-686
q-28 -14 -74 -12q-51 2 -65 12v971q0 49 -33 49h-117q-20 36 -18 72q2 47 14 67h197q84 0 90 -65l10 -107q46 86 128 141q86 58 179 58q110 0 193 -59q94 -67 94 -179v-809z" />
    <glyph glyph-name="uniFB40" unicode="&#xfb40;" 
d="M766 154q0 -154 -96 -154h-299q-16 25 -14 63q2 46 14 76h186q70 0 70 47v791q0 30 -16 38q-12 5 -54 5h-141q-18 29 -16 72q2 47 14 67h236q116 0 116 -139v-866zM568 588q0 -31 -22.5 -53.5t-53.5 -22.5t-53.5 22.5t-22.5 53.5q0 30 22.5 53t53.5 23t53.5 -23t22.5 -53
z" />
    <glyph glyph-name="uniFB41" unicode="&#xfb41;" 
d="M971 274q0 -129 -106 -207q-102 -75 -261 -75q-154 0 -250 77.5t-96 204.5v746h-106q-19 29 -17 72q2 47 14 67h715q41 0 74 -32.5t33 -75.5v-777zM836 332v624q0 64 -39 64h-400v-688q0 -203 219 -203q97 0 155 48q65 54 65 155zM690 588q0 -31 -22.5 -53.5t-53.5 -22.5
q-30 0 -52.5 22.5t-22.5 53.5q0 30 22.5 53t52.5 23q31 0 53.5 -23t22.5 -53z" />
    <glyph glyph-name="uniFB43" unicode="&#xfb43;" 
d="M644 821q0 -30 -22.5 -53t-53.5 -23t-53.5 23t-22.5 53q0 31 22.5 53.5t53.5 22.5t53.5 -22.5t22.5 -53.5zM952 -238q-29 -16 -69 -16t-70 16v1201q0 57 -45 57h-377q-45 0 -45 -57v-353q0 -49 39 -49h187q19 -36 18 -72q-2 -47 -14 -67h-281q-88 0 -88 82v516
q0 139 102 139h541q102 0 102 -139v-1258z" />
    <glyph glyph-name="uniFB44" unicode="&#xfb44;" 
d="M657 821q0 -30 -22.5 -53t-53.5 -23t-53.5 23t-22.5 53q0 31 22.5 53.5t53.5 22.5t53.5 -22.5t22.5 -53.5zM970 266q0 -126 -36 -186q-47 -80 -169 -80h-510q-19 36 -18 72q2 47 14 67h471q74 0 95 42q14 29 14 126v656q0 57 -45 57h-377q-45 0 -45 -57v-312
q0 -49 39 -49h227q20 -36 19 -72q-2 -47 -15 -67h-321q-88 0 -88 82v475q0 139 102 139h541q102 0 102 -139v-754z" />
    <glyph glyph-name="uniFB46" unicode="&#xfb46;" 
d="M1045 1020q0 -266 -285 -469q135 -117 172 -165q82 -106 82 -241q0 -145 -113 -145h-727q-20 36 -18 72q2 47 14 67h662q45 0 45 51q0 78 -104 175l-218 180q-118 98 -156 148q-67 89 -67 202v59q0 66 -27 66h-151q-20 36 -19 72q2 47 15 67h215q106 0 106 -82v-125
q0 -121 43 -183q27 -40 146 -132q116 92 164 147q77 88 77 170q0 66 -26 66h-142q-19 36 -18 72q2 47 14 67h205q64 0 87.5 -30t23.5 -109zM492 356q0 -30 -22.5 -52.5t-53.5 -22.5t-53.5 22.5t-22.5 52.5q0 31 22.5 53.5t53.5 22.5t53.5 -22.5t22.5 -53.5z" />
    <glyph glyph-name="uniFB47" unicode="&#xfb47;" 
d="M700 727q0 -31 -22.5 -53.5t-52.5 -22.5q-31 0 -53.5 22.5t-22.5 53.5t22.5 53.5t53.5 22.5q30 0 52.5 -22.5t22.5 -53.5zM999 629q-32 -86 -186 -267l-85 -100q-38 -52 -38 -94v-117q0 -51 -70 -51q-69 0 -69 51v152q0 59 49 121l106 120q124 150 154 230v287
q0 59 -43 59h-623q-19 36 -18 72q2 47 14 67h697q49 0 80.5 -27.5t31.5 -70.5v-432zM399 -219q0 -35 -69 -35q-70 0 -70 35v1022q23 14 70 14q46 0 69 -14v-1022z" />
    <glyph glyph-name="uniFB48" unicode="&#xfb48;" 
d="M912 0q-22 -12 -69 -12q-48 0 -70 12v954q0 66 -27 66h-563q-20 36 -18 72q2 47 14 67h627q106 0 106 -82v-1077zM557 588q0 -31 -22.5 -53.5t-53.5 -22.5t-53.5 22.5t-22.5 53.5q0 30 22.5 53t53.5 23t53.5 -23t22.5 -53z" />
    <glyph glyph-name="uniFB49" unicode="&#xfb49;" 
d="M978 588q0 -31 -22.5 -53.5t-53.5 -22.5t-53.5 22.5t-22.5 53.5q0 30 22.5 53t53.5 23t53.5 -23t22.5 -53zM1149 246q0 -246 -248 -246h-500q-247 0 -247 246v831q0 82 106 82h170q13 -20 14 -67q2 -36 -18 -72h-107q-26 0 -26 -66v-747q0 -68 135 -68h154v1020
q18 10 71 10q49 0 68 -10v-1020h153q136 0 136 68v747q0 66 -27 66h-106q-20 36 -19 72q2 47 14 67h170q107 0 107 -82v-831z" />
    <glyph glyph-name="uniFB4A" unicode="&#xfb4a;" 
d="M707 588q0 -31 -22.5 -53.5t-52.5 -22.5q-31 0 -53.5 22.5t-22.5 53.5q0 30 22.5 53t53.5 23q30 0 52.5 -23t22.5 -53zM1039 0q-22 -12 -69 -12q-48 0 -70 12v954q0 66 -27 66h-491v-866q0 -154 -96 -154h-217q-16 25 -15 63q2 46 15 76h104q70 0 70 47v791q0 30 -17 38
q-11 5 -53 5h-80q-18 29 -16 72q2 47 14 67h842q106 0 106 -82v-1077z" />
    <glyph glyph-name="uniFB4B" unicode="&#xfb4b;" 
d="M571 1292q0 -30 -22.5 -52.5t-53.5 -22.5t-53.5 22.5t-22.5 52.5q0 31 22.5 53.5t53.5 22.5t53.5 -22.5t22.5 -53.5zM763 0q-22 -12 -69 -12q-48 0 -70 12v954q0 66 -27 66h-245q-20 36 -19 72q2 47 15 67h309q106 0 106 -82v-1077z" />
    <glyph glyph-name="uniFB4C" unicode="&#xfb4c;" 
d="M770 1265h-376v113h376v-113zM1086 70q0 -50 -20 -70h-885q-20 20 -20 70q0 47 20 69h635v742q0 48 -20 88q-27 51 -76 51h-459q-20 20 -20 70q0 46 20 69h475q105 0 166 -88q53 -77 53 -190v-742h111q20 -29 20 -69z" />
    <glyph glyph-name="uniFB4D" unicode="&#xfb4d;" 
d="M722 1265h-376v113h376v-113zM991 307q0 -307 -305 -307h-530q-20 36 -19 72q2 47 15 67h532q168 0 168 168v547q0 72 -57 119t-133 47h-506q-20 36 -19 72q2 47 15 67h548q122 0 201 -70q90 -82 90 -237v-545z" />
    <glyph glyph-name="uniFB4E" unicode="&#xfb4e;" 
d="M773 1265h-376v113h376v-113zM970 266q0 -126 -36 -186q-47 -80 -169 -80h-510q-19 36 -18 72q2 47 14 67h471q74 0 95 42q14 29 14 126v656q0 57 -45 57h-377q-45 0 -45 -57v-312q0 -49 39 -49h227q20 -36 19 -72q-2 -47 -15 -67h-321q-88 0 -88 82v475q0 139 102 139
h541q102 0 102 -139v-754z" />
    <glyph glyph-name="uniFB4F" unicode="&#xfb4f;" 
d="M1114 0h-161l-467 664q-119 -40 -159 -120q-32 -61 -32 -194q0 -121 12 -161q14 -50 60 -50h133q21 -20 21 -67q0 -43 -21 -72h-205q-100 0 -128 109q-11 46 -11 194q0 229 66 328q41 63 190 147l-161 242h-72q-121 0 -121 104v238q22 12 70 12q47 0 69 -12v-168
q0 -35 46 -35h77l383 -563q121 0 181 89q50 75 50 198q0 137 -71 137h-99q-20 20 -20 70q0 40 20 69h170q137 0 137 -246q0 -382 -282 -438z" />
    <glyph glyph-name="uni05DA_uni05B0.ccmp" 
d="M509 588q0 -31 -22.5 -53.5t-53.5 -22.5t-53.5 22.5t-22.5 53.5q0 30 22.5 53t53.5 23t53.5 -23t22.5 -53zM863 -240q-22 -12 -69 -12q-48 0 -70 12v1194q0 66 -27 66h-514q-20 36 -18 72q2 47 14 67h578q106 0 106 -82v-1317zM509 362q0 -30 -22.5 -52.5t-53.5 -22.5
t-53.5 22.5t-22.5 52.5q0 31 22.5 53.5t53.5 22.5t53.5 -22.5t22.5 -53.5z" />
    <glyph glyph-name="uni05DA_uni05B8.ccmp" 
d="M861 -240q-22 -12 -69 -12q-48 0 -70 12v1194q0 66 -27 66h-514q-20 36 -18 72q2 47 14 67h578q106 0 106 -82v-1317zM591 559h-123v-129h-100v129h-123v92h346v-92z" />
    <glyph glyph-name="uni05DC_uni05B9.ccmp" 
d="M70 1292q0 -30 -22.5 -52.5t-53.5 -22.5t-53.5 22.5t-22.5 52.5q0 31 22.5 53.5t53.5 22.5t53.5 -22.5t22.5 -53.5zM981 618l-379 -370q-45 -44 -45 -109v-88q0 -51 -70 -51q-69 0 -69 51v101q0 108 104 210l320 314v285q0 59 -43 59h-553q-121 0 -121 104v238
q22 12 70 12q47 0 69 -12v-168q0 -35 45 -35h559q50 0 81.5 -27.5t31.5 -70.5v-443z" />
    <glyph glyph-name="uni05DC_uni05BC_uni05B9.ccmp" 
d="M72 1292q0 -30 -22.5 -52.5t-53.5 -22.5t-53.5 22.5t-22.5 52.5q0 31 22.5 53.5t53.5 22.5t53.5 -22.5t22.5 -53.5zM983 618l-379 -370q-45 -44 -45 -109v-88q0 -51 -70 -51q-69 0 -69 51v101q0 108 104 210l320 314v285q0 59 -43 59h-553q-121 0 -121 104v238
q22 12 70 12q47 0 69 -12v-168q0 -35 45 -35h559q50 0 81.5 -27.5t31.5 -70.5v-443zM567 690q0 -31 -22.5 -53.5t-52.5 -22.5q-31 0 -53.5 22.5t-22.5 53.5t22.5 53.5t53.5 22.5q30 0 52.5 -22.5t22.5 -53.5z" />
    <glyph glyph-name="glyph364" 
d="M563 -436q0 -31 -22.5 -53.5t-52.5 -22.5q-31 0 -53.5 22.5t-22.5 53.5q0 30 22.5 53t53.5 23q30 0 52.5 -23t22.5 -53zM546 -211q0 -31 -23 -53.5t-53 -22.5q-31 0 -53.5 22.5t-22.5 53.5t22.5 53.5t53.5 22.5q30 0 53 -22.5t23 -53.5zM292 -211q0 -31 -23 -53.5
t-53 -22.5q-31 0 -53.5 22.5t-22.5 53.5t22.5 53.5t53.5 22.5q30 0 53 -22.5t23 -53.5zM1048 -218q0 -36 -23.5 -59.5t-59.5 -23.5q-34 0 -58 24.5t-25 58.5q-1 45 42 72q18 11 41 11q35 0 59 -24t24 -59zM1048 -444q0 -35 -24 -59t-59 -24q-34 0 -58 24.5t-25 58.5
q-1 33 24.5 58t58.5 25q35 0 59 -24t24 -59zM776 -497h-103v332h103v-332z" />
    <glyph glyph-name="glyph365" 
d="M536 -281h-346v113h346v-113zM1015 -218q0 -36 -23.5 -59.5t-59.5 -23.5q-34 0 -58 24.5t-25 58.5q-1 45 42 72q18 11 41 11q35 0 59 -24t24 -59zM1015 -444q0 -35 -24 -59t-59 -24q-34 0 -58 24.5t-25 58.5q-1 33 24.5 58t58.5 25q35 0 59 -24t24 -59zM743 -497h-103
v332h103v-332z" />
    <glyph glyph-name="glyph366" 
d="M536 -281h-123v-149h-100v149h-123v113h346v-113zM1015 -218q0 -36 -23.5 -59.5t-59.5 -23.5q-34 0 -58 24.5t-25 58.5q-1 45 42 72q18 11 41 11q35 0 59 -24t24 -59zM1015 -444q0 -35 -24 -59t-59 -24q-34 0 -58 24.5t-25 58.5q-1 33 24.5 58t58.5 25q35 0 59 -24
t24 -59zM743 -497h-103v332h103v-332z" />
  </font>
</defs>
</svg>
